<?xml version="1.0" encoding="iso-8859-1"?>
<!-- Generator: Adobe Illustrator 23.0.3, SVG Export Plug-In . SVG Version: 6.00 Build 0)  -->
<svg version="1.1" id="Layer_1" xmlns="http://www.w3.org/2000/svg" xmlns:xlink="http://www.w3.org/1999/xlink" x="0px" y="0px"
	 viewBox="0 0 714 714" style="enable-background:new 0 0 714 714;" xml:space="preserve">
<g>
	<path style="fill:#BC2D1F;" d="M464.57,296.004c25.308-14.265,4.591-39.898,4.591-39.898c2.458,23.175-28.529,31.905-38.977,4.916
		c-10.447-26.989,40.057-76.18-9.145-148.719c-28.007-41.29-76.615-30.472-76.615-30.472v3.482c0,0-5.224,43.531-5.224,74.003
		s2.684,173.962,41.602,197.657c38.918,23.695,75.717-17.998,90.114-5.005c9.186,8.29-1.993,26.746-1.993,26.746
		s29.734-13.754,31.489-37.28C503.038,306.251,464.57,296.004,464.57,296.004z"/>
	<path style="fill:#D7F0FC;" d="M412.592,218.026c1.559-1.819-16.443,57.316,14.564,82.215c31.007,24.9,47.339,6.4,63.893,32.886
		c11.745,18.792-9.396,41.812-22.55,45.571c0,0,18.361-12.822,12.215-28.188c-3.758-9.396-19.262-12.685-35.235-11.745
		c-18.393,1.082-48.39-7.047-57.786-40.873C378.297,264.066,401.317,231.18,412.592,218.026z"/>
	<path style="fill:#3B5E8D;" d="M555.308,463.975l-9.286,12.382c5.417-16.251-8.306-27.159-8.306-27.159s5.211,20.194-9.492,28.706
		c-14.703,8.512-23.989-1.548-50.3-40.24c-26.311-38.693-65.777-23.215-68.873-20.894l-3.095,3.095
		c-5.417,2.322,4.382,104.457,36.11,115.291c31.728,10.834,57.152,13.602,85.011-5.744
		C554.935,510.067,555.308,463.975,555.308,463.975z"/>
	<path style="fill:#BC2D1F;" d="M398.849,276.7c0,0,0.115,0.35,0.344,0.986c1.835,5.116,14.012,26.535,29.062,35.91
		c16.922,10.542,42.722,16.368,42.722,16.368s-26.909,1.664-46.328-4.161c-19.419-5.826-24.967-19.419-24.967-19.419L398.849,276.7z
		"/>
	<path style="fill:#D83527;" d="M406.544,437.351c2.959-1.973,34.028-4.932,52.275,10.356c18.247,15.288,18.74,33.535,36.001,44.877
		c17.261,11.343,38.632,7.336,48.495-10.418c0,0-3.11,26.749-31.727,33.103c-21.723,4.824-38.466-10.356-44.877-21.699
		c-6.411-11.343-21.699-36.494-36.987-45.371C414.434,439.324,406.544,437.351,406.544,437.351z"/>
	<path style="fill:#D7F0FC;" d="M369.177,118.002c0,0-1.424-34.892-19.938-52.694c-18.514-17.802-49.846-27.771-74.769-11.393
		c-24.923,16.378-41.301,63.376-54.831,61.952c-13.53-1.424-14.954-7.833-14.954-7.833s6.409,29.908,21.363,27.059
		C241.002,132.243,369.177,118.002,369.177,118.002z"/>
	<path style="fill:#ACCCE6;" d="M240.671,290.29c0,0-6.105,102.772,41.719,175.017c0,0-32.561,22.386-34.596,50.877
		c-2.035,28.491,31.544,111.93,31.544,111.93l-10.175,34.596c0,0,38.667,9.158,52.912,0c0,0-8.14-31.544-9.158-50.877
		c-1.018-19.333,11.644-57.865,21.368-68.175c9.061-9.608,25.597-25.039,49-8.758c23.403,16.281,71.07,85.074,71.07,85.074
		s4.07,29.509,5.088,33.579c1.018,4.07,34.596,3.053,38.667,3.053c4.07,0,20.351-18.316,20.351-18.316l-26.456-31.544
		c0,0-13.228-70.21-29.509-92.596c-16.281-22.386-31.954-57.517-31.954-57.517s-20.21-79.494-20.21-121.261
		c0-12.151,0.781-42.947,9.431-61.978c15.211-33.464,52.622-67.416,60.563-76.038c7.425-8.061,20.224-4.868,23.005-23
		s-25.046-29.194-25.046-29.194l-21.542,18.339c0,0-76.813,67.914-103.333,85.204C326.89,265.994,238.636,224.15,240.671,290.29z"/>
	<path style="fill:#D4E5F6;" d="M238.151,166.043c0,0-17.483,40.463,6.395,69.012c6.872,8.216,7.154,33.73,7.154,43.892
		s16.935,25.968,31.613,29.355c14.677,3.387,27.097-10.161,36.129-38.387c0,0,20.323-6.774,39.516-21.452
		s30.484-23.71,20.323-65.484S286.699,85.882,238.151,166.043z"/>
	<path style="fill:#3B5E8D;" d="M279.338,628.114c0,0,7.918,4.93,15.242,5.36c7.324,0.431,21.54-5.17,21.54-5.17l8.185,34.465
		c0,0-20.248,11.632-32.742,9.909c-12.493-1.723-26.71-9.047-26.71-9.047L279.338,628.114z"/>
	<path style="fill:#3B5E8D;" d="M454.355,619.973c0.487-1.147,9.964,2.73,20.304,3.161c10.339,0.431,17.345-16.389,17.345-16.389
		l26.456,31.544c0,0-15.023,17.67-20.107,20.172c-15.919,7.835-40.065-1.292-40.927-2.585
		C456.565,654.584,454.355,619.973,454.355,619.973z"/>
	<path style="fill:#3B5E8D;" d="M480.571,196.734c0,0-0.686-5.684-7.052-14.356s-21.955-13.747-21.955-13.747
		s27.59-41,28.916-41.152c1.326-0.152,21.6,20.355,24.272,26.093c2.672,5.737,3.322,23.438,1.214,27.306
		C503.857,184.746,489.873,193.52,480.571,196.734z"/>
	<path style="fill:#3B5E8D;" d="M306.792,201.283c0.847-0.088,12.397,5.994,23.946,5.867c11.549-0.127,23.854-13.607,23.854-13.607
		s13.916,4.124,23.865,0.951c0,0-8.056,4.903-21.197,4.125c0,0,13.025,3.788,19.19,3.363c0,0-15.704,5.482-23.813,1.613
		c0,0,7.014,5.696,13.501,6.308c0,0-14.317,2.341-19.226-1.646c0,0,3.515,4.988,9.052,6.769c0,0-12.973-1.224-15.823-3.926
		l8.249,7.281c0,0-11.133-2.057-13.858-5.629l4.56,6.807c0,0-9.16-1.619-12.697-6.82l1.952,6.435l-7.599-9.275l1.616,7.326
		l-6.05-8.793L306.792,201.283z"/>
	<path style="fill:#D4E5F6;" d="M362.881,121.059c0,0,17.234-31.98,47.444-33.888c0,0,3.879,35.018-16.266,48.799
		C380.951,144.936,362.881,121.059,362.881,121.059z"/>
	<path style="fill:#ACCCE6;" d="M380.835,113.942c0.569-1.044,19.13-19.905,21.789-14.588c2.659,5.318-2.911,24.159-11.951,30.009
		S376.049,122.716,380.835,113.942z"/>
	<path style="fill:#3B5E8D;" d="M280.137,201.283c-0.847-0.088-12.397,5.994-23.946,5.867
		c-11.549-0.127-23.854-13.607-23.854-13.607s-13.916,4.124-23.865,0.951c0,0,8.056,4.903,21.197,4.125
		c0,0-13.025,3.788-19.19,3.363c0,0,15.704,5.482,23.813,1.613c0,0-7.014,5.696-13.501,6.308c0,0,14.317,2.341,19.226-1.646
		c0,0-3.515,4.988-9.052,6.769c0,0,12.973-1.224,15.823-3.926l-8.249,7.281c0,0,11.133-2.057,13.858-5.629l-4.56,6.807
		c0,0,9.16-1.619,12.697-6.82l-1.952,6.435l7.599-9.275l-1.616,7.326l6.05-8.793L280.137,201.283z"/>
	<path style="fill:#A7CFE7;" d="M244.742,315.729c0,0-56.982-19.333-55.965-56.982c1.018-37.649,63.088-41.719,63.088-41.719
		s18.316-11.193,28.491-13.228c10.175-2.035,31.544,11.193,33.579,17.298s-7.292,38.104-16.541,38.701
		c-4.187,0.27-24.465-7.161-24.465-7.161s-12.923,3.056-25.133,21.372C245.759,277.062,245.759,305.553,244.742,315.729z"/>
	<path style="fill:#3B5E8D;" d="M272.224,251.658c0,0-0.874-14.269-3.494-20.676s-15.784-14.578-15.784-14.578
		s21.899-13.67,28.597-14.543c6.698-0.874,33.198,11.357,34.071,19.22c0.874,7.863-8.445,35.527-13.396,38.44
		C297.268,262.432,272.224,251.658,272.224,251.658z"/>
	<path style="fill:#ACCCE6;" d="M277.446,277.252c0-1.091,8.725-10.906,13.633-4.635c4.908,6.271-4.635,5.453-4.635,5.453
		L277.446,277.252z"/>
	<path style="fill:#ACCCE6;" d="M263.269,275.344c0.853-0.126-4.635-8.725-8.725-4.908S255.907,276.434,263.269,275.344z"/>
	<path style="fill:#D83527;" d="M246.515,172.287c-14.251,3.239-48.173-2.902-54.558-27.859c0,0,5.804,13.349,26.118,13.349
		c0,0-20.314-6.965-19.734-34.824s14.51-42.369,14.51-42.369s-13.349,21.475-5.804,34.244c7.545,12.769,17.412,16.832,17.412,16.832
		s2.274-4.399,25.851-38.554c10.202-14.78,50.562-28.09,71.161-14.981c25.24,16.062,24.345,40.574,24.345,40.574
		s7.989-6.963,28.714-1.873c35.58,8.739,37.98,53.72,33.917,68.811c-4.063,15.09-23.216,39.467-16.832,53.977
		c6.384,14.51,11.028,19.153,11.028,19.153s-20.314-8.126-22.636-18.573l4.063,18.573c0,0-19.396-14.7-17.655-40.818
		s11.86-24.345,1.873-44.944c-9.669-19.942-19.042-30.899-19.042-30.899s-32.667,11.05-49.334,8.706
		C262.766,145.588,272.052,166.483,246.515,172.287z"/>
	<polygon style="fill:#FFFBCE;" points="283.246,341.767 287.869,351.135 298.206,352.637 290.726,359.928 292.492,370.224 
		283.246,365.363 273.999,370.224 275.765,359.928 268.285,352.637 278.623,351.135 	"/>
	<polygon style="fill:#FFFBCE;" points="382.949,370.062 385.931,376.103 392.597,377.071 387.773,381.774 388.912,388.413 
		382.949,385.278 376.987,388.413 378.125,381.774 373.301,377.071 379.968,376.103 	"/>
	<polygon style="fill:#FFFBCE;" points="394.124,394.95 397.215,401.213 404.127,402.217 399.125,407.092 400.306,413.976 
		394.124,410.726 387.943,413.976 389.123,407.092 384.122,402.217 391.034,401.213 	"/>
	<polygon style="fill:#FFFBCE;" points="381.602,430.692 384.583,436.733 391.25,437.702 386.426,442.404 387.565,449.044 
		381.602,445.909 375.639,449.044 376.778,442.404 371.954,437.702 378.621,436.733 	"/>
	<polygon style="fill:#FFFBCE;" points="296.719,430.692 300.138,437.62 307.784,438.731 302.251,444.124 303.557,451.739 
		296.719,448.143 289.881,451.739 291.187,444.124 285.654,438.731 293.3,437.62 	"/>
	<polygon style="fill:#FFFBCE;" points="337.14,428.671 341.763,438.039 352.1,439.541 344.62,446.832 346.386,457.128 
		337.14,452.267 327.893,457.128 329.659,446.832 322.179,439.541 332.516,438.039 	"/>
	<polygon style="fill:#FFFBCE;" points="356.676,390.946 361.299,400.313 371.637,401.815 364.156,409.107 365.922,419.402 
		356.676,414.541 347.43,419.402 349.196,409.107 341.716,401.815 352.053,400.313 	"/>
	<polygon style="fill:#FFFBCE;" points="370.823,336.378 375.446,345.745 385.784,347.247 378.304,354.539 380.069,364.835 
		370.823,359.974 361.577,364.835 363.343,354.539 355.863,347.247 366.2,345.745 	"/>
	<polygon style="fill:#FFFBCE;" points="327.801,311.678 332.424,321.046 342.761,322.548 335.281,329.839 337.047,340.135 
		327.801,335.274 318.555,340.135 320.32,329.839 312.84,322.548 323.178,321.046 	"/>
	<polygon style="fill:#FFFBCE;" points="329.729,355.241 334.352,364.608 344.69,366.11 337.209,373.402 338.975,383.697 
		329.729,378.836 320.483,383.697 322.249,373.402 314.769,366.11 325.106,364.608 	"/>
	<polygon style="fill:#FFFBCE;" points="299.414,388.925 304.037,398.292 314.374,399.794 306.894,407.085 308.66,417.381 
		299.414,412.52 290.168,417.381 291.934,407.085 284.453,399.794 294.791,398.292 	"/>
	<path style="fill:#D7F0FC;" d="M352.233,124.331c-2.213-0.651,19.088-4.127,33.533,9.802
		c14.445,13.929,14.321,33.344,11.647,44.824c-5.764,24.743-16.032,31.16-15.604,62.392c0,0-6.479-6.664-5.99-20.108
		c0.856-23.531,6.335-42.225,5.819-68.02S361.003,126.91,352.233,124.331z"/>
	<path style="fill:#D7F0FC;" d="M334.747,118.132c0.687,1.786,1.711-24.387-23.103-34.227c-15.893-6.303-34.227-1.284-44.495,10.268
		c-10.268,11.552-12.835,35.938-25.67,47.062s-22.247,2.567-22.247,2.567s7.273,10.696,20.964,8.557
		c13.691-2.139,28.665-29.521,47.062-45.35S332.608,112.57,334.747,118.132z"/>
	<path style="fill:#FFFBD3;" d="M277.676,171.137c0,0-12.708-3.05-12.199-16.774c0,0-8.133-4.575-10.166-10.675
		s-1.525-12.199-1.525-12.199s-7.625-2.542-9.15-9.15c-1.525-6.608-1.525-14.233-1.525-14.233s-6.1-1.017-8.133-8.641
		s-0.66-11.702-0.66-11.702s-8.998-16.764-5.948-17.272c3.05-0.508,9.475,3.739,13.542,13.397c0,0,11.003,2.635,10.857,15.576
		c0,0,13.009,4.571,12.389,19.448c0,0,13.929,2.468,15.963,20.767c0,0,11.254,0.073,13.287,12.781
		c2.033,12.708-9.163,18.697-14.754,18.697C279.654,171.158,277.924,171.242,277.676,171.137z"/>
</g>
</svg>
