<?xml version="1.0" encoding="iso-8859-1"?>
<!-- Generator: Adobe Illustrator 24.1.1, SVG Export Plug-In . SVG Version: 6.00 Build 0)  -->
<svg version="1.1" id="Layer_1" xmlns="http://www.w3.org/2000/svg" xmlns:xlink="http://www.w3.org/1999/xlink" x="0px" y="0px"
	 viewBox="0 0 714 714" style="enable-background:new 0 0 714 714;" xml:space="preserve">
<g>
	<path style="fill:#27B29D;" d="M363.393,355.742c-4.367-1.637-18.186-21.65-18.186-21.65s-4.33-62.353-26.846-100.458
		c-22.516-38.105-105.654-57.157-186.194-15.588c-33.215,17.143-57.344,45.005-69.526,77.913l9.078,4.539l-10.865,0.587
		c-0.313,0.956-0.635,1.908-0.928,2.871l9.424,4.123l-10.829,0.833c-1.337,5.042-2.395,10.18-3.184,15.392l13.54-0.589
		l-13.973,8.151l-0.972,22.901c0.016,0.289,0.04,0.579,0.058,0.869l12.044-5.859l-11.549,11.87c0.11,1.079,0.205,2.157,0.339,3.239
		c0.418,3.385,0.947,6.772,1.438,10.16l11.194-9.158l-10.078,18.266c0.367,4.12,0.483,8.241,0.072,12.364
		c-1.301,13.059-7.72,24.976-14.012,36.493c2.947-5.395,11.921-10.551,16.102-15.556c5.138-6.151,9.579-12.884,13.241-20.012
		c7.676-14.944,10.12-29.426,11.124-45.783c1.74-28.367,19.396-61.782,39.954-80.999c39.837-37.239,83.654-41.356,83.654-41.356
		s-58.023,14.722-84.87,54.559c-28.713,42.606-41.4,88.792-28.294,139.603c2.139,8.293,5.016,16.979,11.644,22.403
		c0.664,0.543,1.423,1.07,2.281,1.073c1.642,0.007,2.626-1.789,3.158-3.342c3.044-8.897,3.365-18.461,3.656-27.861
		c1.066-34.379-0.416-84.104,30.071-108.494c0,0-30.31,53.693-20.784,97.862c4.105,19.029,14.329,36.724,22.254,54.542
		c3.552,7.987,7.162,16.211,7.543,24.944c7.831-11.834,10.513-26.482,10.101-40.666c-0.594-20.495-7.092-38.281-4.43-58.871
		c1.238-9.577,7.537-18.764,8.697-27.582c0,0-6.928,51.961,10.392,79.673c17.32,27.712,35.507,33.774,43.301,26.846
		c7.794-6.928-10.167-15.9-17.059-34.607c-7.807-21.191-2.788-47.959-2.788-47.959s-2.313,24.844,6.335,47.051
		c8.12,20.851,26.857,39.062,37.761,41.578c22.516,5.196,1.732-24.248,8.66-42.435c6.928-18.186,34.641-38.104,34.641-38.104
		s-21.65,23.382-18.186,40.703s12.124,4.33,24.248-7.794c12.124-12.124,19.918-13.856,19.918-13.856s-17.32,29.445-6.062,30.311
		s23.382-0.866,38.971-15.588C364.259,408.569,370.321,358.34,363.393,355.742z"/>
</g>
<g>
	<g>
		<path style="fill:#BC984D;" d="M460.074,509.199c0.439,1.317,20.291,24.715,20.443,32.496c0.052,2.67-6.992,2.709-13.578,1.831
			c-6.586-0.878-12.583,2.817-14.34,6.769c-1.756,3.951,0.439,8.781,0.439,8.781s3.943-6.76,6.578-4.565s9.165,3.528,16.629,3.967
			c7.464,0.439,13.396-1.217,23.494-4.729s20.913-2.136,27.498,0.059c6.586,2.195,9.659,0.878,11.415,0
			c1.756-0.878,5.269,4.391,5.269,4.391s0.667-3.214-0.092-5.976c-0.652-2.37-2.746-4.307-2.746-4.729
			c0-4.126-5.412-9.292-16.919-8.613c-10.166,0.6-20.296,3.069-20.296,3.069s11.515-3.947,19.417-5.264s13.172,3.512,13.172,7.025
			c0,2.224,2.009-2.147,1.88-5.98c-0.075-2.221-2.319-4.557-2.319-4.557s-0.878-9.22-9.22-10.098s-18.236,5.328-23.943,7.523
			s-7.914-0.955-11.426-4.906c-3.512-3.951-10.731-18.862-10.731-18.862L460.074,509.199z"/>
		<g>
			<path style="fill:#A68743;" d="M514.623,540.684c-0.101-0.31-0.273-0.578-0.517-0.804c-0.226-0.244-0.495-0.416-0.805-0.517
				c-0.298-0.157-0.619-0.229-0.963-0.215c-0.222,0.03-0.443,0.06-0.665,0.089c-0.424,0.119-0.791,0.333-1.103,0.643
				c-0.13,0.169-0.261,0.337-0.391,0.506c-0.226,0.39-0.34,0.811-0.341,1.262c0.101,0.805,0.201,1.61,0.302,2.416
				c-0.013,0.344,0.059,0.665,0.215,0.963c0.101,0.31,0.273,0.578,0.517,0.805c0.226,0.244,0.495,0.416,0.805,0.517
				c0.298,0.156,0.619,0.228,0.963,0.215c0.221-0.03,0.443-0.06,0.665-0.089c0.424-0.119,0.791-0.333,1.103-0.643
				c0.13-0.169,0.261-0.337,0.391-0.506c0.226-0.39,0.34-0.811,0.341-1.262c-0.101-0.805-0.201-1.611-0.302-2.416
				C514.851,541.303,514.78,540.981,514.623,540.684z"/>
			<path style="fill:#A68743;" d="M522.638,536.735c-0.647,0.029-1.317,0.241-1.768,0.732c-0.476,0.519-0.653,1.072-0.732,1.768
				c-0.297,2.618-0.593,5.236-0.89,7.853c-0.067,0.594,0.328,1.363,0.732,1.768c0.434,0.434,1.145,0.76,1.768,0.732
				c0.647-0.029,1.317-0.241,1.768-0.732c0.476-0.519,0.653-1.072,0.732-1.768c0.297-2.618,0.593-5.235,0.89-7.853
				c0.067-0.594-0.328-1.363-0.732-1.768C523.972,537.033,523.26,536.707,522.638,536.735z"/>
			<path style="fill:#A68743;" d="M535.003,538.618c-1.362-0.311-2.653,0.41-3.075,1.746c-0.633,2.004-1.266,4.008-1.9,6.012
				c-0.394,1.248,0.464,2.783,1.746,3.075c1.363,0.31,2.653-0.411,3.075-1.746c0.633-2.004,1.266-4.008,1.9-6.012
				C537.143,540.446,536.286,538.91,535.003,538.618z"/>
			<path style="fill:#A68743;" d="M469.248,545.008c-0.344-0.534-0.857-1.004-1.494-1.149c-0.67-0.153-1.315-0.076-1.926,0.252
				c-0.309,0.166-0.591,0.405-0.858,0.621c-0.114,0.092-0.221,0.193-0.318,0.303c-0.231,0.264-0.455,0.545-0.64,0.844
				c-0.182,0.295-0.308,0.638-0.437,0.954c-0.19,0.468-0.251,0.98-0.291,1.479c-0.012,0.146-0.01,0.293,0.005,0.439
				c0.037,0.364,0.071,0.743,0.176,1.096c0.181,0.611,0.595,1.17,1.149,1.494c0.287,0.183,0.597,0.282,0.93,0.297
				c0.332,0.074,0.665,0.06,0.997-0.045c0.605-0.196,1.189-0.571,1.494-1.149c0.301-0.57,0.431-1.228,0.263-1.863
				c-0.001-0.019,0-0.037,0-0.056c0.005-0.017,0.009-0.034,0.014-0.051c0.005-0.009,0.01-0.017,0.015-0.026
				c0.005-0.005,0.01-0.01,0.015-0.016c0.003-0.001,0.006-0.004,0.009-0.006c0.291-0.157,0.525-0.372,0.701-0.644
				c0.221-0.241,0.37-0.525,0.447-0.85c0.104-0.332,0.119-0.665,0.045-0.997C469.53,545.604,469.431,545.294,469.248,545.008z"/>
			<path style="fill:#A68743;" d="M472.175,542.167c-0.647,0.029-1.317,0.241-1.768,0.732c-0.449,0.489-0.732,1.09-0.732,1.768
				c0,1.309,0,2.617,0,3.926c0,0.641,0.279,1.314,0.732,1.768c0.434,0.434,1.145,0.76,1.768,0.732
				c0.647-0.029,1.317-0.241,1.768-0.732c0.449-0.489,0.732-1.091,0.732-1.768c0-1.309,0-2.617,0-3.926
				c0-0.641-0.279-1.314-0.732-1.768C473.509,542.465,472.797,542.139,472.175,542.167z"/>
			<path style="fill:#A68743;" d="M524.809,527.59c-0.14-0.206-0.266-0.42-0.378-0.643c-0.097-0.274-0.174-0.554-0.23-0.839
				c-0.019-0.273-0.019-0.547,0.001-0.82c0.056-0.268,0.123-0.532,0.219-0.79c0.214-0.577,0.048-1.413-0.252-1.926
				c-0.303-0.519-0.898-1.013-1.494-1.149c-0.64-0.146-1.358-0.114-1.926,0.252c-0.574,0.37-0.911,0.854-1.149,1.494
				c-1.027,2.768-0.177,6.072,1.851,8.159c0.443,0.456,1.136,0.732,1.768,0.732c0.613,0,1.346-0.272,1.768-0.732
				c0.927-1.01,0.974-2.533,0-3.536C524.923,527.727,524.869,527.657,524.809,527.59z"/>
			<path style="fill:#A68743;" d="M530.843,528.662c0-1.107,0-2.215,0-3.322c0-0.641-0.279-1.314-0.732-1.768
				c-0.226-0.244-0.495-0.416-0.805-0.517c-0.298-0.157-0.619-0.228-0.963-0.215c-0.647,0.029-1.317,0.241-1.768,0.732
				c-0.449,0.489-0.732,1.09-0.732,1.768c0,1.107,0,2.214,0,3.322c0,0.641,0.279,1.314,0.732,1.768
				c0.226,0.244,0.495,0.416,0.805,0.517c0.298,0.156,0.619,0.228,0.963,0.215c0.647-0.029,1.317-0.241,1.768-0.732
				C530.56,529.94,530.843,529.339,530.843,528.662z"/>
		</g>
	</g>
	<g>
		<path style="fill:#FDB913;" d="M444.213,527.41c0.439,1.317,20.291,24.715,20.443,32.496c0.052,2.67-6.992,2.709-13.578,1.831
			c-6.586-0.878-12.583,2.817-14.34,6.769c-1.756,3.951,0.439,8.781,0.439,8.781s3.943-6.76,6.578-4.565s9.165,3.528,16.629,3.967
			c7.464,0.439,13.396-1.217,23.494-4.729c10.098-3.512,20.913-2.136,27.498,0.059c6.586,2.195,9.659,0.878,11.415,0
			c1.756-0.878,5.269,4.391,5.269,4.391s0.667-3.214-0.092-5.976c-0.652-2.37-2.746-4.307-2.746-4.729
			c0-4.126-5.412-9.292-16.919-8.613c-10.166,0.6-20.296,3.069-20.296,3.069s11.515-3.947,19.417-5.264
			c7.903-1.317,13.172,3.512,13.172,7.025c0,2.224,2.009-2.147,1.88-5.98c-0.075-2.221-2.319-4.557-2.319-4.557
			s-0.878-9.22-9.22-10.098c-8.342-0.878-18.236,5.328-23.943,7.523c-5.708,2.195-7.914-0.955-11.426-4.906
			c-3.512-3.951-10.731-18.862-10.731-18.862L444.213,527.41z"/>
		<g>
			<path style="fill:#DBA111;" d="M498.762,558.895c-0.101-0.31-0.273-0.578-0.517-0.804c-0.226-0.244-0.495-0.416-0.805-0.517
				c-0.298-0.157-0.619-0.229-0.963-0.215c-0.222,0.03-0.443,0.06-0.665,0.089c-0.424,0.119-0.791,0.333-1.103,0.643
				c-0.13,0.169-0.261,0.337-0.391,0.506c-0.226,0.39-0.34,0.811-0.341,1.262c0.101,0.805,0.201,1.61,0.302,2.416
				c-0.013,0.344,0.059,0.665,0.215,0.963c0.101,0.31,0.273,0.578,0.517,0.805c0.226,0.244,0.495,0.416,0.805,0.517
				c0.298,0.156,0.619,0.228,0.963,0.215c0.221-0.03,0.443-0.06,0.665-0.089c0.424-0.119,0.791-0.333,1.103-0.643
				c0.13-0.169,0.261-0.337,0.391-0.506c0.226-0.39,0.34-0.811,0.341-1.262c-0.101-0.805-0.201-1.611-0.302-2.416
				C498.99,559.514,498.918,559.192,498.762,558.895z"/>
			<path style="fill:#DBA111;" d="M506.777,554.946c-0.647,0.029-1.317,0.241-1.768,0.732c-0.476,0.519-0.653,1.072-0.732,1.768
				c-0.297,2.618-0.593,5.236-0.89,7.853c-0.067,0.594,0.328,1.363,0.732,1.768c0.434,0.434,1.145,0.76,1.768,0.732
				c0.647-0.029,1.317-0.241,1.768-0.732c0.476-0.519,0.653-1.072,0.732-1.768c0.297-2.618,0.593-5.235,0.89-7.853
				c0.067-0.594-0.328-1.363-0.732-1.768C508.111,555.244,507.399,554.918,506.777,554.946z"/>
			<path style="fill:#DBA111;" d="M519.142,556.829c-1.362-0.311-2.653,0.41-3.075,1.746c-0.633,2.004-1.266,4.008-1.9,6.012
				c-0.394,1.248,0.464,2.783,1.746,3.075c1.363,0.31,2.653-0.411,3.075-1.746c0.633-2.004,1.266-4.008,1.9-6.012
				C521.282,558.657,520.424,557.121,519.142,556.829z"/>
			<path style="fill:#DBA111;" d="M453.387,563.219c-0.344-0.534-0.857-1.004-1.494-1.149c-0.67-0.153-1.315-0.076-1.926,0.252
				c-0.309,0.166-0.591,0.405-0.858,0.621c-0.114,0.092-0.221,0.193-0.318,0.303c-0.231,0.264-0.455,0.545-0.64,0.844
				c-0.182,0.295-0.308,0.638-0.437,0.954c-0.19,0.468-0.251,0.98-0.291,1.479c-0.012,0.146-0.01,0.293,0.005,0.439
				c0.037,0.364,0.071,0.743,0.176,1.096c0.181,0.611,0.595,1.17,1.149,1.494c0.287,0.183,0.597,0.282,0.93,0.297
				c0.332,0.074,0.665,0.06,0.997-0.045c0.605-0.196,1.189-0.571,1.494-1.149c0.301-0.57,0.431-1.228,0.263-1.863
				c-0.001-0.019,0-0.037,0-0.056c0.005-0.017,0.009-0.034,0.014-0.051c0.005-0.009,0.01-0.017,0.015-0.026
				c0.005-0.005,0.01-0.01,0.015-0.016c0.003-0.001,0.006-0.004,0.009-0.006c0.291-0.157,0.525-0.372,0.701-0.644
				c0.221-0.241,0.37-0.525,0.447-0.85c0.104-0.332,0.119-0.665,0.045-0.997C453.669,563.815,453.57,563.505,453.387,563.219z"/>
			<path style="fill:#DBA111;" d="M456.314,560.378c-0.647,0.029-1.317,0.241-1.768,0.732c-0.449,0.489-0.732,1.09-0.732,1.768
				c0,1.309,0,2.617,0,3.926c0,0.641,0.279,1.314,0.732,1.768c0.434,0.434,1.145,0.76,1.768,0.732
				c0.647-0.029,1.317-0.241,1.768-0.732c0.449-0.489,0.732-1.091,0.732-1.768c0-1.309,0-2.617,0-3.926
				c0-0.641-0.279-1.314-0.732-1.768C457.648,560.676,456.936,560.35,456.314,560.378z"/>
			<path style="fill:#DBA111;" d="M508.948,545.801c-0.14-0.206-0.266-0.42-0.378-0.643c-0.097-0.274-0.174-0.554-0.23-0.839
				c-0.019-0.273-0.019-0.547,0.001-0.82c0.056-0.268,0.123-0.532,0.219-0.79c0.214-0.577,0.048-1.413-0.252-1.926
				c-0.303-0.519-0.898-1.013-1.494-1.149c-0.64-0.146-1.358-0.114-1.926,0.252c-0.574,0.37-0.911,0.854-1.149,1.494
				c-1.027,2.768-0.177,6.072,1.851,8.159c0.443,0.456,1.136,0.732,1.768,0.732c0.613,0,1.346-0.272,1.768-0.732
				c0.927-1.01,0.974-2.533,0-3.536C509.062,545.938,509.007,545.868,508.948,545.801z"/>
			<path style="fill:#DBA111;" d="M514.982,546.873c0-1.107,0-2.215,0-3.322c0-0.641-0.279-1.314-0.732-1.768
				c-0.226-0.244-0.495-0.416-0.805-0.517c-0.298-0.157-0.619-0.228-0.963-0.215c-0.647,0.029-1.317,0.241-1.768,0.732
				c-0.449,0.489-0.732,1.09-0.732,1.768c0,1.107,0,2.214,0,3.322c0,0.641,0.279,1.314,0.732,1.768
				c0.226,0.244,0.495,0.416,0.805,0.517c0.298,0.156,0.619,0.228,0.963,0.215c0.647-0.029,1.317-0.241,1.768-0.732
				C514.699,548.151,514.982,547.55,514.982,546.873z"/>
		</g>
	</g>
	<path style="fill:#007FB2;" d="M431.003,515.918c1.135,2.27,20.048,25.344,23.074,22.696c3.026-2.648,3.783-5.674,3.783-5.674
		s12.861,8.7,13.617,3.783c0.757-4.917-2.648-14.374-2.648-14.374s10.213-8.7,22.318-14.752
		c12.104-6.052,24.209-17.778,24.209-17.778s-15.887,17.022-6.43,13.996c9.457-3.026,20.048-17.4,20.048-17.4
		s-1.135,4.917,9.457-4.161c10.591-9.078,29.505-20.804,21.561-33.287c-7.944-12.483-29.883-51.066-80.948-6.43
		S431.003,515.918,431.003,515.918z"/>
	<path style="fill:#FDB913;" d="M451.696,425.654c-5.622,2.603-44.341,10.788-50.104,15.186
		c-16.004,12.214-30.598,34.64-30.598,34.64l-14.826,48.032l34.42-11.378l-13.991,25.248l39.693-20.552l-13.925,16.928
		c0,0,66.144-19.76,95.698-50.983c29.553-31.223,32.863-76.787,28.857-86.801S451.696,425.654,451.696,425.654z"/>
	<path style="fill:#BC5317;" d="M425.017,414.715c0-7.461-8.953-32.829-4.477-48.497c4.477-15.668,4.477-44.021,4.477-44.021
		c-1.492-2.238-56.704,14.922-63.419,20.145c-6.715,5.223,8.207,5.223,5.969,5.969s-25.056,9.945-36.248,31.583
		s-8.519,37.06-2.55,37.806c2.022,0.253,3.957-1.723,5.634-4.443c-2.868,9.262-5.474,22.87-3.927,39.499
		c2.984,32.083,6.5,38.063,13.215,32.094c2.36-2.097,3.058-7.976,3.072-14.779c2.007,4.707,5.111,9.789,9.825,15.114
		c12.284,13.877,26.646,22.048,28.139,15.333c0.685-3.084-2.566-8.057-6.281-12.533c6.223,5.821,14.453,12.136,21.204,12.533
		c12.684,0.746-1.492-20.891-1.492-20.891s26.114,21.637,31.337,16.415c3.665-3.665-4.056-8.797-8.99-11.533
		c3.344,1.242,7.776,1.491,7.955-5.801c0.289-11.764-4.188-15.495-4.934-17.733c-0.746-2.239,11.938,3.73,12.684-2.239
		c0.746-5.969-5.962-12.491-5.962-17.714c0-5.223,3.724-0.939,6.708-5.416C439.939,431.129,425.017,422.176,425.017,414.715z"/>
	<path style="fill:#00A49D;" d="M416.967,389.219c0,0-35.112,16.345-30.269,23.61s13.924,8.475,12.107,7.87
		c-1.816-0.605-14.529,6.054-6.659,13.924c7.87,7.87,35.717,1.211,35.717,1.211s-12.107,8.475-0.605,11.502
		c11.502,3.027,18.767-1.816,18.767-1.816s-2.422,7.264,9.081,6.659c11.502-0.605,30.269-7.264,33.296-9.686
		c3.027-2.422-1.211,4.238,4.843,5.448c6.054,1.211,13.924-3.027,13.924-3.027s-37.533,30.874-26.636,30.874
		c10.897,0,26.031-5.448,26.031-5.448s1.211,8.475,9.081,6.659c7.87-1.816,24.215-16.345,26.031-17.556
		c1.816-1.211-1.816,10.897,6.659,5.448c8.475-5.448,30.874-24.82,34.506-53.273c3.632-28.453-10.291-36.928-25.426-38.138
		C542.279,372.269,416.967,389.219,416.967,389.219z"/>
	<path style="fill:#E55D25;" d="M392.122,346.055c5.718-9.52,33.263-15.939,33.263-15.939s-28.98,2.584-6.805-11.276
		c22.176-13.86,95.507-36.54,99.665-37.926c4.158-1.386,69.34,28.557,77.635,56.55s2.751,72.345-29.126,99.371
		c0,0,10.395-19.404,11.781-38.114c0,0-5.544,27.719-29.105,42.272c0,0-4.158-2.772,2.772-14.553
		c3.556-6.046,4.526-14.172,8.038-19.845c-8.248,13.324-19.486,24.785-32.646,33.293c-4.203,2.717-9.377,5.209-14.031,3.368
		c3.488-6.471,6.975-12.942,10.463-19.413c-2.263,2.839-4.609,5.75-7.78,7.516c-3.172,1.766-7.412,2.124-10.276-0.107
		c2.835-4.914,5.669-9.827,8.504-14.741c-14.682,12.429-34.071,19.154-53.296,18.485c-3.135-0.109-7.105-1.17-7.449-4.288
		c8.505-6.882,17.57-13.073,27.075-18.492c-11.739,4.714-24.241,7.523-36.869,8.284c-6.413,0.387-13.216,0.15-18.691-3.211
		c5.461-6.081,12.715-10.533,20.61-12.649c-12.094,1.333-31.083,0.007-41.951-5.921c-15.246-8.316,21.483-11.781,21.483-11.781
		s-24.947,2.772-19.404-6.93c5.544-9.702,13.86-8.316,13.86-8.316s-15.246,0-20.79-4.851c-5.544-4.851,7.623-11.088,7.623-11.088
		S386.238,355.853,392.122,346.055z"/>
	<path style="fill:#E87F24;" d="M488.772,296.068c0,0-36.682,19.162-41.062,26.827c-4.38,7.665,15.877,2.737,13.687,2.737
		c-2.19,0-39.419,31.754-29.017,31.754s27.374-9.855,27.374-9.855s-8.76,22.447-5.475,25.184s9.307-4.927,8.76-3.285
		c-0.547,1.642-18.615,21.352-5.475,22.994s39.419-11.497,39.419-11.497s-13.14,15.877-1.642,15.877s27.922-3.285,31.207-10.402
		c3.285-7.117-5.475,14.782,4.927,9.855c10.402-4.927,12.592-24.637,9.307-45.441C537.498,330.013,488.772,296.068,488.772,296.068z
		"/>
	<path style="fill:#FDB913;" d="M506.71,256.448c-4.293,3.1-29.687,9.251-40.532,45.526c-10.238,34.243,7.385,56.646,5.609,45.25
		c-2.294-14.731,4.514-37.56,4.514-37.56s-6.91,17.489,5.955,42.635c12.865,25.146,34.395,33.972,32.056,28.124
		c-1.142-2.856-10.004-11.14-13.946-19.941c-4.13-9.221-3.312-18.927-3.013-19.824c0.585-1.754,1.449,17.243,17.238,29.524
		c15.789,12.281,35.392,16.09,37.147,26.616c1.754,10.526,9.357,0,7.017-9.941c-2.339-9.941-13.45-17.544-12.865-28.07
		s5.848,1.17,12.281,12.281c6.433,11.111,8.187,15.789,8.187,15.789s8.772-9.941-7.017-38.011c0,0,21.052,14.62,23.976,28.07
		c2.924,13.45,11.111-5.263,0.585-30.409c0,0,8.187,21.052,9.357,11.696c1.17-9.357-4.678-18.128-4.678-18.128
		s17.544,12.281,18.713,7.602c1.17-4.678-8.772-16.374-8.772-16.374s10.526,8.187,10.526,2.924s-13.45-21.052-16.959-33.333
		s-11.696-40.35-12.281-42.689C579.223,255.863,517.236,248.846,506.71,256.448z"/>
	<path style="fill:#F78E1E;" d="M525.088,228.711c-3.46,0.577-30.567,12.688-46.716,38.641s20.186-8.074,19.032-5.767
		s-15.572,16.149-19.609,35.758s-4.037,29.99-4.037,29.99s5.767-25.953,20.762-43.255s20.186-22.493,20.186-22.493
		s-16.149,20.186-17.302,37.488c-1.153,17.302,13.265-10.958,13.265-10.958s8.074,12.688,3.46,25.953c0,0,9.228-6.921,14.418-18.456
		c5.191-11.535,6.921-21.339,6.921-21.339s-9.228,47.869-0.577,39.218c8.651-8.651,12.111-25.376,12.111-25.376
		s6.921,17.302,5.767,32.874c-1.153,15.572,1.73,20.762,5.191,8.074c3.46-12.688,1.154-41.525,1.154-41.525
		s13.842,9.228,16.149,30.567c2.307,21.339,3.46-4.614,1.154-19.032c-2.307-14.418-5.767-29.413-5.767-29.413
		s9.228,21.916,13.265,31.144c4.037,9.228,8.074,14.995,8.074,14.995s0.577-10.958-4.614-24.8s-9.228-23.646-9.228-23.646
		s20.762,24.8,19.032,24.223c-1.73-0.577-2.307-27.107-19.032-39.218C561.423,240.246,525.088,228.711,525.088,228.711z"/>
	<path style="fill:#E4651F;" d="M514.593,231.874c0,0,19.775-24.403,47.122-29.451s36.604,20.616,36.604,20.616
		s-7.152,8.835-10.098,17.25c-2.945,8.415,1.683,26.086,1.683,26.086s-3.366,2.945-6.732-10.098
		c-3.366-13.043,2.524,9.256-1.683,11.781c-4.207,2.524-7.573-13.043-7.573-13.043s4.207,21.878-1.262,24.403
		s-7.573-15.146-7.573-20.616c0-5.47-2.524,15.988-2.524,15.988s-5.47-6.311-5.049-16.409c0,0-0.421,22.299-3.366,23.14
		s-7.994-12.201-3.787-25.244c0,0-4.207,13.464-7.573,14.726c-3.366,1.262-4.628-13.884-0.421-19.775c0,0-5.89,16.409-8.835,13.463
		c-2.945-2.945,1.262-14.726,1.262-14.726s-4.628,13.043-9.677,21.878c-5.049,8.835-9.677-2.104-3.787-14.305
		c5.89-12.201,9.256-15.146,9.256-15.146s-13.884,14.726-14.726,11.36c-0.841-3.366,6.311-13.464,6.311-13.464
		s-9.677,13.884-12.622,9.256c-2.945-4.628,6.732-12.201,6.732-12.201S507.019,237.764,514.593,231.874z"/>
	<circle style="fill:#FDBB57;" cx="575.218" cy="224.156" r="6.621"/>
	<path style="fill:#FDBB57;" d="M605.293,217.397c0.664,0.063,6.062,2.68,10.732,8.851s5.408,14.829,5.408,14.829
		s-4.003-2.835-8.339-3.336c-4.336-0.5-9.339-0.5-14.843,0.334s-9.803,0.669-10.303-2.166c-0.5-2.835,3.169-5.337,3.502-5.837
		c0.334-0.5-2.001-2.168-3.336-3.669s1.001-1.001,4.003-2.502C595.119,222.4,601.79,217.063,605.293,217.397z"/>
	<circle style="fill:#6D0025;" cx="575.218" cy="223.758" r="4.018"/>
	<path style="fill:#EC008C;" d="M617.636,204.088c1.657-0.71,1.42-4.497,1.42-4.497s-2.367-0.947-4.26-0.947
		c-1.893,0-1.42-4.497-1.42-4.497s1.893-5.68-3.55-5.207s-11.124-2.367-13.727-5.917c-2.603-3.55-3.684-13.293-11.124-5.444
		c-4.299,4.536-9.061,3.803-9.94,1.183c-0.932-2.775-0.71-5.917-3.077-8.047c-2.367-2.13-4.734,6.627-4.497,18.224
		c0.237,11.597,9.998,18.858,10.65,19.407c4.01,3.377,8.018,5.583,11.876,6.932c0.251,0.379,0.532,0.782,0.858,1.218
		c0,0,7.61,9.703,13.508,7.61c4.079-1.447,4.426-5.714,4.253-8.208c4.673-1.32,8.156-3.513,9.74-5.185
		C622.606,206.219,615.979,204.799,617.636,204.088z"/>
	<path style="fill:#6D0025;" d="M591.345,229.51l6.359,0.84c0,0,4.44,0.12,10.919,2.04c6.479,1.92,9.239,4.44,8.879,4.44
		s-9.479-4.08-16.199-4.08s-12.239-0.6-12.239-0.6S590.108,231.15,591.345,229.51z"/>
	<path style="fill:#6D0025;" d="M604.055,220.889c0.438-0.152-3.825-3.824-5.136-1.967
		C597.608,220.78,601.214,221.873,604.055,220.889z"/>
	<path style="fill:#0069B5;" d="M301.433,363.773c0,0-28.242-1.345-41.691,20.845c-13.449,22.19-12.104,60.519,3.362,63.209
		c15.466,2.69,5.379-18.156,19.501-43.036c14.121-24.88,22.19-35.639,45.053-34.966
		C327.658,369.825,312.192,363.101,301.433,363.773z"/>
</g>
<path style="fill:#0069B5;" d="M194.302,155.209c-6.679-1.561-13.267-2.362-19.731-2.537c2.104,9.206,3.955,19.196,3.955,19.196
	l-11.619-19.115c-5.917,0.288-11.716,1.08-17.369,2.28c5.335,8.228,9.055,19.381,9.055,19.381
	c-6.564-8.354-13.408-13.629-18.825-16.876c-6.986,2.096-13.708,4.76-20.113,7.792c10.921,6.22,16.037,15.022,16.037,15.022
	c-7.493-6.171-16.585-9.474-23.774-11.109c-14.721,7.915-27.478,17.452-37.499,25.799c5.41,2.01,11.745,4.345,12.485,4.53
	c0.916,0.229-10.569,0.19-17.978,0.146c-1.61,1.393-3.357,2.726-5.209,3.996l13.821,2.102l-16.241-0.515
	c-3.256,2.044-6.771,3.9-10.396,5.543c7.948,2.332,16.486,5.061,18.932,5.737c0.516,0.104,0.766,0.161,0.681,0.161
	c-0.068,0-0.313-0.06-0.681-0.161c-2.696-0.543-12.826-2.381-22.405-4.244c-16.7,6.832-34.679,9.101-39.926,4.331
	c0,0,9.373,11.904,23.332,19.275c2.919-0.296,5.982-0.9,9.067-1.928c14.339-4.78,18.684-8.69,18.684-8.69s-6.7,11.7-20.128,17.327
	c4.228,1.077,7.235,2.341,13.831,3.617c4.712,0.912,9.575,1.064,13.831-0.426c5.246-7.005,13.697-23.289,15.495-31.382
	l-10.036,31.963c0.188-0.092,0.376-0.184,0.563-0.278l17.295-36.031c0,0-3.416,22.254-3.615,27.296
	c18.293-12.027,39.596-37.517,76.081-41.626c103.628-11.671,120.698,45.529,151.051,75.175
	C312.951,270.96,291.857,178,194.302,155.209z"/>
<path style="fill:#0069B5;" d="M282.527,270.92c-22.747-15.257-77.663-28.363-117.282-4.368
	c-31.823,19.273-60.718,60.056-67.11,108.649l11.317-6.75l-12.141,14.57c-0.35,4.385-0.513,8.826-0.478,13.313
	c5.678-6.054,12.436-13.425,12.934-14.118c0.033-0.046,0.047-0.066,0.021-0.027c-0.004,0.005-0.016,0.02-0.021,0.027
	c-0.501,0.713-7.674,11.143-12.835,18.525c0.198,5.37,0.678,10.8,1.475,16.276l1.095,2.855l9.615-14.23
	c0,0-3.496,12.068-6.432,22.529l13.265,34.589c0,0,3.175-7.829,6.965-19.199c-2.954-6.396-7.327-18.132-7.327-19.02
	c0-0.857,5.883,7.64,9.362,12.738c2.458-7.817,4.982-16.728,6.942-25.69c0.04-0.184,0.081-0.415,0.122-0.679
	c-3.563-5.799-12.168-21.64-12.168-21.64l13.085,13.886c0.622-5.198,1.613-12.343,3.418-20.663l-11.942-33.969l13.745,26.39
	c1.499-5.773,3.394-11.939,5.803-18.287l-10.426-20.57l12.545,15.272c3.403-8.1,7.676-16.396,13.06-24.469
	c0.47-11.001,1.153-32.156,1.153-32.156l5.141,23.502c3.588-4.532,7.569-8.942,12-13.143c0.424-0.402,0.848-0.792,1.272-1.185
	c0.748-8.91,2.567-24.073,2.567-24.073l2.968,19.194c40.416-33.834,80.671-28.915,102.17-14.233
	c22.706,15.507,31.567,31.013,31.567,31.013S305.455,286.299,282.527,270.92z"/>
<path style="fill:#0080C7;" d="M293.531,317.663c-2.865-1.322-43.314-15.469-74.87,11.138
	c-27.53,23.212-32.376,45.003-31.179,69.091l13.981-11.437l-13.514,18.07c0.12,1.358,0.249,2.722,0.393,4.097
	c0.28,2.665,0.679,5.258,1.173,7.786l0.005,0.013c4.191-3.637,14.584-12.601,15.197-12.601c0.568,0-8.642,11.314-13.509,17.245
	l6.438,17.705l12.202-10.575l-9.704,16.577c1.726,3.036,3.557,5.889,5.435,8.56c3.001-2.927,6.977-6.807,7.604-7.434
	c0.661-0.661-2.081,6.545-4.186,12.038c11.998,15.326,24.639,23.377,24.639,23.377s-8.788-37.421-9.407-43.609
	c-0.184-1.839-1.516-6.849-2.533-13.974c-4.352-4.257-12.522-12.052-11.958-11.676c0.631,0.42,8.642,4.355,11.247,5.632
	c-0.292-3.179-0.476-6.64-0.47-10.314c-1.635-1.374-5.412-4.507-7.248-5.687c-0.711-0.175-1.123-0.328-1.016-0.436
	c0.094-0.094,0.469,0.085,1.016,0.436c1.713,0.422,5.168,0.967,7.348,1.292c0.477-10.804,2.752-23.128,8.755-35.583
	c0.497-7.821,1.477-23.123,1.477-22.185c0,0.829,1.64,8.982,2.756,14.438c1.632-2.662,3.447-5.318,5.476-7.951
	c0.689-0.894,1.38-1.754,2.071-2.595v-12.687l3.255,8.916c27.482-30.146,55.937-20.462,75.114-4.772
	C319.519,340.557,309.619,325.088,293.531,317.663z"/>
<g>
	<path style="fill:#01253C;" d="M311.603,365.799c-7.196,0.655-14.178,2.68-20.622,5.949c-12.885,6.535-22.634,17.987-27.256,31.648
		c-2.597,7.676-3.518,15.968-2.577,24.019c0.157,1.341,1.037,2.5,2.5,2.5c1.23,0,2.658-1.15,2.5-2.5
		c-1.537-13.148,2.066-26.71,10.147-37.237c7.809-10.173,19.626-16.912,32.229-18.989c3.392-0.559,6.908-0.766,10.338-0.497
		c3.254,0.256,6.605,1.155,9.015,3.46c2.326,2.224,5.867-1.306,3.536-3.535C326.188,365.619,318.433,365.177,311.603,365.799z"/>
	<path style="fill:#01253C;" d="M335.771,346.961c-11.972-17.56-31.926-28.768-53.023-30.629
		c-20.833-1.838-41.439,6.682-55.807,21.704c-7.958,8.321-13.942,18.509-17.015,29.622c-0.859,3.106,3.963,4.431,4.821,1.329
		c5.126-18.532,18.878-34.039,36.22-42.146c17.685-8.267,38.466-7.328,55.809,1.38c9.817,4.929,18.474,12.163,24.678,21.263
		c0.76,1.114,2.198,1.612,3.42,0.897C335.979,349.735,336.536,348.082,335.771,346.961z"/>
	<path style="fill:#01253C;" d="M230.682,266.52c17.056,0.737,33.863,5.822,48.667,14.278c14.859,8.489,27.806,20.445,36.861,35.012
		c1.137,1.829,2.21,3.697,3.226,5.596c1.518,2.838,5.836,0.316,4.317-2.524c-8.5-15.889-21.292-29.242-36.366-39.039
		c-15.063-9.79-32.42-15.969-50.286-17.847c-17.898-1.881-35.93,1.047-52.359,8.361c-16.242,7.231-30.672,18.627-41.758,32.502
		c-11.158,13.964-19.211,30.497-22.431,48.135c-0.404,2.21-0.724,4.435-0.991,6.666c-0.161,1.343,1.264,2.5,2.5,2.5
		c1.485,0,2.338-1.153,2.5-2.5c2.033-16.928,8.811-33.101,18.69-46.931c9.906-13.867,23.131-25.402,38.248-33.272
		C196.659,269.565,213.607,265.782,230.682,266.52z"/>
	<path style="fill:#01253C;" d="M212.506,182.31c15.86,3.724,30.83,10.438,44.192,19.753c12.715,8.863,23.911,20.032,32.878,32.671
		c9,12.686,15.867,26.853,19.971,41.866c0.508,1.857,0.97,3.725,1.396,5.602c0.711,3.137,5.533,1.809,4.821-1.329
		c-3.559-15.696-10.04-30.727-18.832-44.199c-8.867-13.586-20.018-25.568-32.902-35.417c-13.148-10.051-28.141-17.623-44.057-22.172
		c-16.932-4.839-34.85-6.355-52.363-4.577c-17.696,1.797-35.022,6.826-50.775,15.124c-1.933,1.018-3.838,2.088-5.719,3.201
		c-2.767,1.638-0.255,5.961,2.524,4.317c14.759-8.734,31.18-14.391,48.132-16.917C178.584,177.728,195.959,178.425,212.506,182.31z"
		/>
</g>
<g>
	<path style="fill:#006E4F;" d="M98.354,282.564c7.447-13.528,17.713-25.348,29.869-34.855c12.061-9.433,26.022-16.51,40.754-20.666
		c14.833-4.184,30.495-5.319,45.756-3.052c15.508,2.304,30.468,7.751,43.886,15.848c13.251,7.996,25.041,18.596,34.059,31.2
		c1.146,1.602,2.246,3.235,3.307,4.894c1.728,2.703,6.058,0.198,4.317-2.524c-8.796-13.757-20.487-25.495-34.019-34.609
		c-13.426-9.044-28.714-15.493-44.598-18.654c-15.945-3.174-32.37-3.008-48.229,0.597c-15.552,3.535-30.431,10.252-43.448,19.455
		c-13.11,9.268-24.455,21.008-32.942,34.659c-1.057,1.7-2.064,3.429-3.029,5.183C92.484,282.861,96.8,285.387,98.354,282.564
		L98.354,282.564z"/>
</g>
<g>
	<path style="fill:#006E4F;" d="M187.404,360.503c3.991-17.541,14.445-33.52,28.863-44.287
		c15.642-11.681,35.174-16.564,54.516-14.24c10.993,1.321,21.684,5.109,31.06,10.985c2.734,1.714,5.247-2.611,2.524-4.317
		c-17.89-11.211-40.12-14.829-60.714-10.378c-19.341,4.181-36.328,15.922-47.874,31.883c-6.264,8.66-10.824,18.6-13.196,29.026
		C181.87,362.306,186.689,363.644,187.404,360.503L187.404,360.503z"/>
</g>
<g>
	<path style="fill:#006E4F;" d="M246.924,385.368c4.69-12.602,14.187-23.221,25.929-29.686c12.385-6.82,27.05-8.399,40.7-4.854
		c7.823,2.032,15.253,5.674,21.503,10.821c1.041,0.858,2.516,1.019,3.536,0c0.884-0.884,1.047-2.673,0-3.536
		c-12.158-10.012-28.086-15.138-43.818-13.985c-15.026,1.101-29.166,7.989-39.536,18.892c-5.757,6.053-10.222,13.192-13.135,21.019
		c-0.471,1.266,0.525,2.74,1.746,3.075C245.248,387.499,246.452,386.638,246.924,385.368L246.924,385.368z"/>
</g>
<path style="fill:#F4811F;" d="M293.477,247.643c-9.307-12.1-24.033-26.156-54.258-33.049c-0.961,3.806-2.185,8.351-2.185,8.351
	l-1.413-9.121c-0.489-0.098-0.97-0.201-1.467-0.296c-4.052-0.772-7.986-1.317-11.816-1.671v9.817l-3.901-10.112
	c-10.487-0.623-20.162,0.203-29.208,1.906l4.625,8.025l-7.585-7.433c-4.976,1.054-9.762,2.36-14.39,3.819l10.726,8.513
	l-18.239-5.982c-12.209,4.361-23.371,9.439-34.14,13.174c5.144,2.114,11.28,4.611,12.316,4.927c0.107,0.022,0.173,0.037,0.148,0.037
	c-0.021,0-0.076-0.015-0.148-0.037c-1.177-0.24-9.917-1.728-18.081-3.058c-3.727,1.115-7.421,2.021-11.108,2.627
	c-20.21,3.322-45.231-3.074-45.231-3.074c7.655,9.137,28.822,32.246,70.182,29.195c1.592-0.117,3.167-0.246,4.735-0.379
	l10.74-11.194l-6.374,10.801c7.393-0.7,14.52-1.549,21.404-2.453c5.364-6.55,11.546-14.567,11.546-14.567l-4.739,13.648
	c4.626-0.639,9.141-1.288,13.555-1.916c3.118-4.865,6.797-10.73,8.015-13.168c0.211-0.87,0.363-1.32,0.415-1.109
	c0.032,0.13-0.125,0.526-0.415,1.109c-0.614,2.528-1.732,8.606-2.41,12.378c17.07-2.38,32.612-4.211,47.143-3.549
	c3.059,0.139,6.038,0.471,8.943,0.957l-1.523-6.937l3.581,7.311c2.424,0.475,4.793,1.061,7.105,1.748l-0.79-6.798
	c0,0,1.272,3.499,2.715,7.397c40.639,13.215,63.314,56.817,63.314,56.817C314.242,285.029,309.806,268.871,293.477,247.643z"/>
<g>
	<path style="fill:#D0591C;" d="M98.61,253.006c16.595,2.154,33.194-1.346,49.116-5.824c16.153-4.544,32.156-10.271,48.869-12.438
		c16.276-2.11,32.933-0.526,48.56,4.457c14.852,4.736,28.624,12.626,40.198,23.07c11.12,10.035,20.2,22.221,26.578,35.778
		c0.747,1.587,1.457,3.191,2.12,4.815c0.511,1.249,1.662,2.134,3.075,1.746c1.183-0.325,2.26-1.818,1.746-3.075
		c-5.842-14.284-14.422-27.334-25.283-38.31c-11.234-11.352-24.728-20.246-39.562-26.147c-15.675-6.236-32.811-9.03-49.656-8.058
		c-17.201,0.992-33.69,6.193-50.1,11.056c-16.021,4.747-32.493,9.349-49.369,8.502c-2.105-0.106-4.203-0.3-6.292-0.571
		c-1.341-0.174-2.5,1.274-2.5,2.5C96.11,252.002,97.265,252.832,98.61,253.006L98.61,253.006z"/>
</g>
<path style="fill:#F4811F;" d="M185.995,443.03l10.755,4.163c-0.754-8.166-3.492-15.525-6.763-23.209
	c-5.654-0.734-14.764-1.542-14.764-1.542l13.598-1.173c-1.914-4.412-3.936-8.979-5.81-13.901c-4.904-1.15-11.644-2.726-13.214-3.063
	c-0.16-0.022-0.272-0.041-0.32-0.057c-0.069-0.023,0.051-0.001,0.32,0.057c1.636,0.222,8.704,0.724,12.435,0.982
	c-3.838-10.567-6.82-22.865-6.484-38.816l-9.623-9.623l9.885,3.786c0.182-2.631,0.447-5.178,0.792-7.645l-6.607-8.589l7.619,2.658
	c6.482-31.848,27.412-49.2,55.309-60.05c0,0-59.296,11.76-82.576,57.365c-7.008,13.728-9.599,31.583-8.09,48.81
	c4.381,0.313,9.728,0.688,10.114,0.688c0.437,0-5.485,2.601-9.546,4.363c0.448,3.304,1.046,6.567,1.798,9.754l15.458-7.729
	l-14.312,12.123c1.849,6.449,4.334,12.507,7.452,17.857l11.926-10.154l-10.646,12.25c0.526,0.827,1.066,1.638,1.624,2.426
	c3.769,5.315,7.447,9.629,10.892,13.354l9.144-15.033c0,0-3.122,11.655-5.217,19.158c9.661,9.904,16.725,15.906,17.301,28.587
	c0,0,7.497-8.72,8.453-26.625c0.019-0.357,0.017-0.704,0.028-1.057C192.591,449.171,185.995,443.03,185.995,443.03z"/>
<path style="fill:#D0591C;" d="M193.858,305.234c-0.632-1.08-2.32-1.691-3.42-0.897c-14.592,10.533-25.327,25.969-30.228,43.288
	c-5.673,20.043-2.255,40.934,5.02,60.097c4.34,11.432,9.871,22.352,15.408,33.237c1.459,2.869,5.775,0.341,4.317-2.524
	c-9.389-18.457-18.959-37.349-21.885-58.098c-1.304-9.249-1.07-18.716,1.044-27.824c1.911-8.231,5.194-16.077,9.676-23.239
	c5.004-7.996,11.516-15.093,19.171-20.619C194.054,307.865,194.586,306.479,193.858,305.234z"/>
</svg>
