<?xml version="1.0" encoding="utf-8"?>
<!-- Generator: Adobe Illustrator 21.1.0, SVG Export Plug-In . SVG Version: 6.00 Build 0)  -->
<svg version="1.1" id="Calque_1" xmlns="http://www.w3.org/2000/svg" xmlns:xlink="http://www.w3.org/1999/xlink" x="0px" y="0px"
	 viewBox="0 0 432 432" style="enable-background:new 0 0 432 432;" xml:space="preserve">
<style type="text/css">
	.st10{fill:#EC6587;}
	.st12{fill:#FECB3D;}
	.st35{fill:#F39200;}
</style>
<g>
	<path class="st12" d="M263.2,174.6c-0.2-0.7-0.3-1.5-0.5-2.4c-3.5-0.9-7.1-1.9-10.7-2.9c-0.8,3.3-2.1,5.9-5.6,6.4
		c-3.9,0.6-6.9-0.6-8.4-4.6c-1.3,2-2.5,3.9-3.8,5.7c-2.5,3.6-5.1,7.2-8.3,10.2c-0.9,0.8-1.8,1.6-2.9,2.1c-1.7,0.9-3.4,0.5-4.5-1.1
		c-0.7-1-1.2-2.2-1.7-3.3c-0.5-1.3-0.9-2.7-1.4-4c-12.8,2.9-25.3,2-38-2.1c-0.2,3-0.5,5.5-0.6,8.1c-0.5,10.5,2.9,20.5,6.5,24.8
		c1.3,1.5,2.8,2.7,4.4,3.8c0.7,0.6,1.7,0.9,2.6,1.3c4.8,1.9,9.7,3.5,14.7,4.6c5.4,1.2,10.9,1.7,16.4,2.2c6.7,0.7,13.3,0.2,19.8-1.8
		c0.1,0,15.4-4.5,19.9-13.6c2.4-4.8,3.7-9.9,4.1-15.2C265.5,186.6,265,180.6,263.2,174.6z M244.5,216.1c-1.3,0.8-2.7,1.6-4.1,2.1
		c-5.4,1.9-10,3.1-10.3,0.3c-0.1-1,0.5-1.8,1.6-2c0.9-0.2,1.9-0.3,2.8-0.5c2.6-0.4,4.9-1.3,7.2-2.6c0.4-0.2,0.7-0.4,1.1-0.6
		c1.1-0.4,2-0.2,2.5,0.6C245.8,214.4,245.5,215.5,244.5,216.1z M263.9,191.3c0,1-0.9,1.6-1.8,1.6c-1,0-1.7-0.5-1.8-1.6
		c-0.2-1.5-0.1-2.2-0.3-7.3c-0.1-1.3,0.5-2.1,1.5-2.2c1.1-0.1,2,0.4,2.1,1.7C263.9,186.1,263.9,188.7,263.9,191.3z"/>
	<g>
		<path d="M274.1,156.9c-2.2-7-5.2-13.5-9.6-19.4c-0.7-1-1.6-2-2.5-2.8c-2.1-1.9-4.3-1.7-6.2,0.3c-0.7,0.8-1.4,1.6-2,2.5
			c-0.9,1.2-1.7,2.5-2.6,3.8c-0.5-0.5-0.9-0.9-1.3-1.3c-1.7-1.5-3.4-3.1-5.2-4.4c-2.5-1.8-5.2-3.5-8.3-4.2
			c-0.6-0.1-1.2-0.8-1.6-1.3c-1.1-1.4-2-3-3.1-4.4c-2.2-2.6-4.5-2.7-6.9-0.3c-1.2,1.2-2.3,2.5-3.4,3.7c-0.6,0.6-1.3,1.2-2,1.9
			c-0.7-0.8-1.3-1.5-1.9-2.2c-0.7-0.8-1.4-1.7-2.2-2.4c-1.9-1.5-3.8-1.2-5,0.8c-0.5,0.9-0.9,1.8-1.3,2.8c-0.3,0.7-0.6,1.5-1,2.4
			c-2.4-1.2-4.6-2.4-6.9-3.5c-1.4-0.7-2.8-1.4-4.3-1.7c-2.8-0.6-4.4,1.3-3.6,4c0.3,1.1,0.8,2.3,1.2,3.4c0.8,2,1.7,4.1,2.5,6
			c-0.1,0.2-0.2,0.3-0.3,0.4c-0.7,0.6-1.4,1.1-2.1,1.7c-6.4,4.9-11.2,11-14.6,18.2c-1.2,2.6-2.4,5.2-3.4,7.9
			c-7.3,20-3.1,44.7,12.2,51c0.3,0.1,0.6,0.4,1,0.7c-0.2,0.2-0.3,0.2-0.4,0.3c-9.6,2.5-18,7.2-25.3,13.8c-1.8,1.6-3.3,3.5-4.9,5.3
			c-0.4,0.4-0.6,0.9-0.9,1.3c-1.8,3.1-0.2,6,3.3,6.3c0.7,0.1,1.5,0,2.4,0.1c-0.5,0.8-0.9,1.2-1.2,1.7c-1,1.9-2.1,3.8-2.9,5.7
			c-0.5,1.1-0.6,2.5-0.5,3.7c0.2,3.2,2.9,5,6,4.3c1.1-0.3,2.2-0.7,3.2-1.1c0.8-0.3,1.6-0.7,2.6-1.1c-0.1,0.7-0.1,1.2-0.2,1.7
			c-0.1,2-0.3,4-0.2,5.9c0.2,3.3,2.4,4.8,5.6,3.8c1-0.3,1.9-0.8,2.8-1.2c0.5-0.2,1-0.5,1.7-0.8c3.7,7.5,10.3,10.8,18.1,12.5
			c0.3,4.1,0.6,8.1,0.9,11.9c-2.6,2.1-5,4-7.5,5.9c-0.5,0.4-0.9,0.8-1.3,1.3c-0.5,0.7-0.4,1.7,0.1,2.3c0.6,0.6,1.5,0.8,2.3,0.3
			c0.5-0.3,1-0.7,1.4-1.1c1.3-1,2.6-2,3.9-3.1c0.7,2.2,1.2,4.3,1.8,6.3c0.5,1.6,1.5,2.2,2.6,1.9c1.2-0.4,1.5-1.4,1-3.1
			c-0.5-1.6-0.9-3.2-1.4-4.8c1.2,0.4,2,1,2.9,1.6c0.6,0.3,1.1,0.7,1.7,0.9c0.9,0.3,1.8-0.1,2.1-0.9c0.4-0.8,0.2-1.5-0.4-2.1
			c-0.3-0.3-0.8-0.6-1.1-0.9c-1.2-0.9-2.4-1.8-3.7-2.6c-0.6-0.4-0.9-0.9-0.9-1.6c-0.1-2-0.3-4.1-0.4-6.1c-0.1-1.7-0.2-3.3-0.3-5.2
			c7.6,1,15.1,1.3,22.7,0.4c0.7,4.2,1.4,8.2,2.1,12.3c-1.6,1.6-3.2,3.2-4.8,4.8c-0.6,0.6-1.1,1.3-1.5,2c-0.4,0.8-0.2,1.5,0.5,2.1
			c0.7,0.5,1.5,0.5,2.2,0c0.3-0.2,0.6-0.6,0.9-0.9c1.5-1.5,3-3,4.5-4.5c1,1.8,1.8,3.4,2.7,4.9c0.3,0.5,0.6,0.9,0.9,1.3
			c0.7,0.7,1.7,0.9,2.4,0.4c0.8-0.5,1-1.4,0.6-2.4c-0.3-0.7-0.8-1.3-1.2-2c-0.3-0.6-0.9-1.2-0.9-2.1c0.9,0.1,1.7,0.2,2.5,0.3
			c1.6,0.3,3.2,0.6,4.8,0.8c1.2,0.2,2.2-0.4,2.4-1.4c0.2-1-0.3-1.7-1.4-2.2c-0.2-0.1-0.3-0.1-0.5-0.2c-3.3-0.5-6.6-1.1-10.1-1.6
			c-1.1-3.8-1.6-7.9-2.1-12.2c1.1-0.2,2-0.4,2.9-0.5c4.4-0.6,8.7-1.7,12.7-3.7c4.8-2.3,8.1-5.9,9.7-11c0.2-0.6,0.4-1.2,0.7-1.8
			c6.4,2.4,9.1,1.5,13.9-4.7c0.3,0.1,0.6,0.3,0.9,0.4c2.5,0.9,4.5,0,5.6-2.4c0.7-1.4,0.8-2.9,0.4-4.4c-0.5-1.8-1.1-3.7-1.7-5.6
			c0.3-0.1,0.7-0.1,1-0.3c2.7-0.9,4.1-3,3.8-5.8c-0.1-1.3-0.6-2.7-1.2-3.9c-1.5-3-3.8-5.4-6.6-7.3c-3.2-2.2-6.8-3.8-10.4-5.2
			c-4-1.6-8-3.1-12.1-4.7c5.5-3.2,24-10.4,19.3-42.4c-0.3-2.2-0.9-4.4-1.3-6.7c0.4,0,0.7,0,1,0.1c1.3,0.2,2.6,0.6,3.9,0.6
			c4.6,0.2,6.4-2.8,5.5-6.1C276.3,164.4,275.3,160.6,274.1,156.9z M185.1,159.1c2.7-4.9,6.3-9,10.7-12.5c1.3-1.1,2.6-2.1,4-3.1
			c1.1-0.8,1.4-1.9,1-3.2c-0.4-1.1-0.9-2.1-1.3-3.2c-0.7-1.8-1.5-3.6-2.3-5.4c0.1-0.1,0.2-0.2,0.3-0.3c0.7,0.4,1.5,0.8,2.2,1.1
			c2.2,1.1,4.5,2.3,6.8,3.4c2.3,1.1,3.9,0.4,5-1.9c0.6-1.3,1.1-2.7,1.7-4.3c0.5,0.6,0.9,1,1.3,1.4c0.8,0.9,1.6,1.9,2.5,2.8
			c1.3,1.2,2.6,1.4,4.1,0.4c1.3-0.9,2.5-2.1,3.6-3.2c1.1-1.1,2.2-2.4,3.4-3.7c0.7,0.8,1.3,1.5,1.8,2.2c0.8,1.2,1.6,2.4,2.4,3.6
			c0.6,0.9,1.5,1.6,2.6,1.8c2.6,0.5,4.8,1.8,6.9,3.2c2.7,1.8,5.1,3.9,7.2,6.4c-1.7,3.2-3.4,6.2-5.1,9.4c-3.5-0.2-6.1,1.6-8.5,4
			c-0.9-0.7-1.8-1.3-2.7-1.9c-5.8-4-12.3-6.4-19.4-6.9c-1.2-0.1-2.4,0-3.6,0.1c-2.3,0.3-3.3,1.6-2.8,3.8c0.3,1.2,0.7,2.4,1.1,3.6
			c0.9,2.2,1.8,4.4,2.8,6.6c0.1,0.3,0.2,0.7,0.3,1c-5.9,1.5-21.8,0-26.8-3.8C184.6,160,184.8,159.5,185.1,159.1z M245.1,159.2
			c1.9,2.5,2.6,5.5,3,8.6c0,0.4,0.1,0.7,0.1,1.1c-0.1,1.8-1,3-2.5,3.3c-3.1,0.6-8.4-7.3-6.6-12.2
			C239.9,157.5,243.5,157.2,245.1,159.2z M224.4,168.6c0.2,0.9,1.1,1.5,2.2,1.3c1.9-0.3,3.7-0.8,5.6-1.2c0.9-0.2,1.7-0.4,2.6-0.6
			c-1,3.9-10.2,15.8-13.5,17.6c-0.4-0.8-0.8-1.6-1-2.4c-1.3-4.3-2.6-8.6-3.9-12.9c-3.8-12.5-1.1-4.2-5.8-17.3
			c2.8-0.4,5.3,0,7.6,0.5c5.4,1.2,10.1,3.7,14.4,7.1c0.2,0.2,0.5,0.4,0.7,0.6c1.4,1.1,1.4,1.1,1.4,3c-2.3,0.5-4.6,1.1-6.9,1.6
			c-0.6,0.2-1.3,0.3-1.9,0.5C224.8,166.7,224.2,167.7,224.4,168.6z M182.7,164.2c9.2,4.3,19,4.8,29.1,4c0.9,2.9,1.8,5.7,2.6,8.6
			c-8.5,3.1-25.8,2.3-35.8-1.9C179,172.3,181.3,166.1,182.7,164.2z M179.4,266.7c-1.7,0.6-3,1.8-4.8,1.9c-0.5-1.6-0.2-3.2-0.1-4.7
			c0.2-1.7,0.5-3.3,0.8-5c0.2-1.1,0.2-2.1-0.7-2.8c-1-0.8-2-0.5-3,0c-1.9,1-3.9,1.9-5.8,2.8c-0.8,0.4-1.7,0.9-2.5,0.1
			c-0.8-0.7-0.4-1.8,0-2.5c0.8-1.7,1.7-3.4,2.6-5.1c0.6-1,1.4-1.9,2.1-2.9c0.4-0.6,0.8-1.2,1-1.9c0.5-1.6-0.3-2.9-2-3.1
			c-0.8-0.1-1.7,0.1-2.5,0.2c-1,0.1-2,0.1-3.2,0.1c0.3-0.7,0.3-1.1,0.6-1.4c1.8-1.9,3.4-4,5.4-5.8c6.1-5.3,12.9-9.3,20.7-11.6
			c0.5-0.2,1.1-0.3,2-0.5c-0.5,0.9-0.7,1.4-1,1.9c-3.7,6.4-6.6,13-8.6,20.1C178.5,253.2,177.6,259.8,179.4,266.7z M251.1,267.2
			c-1.3,3.9-3.8,6.7-7.5,8.5c-2.9,1.4-6,2.5-9.2,3c-5.2,0.7-10.3,1.6-15.5,1.8c-7.5,0.3-15-0.3-22.2-2.4c-1.1-0.3-2.2-0.7-3.2-1.1
			c-7.2-3.1-10.6-8.9-11.2-16.5c-0.3-4.6,0.5-9.1,1.8-13.5c2.1-7,5-13.6,8.8-19.8c1-1.6,2.2-3.1,3.3-4.5c4,0.9,7.8,1.9,11.6,2.6
			c5.8,1.1,11.6,1.5,17.5,1.9c5.9,0.3,11.6-0.7,17.2-2.2c0.2,0,0.3-0.1,0.7-0.1c0.3,0.5,0.6,1,0.8,1.5c3.2,8.6,6.5,17.2,8,26.3
			C252.7,257.6,252.6,262.5,251.1,267.2z M250.5,227.2c4.5,1.8,9.1,3.5,13.5,5.4c2.3,1,4.5,2.5,6.7,3.9c1.7,1.1,3,2.8,4,4.6
			c0.3,0.5,0.6,1.1,0.7,1.6c0.8,2.5-0.2,3.6-2.7,3.1c-0.4-0.1-0.7-0.2-1.1-0.2c-1.3-0.1-2.3,0.8-2.2,2.1c0.1,0.7,0.4,1.5,0.7,2.2
			c1,2.1,2.1,4.2,2.4,6.6c0.1,0.7,0.2,1.4-0.7,2c-0.6-0.4-1.3-0.9-2-1.3c-1.7-1.1-3.1-0.7-3.8,1.3c-0.5,1.5-1,2.8-2.2,3.8
			c-1.9,1.6-3.9,1.9-6.2,0.9c-0.5-0.3-1.1-0.6-1.6-0.8c0-0.5-0.1-1-0.1-1.5c0.4-5.5-0.6-10.9-2.1-16.1c-1.7-5.6-3.6-11.2-5.4-16.8
			c-0.1-0.4-0.3-0.9-0.4-1.5C249,226.8,249.8,227,250.5,227.2z M265.1,192.8c-0.4,5.3-1.7,10.4-4.1,15.2
			c-4.5,9.1-19.8,13.6-19.9,13.6c-6.5,1.9-13,2.4-19.8,1.8c-5.5-0.5-11-1-16.4-2.2c-5-1.1-9.9-2.7-14.7-4.6
			c-0.9-0.4-1.8-0.7-2.6-1.3c-1.5-1.2-3.1-2.4-4.4-3.8c-3.7-4.3-7-14.3-6.5-24.8c0.1-2.6,0.4-5.1,0.6-8.1c12.7,4.2,25.2,5,38,2.1
			c0.5,1.3,0.9,2.7,1.4,4c0.5,1.2,1,2.3,1.7,3.3c1.1,1.5,2.8,1.9,4.5,1.1c1-0.5,2-1.3,2.9-2.1c3.2-3,5.8-6.5,8.3-10.2
			c1.2-1.8,2.4-3.7,3.8-5.7c1.6,4.1,4.5,5.3,8.4,4.6c3.6-0.6,4.9-3.1,5.6-6.4c3.6,1,7.2,1.9,10.7,2.9c0.2,1,0.2,1.7,0.5,2.4
			C265,180.6,265.5,186.6,265.1,192.8z M270.6,170.4c-2-0.4-4.1-1-6.1-1.5c-3.5-0.9-7-1.9-10.6-2.9c-0.7-0.2-1.5-0.5-2.3-0.7
			c-0.2-0.8-0.4-1.7-0.7-2.7c1.6-0.7,3.1-1.3,4.6-2c1.2-0.5,2.5-0.9,3.7-1.5c0.8-0.3,1.3-1.1,1.1-1.9c-0.2-0.6-0.6-1.2-1.2-1.4
			c-0.5-0.2-1.3-0.1-1.9,0.1c-2.4,0.9-4.8,1.9-7.2,2.9c-0.2,0.1-0.3,0.1-0.5,0.2c-0.7-1-1.4-2-2.2-3c1.7-4.7,9.3-16.8,11.8-18.7
			c1.1,0.6,1.8,1.7,2.5,2.7c3.3,4.5,5.8,9.5,7.7,14.8c1.5,4.4,2.8,8.9,4.1,13.4c0.2,0.6,0.2,1.3,0.4,1.9
			C272.7,170.7,271.6,170.6,270.6,170.4z"/>
		<path d="M249.3,197.3c-2,0.1-3.6,1.9-3.5,3.8c0.1,1.9,1.9,3.4,3.8,3.3c1.9-0.1,3.5-2,3.4-3.9
			C252.9,198.7,251.2,197.2,249.3,197.3z"/>
		<path d="M190.7,198.5c-1.9,0.1-3.6,1.9-3.6,3.8c0,1.7,1.8,3.3,3.6,3.3c1.8,0,3.5-1.8,3.5-3.6
			C194.2,199.9,192.6,198.4,190.7,198.5z"/>
	</g>
	<g>
		<g>
			<path class="st35" d="M229.6,198.4c-1.5-1.5-3.5-2.7-6.7-2.5c-2.8,0.1-4.4,1.6-5.7,3.2c-1.4,1.7,6.7,11.4,6.8,11.4
				C224.9,210.7,230.9,199.7,229.6,198.4z"/>
		</g>
		<path class="st12" d="M211.1,164.2c-0.1-0.3-0.2-0.7-0.3-1c-0.9-2.2-1.9-4.4-2.8-6.6c-0.5-1.2-0.9-2.4-1.1-3.6
			c-0.5-2.3,0.5-3.6,2.8-3.8c1.2-0.1,2.4-0.2,3.6-0.1c7.1,0.5,13.5,2.9,19.4,6.9c0.9,0.6,1.7,1.2,2.7,1.9c2.4-2.3,5.1-4.1,8.5-4
			c1.7-3.2,3.4-6.2,5.1-9.4c-2.1-2.5-4.5-4.6-7.2-6.4c-2.1-1.4-4.3-2.8-6.9-3.2c-1.1-0.2-1.9-0.9-2.6-1.8c-0.8-1.2-1.6-2.4-2.4-3.6
			c-0.5-0.7-1.1-1.3-1.8-2.2c-1.3,1.4-2.3,2.6-3.4,3.7c-1.1,1.1-2.3,2.3-3.6,3.2c-1.5,1-2.8,0.8-4.1-0.4c-0.9-0.9-1.7-1.9-2.5-2.8
			c-0.4-0.4-0.8-0.8-1.3-1.4c-0.7,1.6-1.1,3-1.7,4.3c-1.1,2.3-2.7,2.9-5,1.9c-2.3-1.1-4.5-2.2-6.8-3.4c-0.7-0.4-1.5-0.8-2.2-1.1
			c-0.1,0.1-0.2,0.2-0.3,0.3c0.8,1.8,1.5,3.6,2.3,5.4c0.4,1.1,0.9,2.1,1.3,3.2c0.4,1.3,0.1,2.3-1,3.2c-1.3,1-2.7,2-4,3.1
			c-4.3,3.5-7.9,7.7-10.7,12.5c-0.3,0.5-0.5,0.9-0.7,1.4C189.3,164.2,205.2,165.7,211.1,164.2z M229.6,136.9
			c0.8-0.4,1.6-0.3,2.1,0.3c0.9,1.2,1.8,2.4,2.5,3.7c0.4,0.7,0.2,1.5-0.5,2.1c-0.6,0.5-1.4,0.6-2,0.2c-1.5-1.1-2.4-2.7-3.1-4.4
			C228.7,138,228.9,137.3,229.6,136.9z M214.7,137.6c0.7-0.5,1.7-0.5,2.4,0.3c1.1,1.2,2.1,2.5,3,3.8c0.8,1.2,0,2.6-1.7,2.7
			c-0.2-0.1-0.9-0.2-1.2-0.5c-1.1-1.3-2.1-2.5-3.1-3.9C213.6,139.1,213.9,138.1,214.7,137.6z M203.9,140.4c0.3-0.7,0.8-1.1,2-1.2
			c1.4,0.4,3,1,4.2,2.3c0.6,0.6,0.5,1.5,0,2.1c-0.5,0.6-1.1,1-1.9,0.6c-1.3-0.6-2.6-1.3-3.8-2C203.8,141.9,203.6,141.1,203.9,140.4
			z"/>
		<path class="st12" d="M243.9,226.6c-0.2-0.5-0.5-1-0.8-1.5c-0.3,0.1-0.5,0.1-0.7,0.1c-5.6,1.5-11.3,2.6-17.2,2.2
			c-5.9-0.3-11.7-0.8-17.5-1.9c-3.8-0.7-7.6-1.7-11.6-2.6c-1,1.4-2.3,2.9-3.3,4.5c-3.8,6.2-6.7,12.9-8.8,19.8
			c-1.3,4.4-2.2,8.9-1.8,13.5c0.6,7.6,4,13.3,11.2,16.5c1,0.5,2.1,0.8,3.2,1.1c7.3,2.1,14.8,2.6,22.2,2.4
			c5.2-0.2,10.4-1.1,15.5-1.8c3.2-0.5,6.3-1.6,9.2-3c3.7-1.8,6.2-4.6,7.5-8.5c1.5-4.7,1.6-9.6,0.8-14.4
			C250.4,243.7,247.1,235.1,243.9,226.6z M235.2,270.4c-1.4,1.1-2.8,2.1-4.3,2.9c-1.5,0.8-3.1,0.6-4.7,0.2
			c-1.3-0.4-2.5-1.2-3.7-1.1c-1.1,0.1-2.1,1.2-3.2,1.8c-1.9,1-3.7,0.6-5.4-0.3c-1.3,0.7-2.3,1.4-3.4,1.8c-3.2,1.1-7.7-0.6-9.5-3.4
			c-0.3-0.4-0.4-0.9-0.5-1.3c-0.1-0.7,0.1-1.4,0.8-1.6c0.6-0.2,1.3-0.2,1.8,0c0.4,0.1,0.6,0.5,0.9,0.8c2.4,2.6,4.7,2.9,7.4,0.7
			c1.5-1.2,2.8-1.4,4.4-0.3c0.8,0.6,1.6,0.6,2.5,0c0.4-0.3,0.9-0.6,1.3-0.9c1.5-1.4,3.2-1.5,5-0.6c0.3,0.2,0.7,0.3,1,0.4
			c2.1,0.9,4.1,1,6-0.8c0.5-0.5,1-0.8,1.6-1.1c1-0.6,2-0.4,2.6,0.4C236.2,268.7,236.1,269.7,235.2,270.4z M239.5,257.3
			c-2.3,2.6-5.1,4.7-8.9,3.8c-1.5-0.3-2.9-0.8-4.6-1.3c-5.2,4.4-10.8,4-16.5,1.1c-1.4,1-2.7,2.1-4.1,2.8c-1.1,0.5-2.4,0.9-3.6,0.8
			c-4.7-0.4-8.3-2.5-10.4-6.9c-0.1-0.3-0.3-0.5-0.3-0.8c-0.2-0.9,0.2-1.6,0.9-2c0.7-0.4,1.6-0.3,2.1,0.3c0.5,0.5,0.8,1.2,1.1,1.8
			c1.6,2.7,4.2,3.7,7.2,3.6c1.3,0,2.4-0.6,3.3-1.6c0.3-0.4,0.7-0.9,1-1.3c1.3-1.5,2.4-1.8,4.1-0.6c2,1.5,4.2,2,6.6,2.1
			c1.8,0.1,3.4-0.3,4.9-1.4c0.5-0.3,1-0.7,1.5-1c1.4-1.1,2.9-1.3,4.5-0.3c0.3,0.2,0.5,0.3,0.8,0.4c2.3,1,4.5,1.1,6.5-0.9
			c0.4-0.4,0.9-0.8,1.4-1.2c0.8-0.6,1.8-0.6,2.5,0C240,255.5,240.2,256.5,239.5,257.3z M241.2,242.9c-1.1,1.2-2.2,2.4-3.5,3.4
			c-2.1,1.5-4.5,2.1-7,1.3c-2-0.7-4-1.6-6.1-2.5c-2.2,1.9-5.1,2.3-8.2,2.1c-3.1-0.2-5.6-1.6-7.7-3.9c-0.4,0.4-0.7,0.7-1,1
			c-3.6,3.7-8.6,4.2-12.7,1.2c-1.3-0.9-2.4-2-3.5-3.1c-0.9-0.9-0.9-2-0.2-2.7c0.7-0.7,1.8-0.7,2.8,0.1c0.4,0.3,0.7,0.7,1,1
			c0.5,0.5,0.9,0.9,1.4,1.3c3,2.4,6.2,2.1,8.7-0.8c0.5-0.5,0.9-1.1,1.4-1.6c1.2-1.2,2.4-1.2,3.7-0.1c0.5,0.4,0.9,1,1.3,1.5
			c2.8,3,7.8,3.3,10.9,0.7c1.9-1.6,2.8-1.6,4.6,0.1c1.5,1.3,3.2,2,5.2,2.2c1.4,0.2,2.6-0.4,3.6-1.3c0.8-0.7,1.5-1.5,2.3-2.3
			c1-1,2-1.1,2.8-0.3C242,240.9,242,242,241.2,242.9z"/>
		<g>
			<path class="st35" d="M189.9,224.6c-0.9,0.2-1.5,0.4-2,0.5c-7.8,2.3-14.6,6.3-20.7,11.6c-2,1.7-3.6,3.8-5.4,5.8
				c-0.2,0.3-0.3,0.7-0.6,1.4c1.3,0,2.3-0.1,3.2-0.1c0.8,0,1.7-0.2,2.5-0.2c1.7,0.1,2.6,1.5,2,3.1c-0.2,0.7-0.6,1.3-1,1.9
				c-0.7,1-1.5,1.9-2.1,2.9c-1,1.6-1.8,3.4-2.6,5.1c-0.4,0.8-0.7,1.8,0,2.5c0.8,0.8,1.7,0.2,2.5-0.1c2-0.9,3.9-1.8,5.8-2.8
				c1-0.5,2-0.8,3,0c0.9,0.7,0.9,1.7,0.7,2.8c-0.3,1.6-0.7,3.3-0.8,5c-0.1,1.5-0.4,3.1,0.1,4.7c1.8,0,3.1-1.2,4.8-1.9
				c-1.9-6.9-1-13.5,0.9-20c2-7.1,4.9-13.7,8.6-20.1C189.2,226,189.5,225.5,189.9,224.6z M181.9,234.3c-0.6,0.5-1.3,0.9-1.9,1.4
				c-1.7,1.4-3.5,2.8-5.1,4.2c-1.3,1.1-2.3,1.3-3.2,0.5c-0.9-0.9-0.7-2.1,0.6-3.2c2.2-1.9,4.5-3.6,6.7-5.4c0.4-0.3,0.9-0.5,1.2-0.6
				c1.1-0.1,1.8,0.2,2.1,1.1C182.7,233,182.6,233.7,181.9,234.3z"/>
			<path class="st35" d="M248.5,228c1.8,5.6,3.7,11.1,5.4,16.8c1.6,5.2,2.5,10.6,2.1,16.1c0,0.5,0,0.9,0.1,1.5
				c0.5,0.3,1,0.6,1.6,0.8c2.2,1.1,4.3,0.7,6.2-0.9c1.2-1,1.7-2.4,2.2-3.8c0.6-2,2.1-2.4,3.8-1.3c0.7,0.5,1.4,0.9,2,1.3
				c0.9-0.6,0.8-1.3,0.7-2c-0.3-2.4-1.3-4.5-2.4-6.6c-0.3-0.7-0.7-1.4-0.7-2.2c-0.1-1.3,0.9-2.1,2.2-2.1c0.4,0,0.7,0.1,1.1,0.2
				c2.5,0.5,3.5-0.7,2.7-3.1c-0.2-0.6-0.5-1.1-0.7-1.6c-1-1.8-2.3-3.4-4-4.6c-2.2-1.4-4.3-2.9-6.7-3.9c-4.4-2-9-3.6-13.5-5.4
				c-0.7-0.3-1.5-0.5-2.4-0.7C248.3,227.1,248.4,227.6,248.5,228z M254.4,234.7c0.1-0.8,0.8-1.4,2.3-1.5c1.5,0.3,3.4,0.6,5.3,1.2
				c2.2,0.7,4.3,1.7,6.5,2.6c0.4,0.2,0.7,0.4,1,0.7c0.6,0.6,0.7,1.4,0.3,2.1c-0.4,0.7-1.1,1.1-2,0.9c-0.5-0.1-0.9-0.3-1.3-0.5
				c-3-1.5-6.2-2.6-9.5-3.1c-0.5-0.1-0.9-0.2-1.4-0.4C254.6,236.4,254.2,235.6,254.4,234.7z"/>
		</g>
		<g>
			<path class="st10" d="M214.4,176.7c-0.9-2.8-1.7-5.6-2.6-8.6c-10.1,0.8-19.9,0.2-29.1-4c-1.4,2-3.7,8.1-4.1,10.7
				C188.6,179,206,179.8,214.4,176.7z"/>
			<path class="st10" d="M239,160c-1.8,4.9,3.5,12.7,6.6,12.2c1.5-0.3,2.4-1.5,2.5-3.3c0-0.4,0-0.7-0.1-1.1c-0.4-3.1-1.1-6-3-8.6
				C243.5,157.2,239.9,157.5,239,160z"/>
			<path class="st10" d="M226,166.4c0.6-0.2,1.3-0.3,1.9-0.5c2.3-0.5,4.6-1.1,6.9-1.6c0-1.9,0-1.9-1.4-3c-0.2-0.2-0.5-0.4-0.7-0.6
				c-4.3-3.4-9-5.9-14.4-7.1c-2.4-0.5-4.8-1-7.6-0.5c4.6,13.1,2,4.8,5.8,17.3c1.3,4.3,2.6,8.6,3.9,12.9c0.3,0.8,0.7,1.6,1,2.4
				c3.3-1.7,12.5-13.7,13.5-17.6c-0.9,0.2-1.8,0.4-2.6,0.6c-1.9,0.4-3.7,0.9-5.6,1.2c-1.2,0.2-2-0.4-2.2-1.3
				C224.2,167.7,224.8,166.7,226,166.4z"/>
			<path class="st10" d="M269.3,154.7c-1.9-5.3-4.4-10.3-7.7-14.8c-0.7-1-1.4-2.1-2.5-2.7c-2.4,1.9-10.1,14-11.8,18.7
				c0.7,1,1.4,2,2.2,3c0.2-0.1,0.4-0.1,0.5-0.2c2.4-1,4.7-2,7.2-2.9c0.6-0.2,1.4-0.4,1.9-0.1c0.5,0.2,1,0.9,1.2,1.4
				c0.2,0.8-0.3,1.5-1.1,1.9c-1.2,0.5-2.5,1-3.7,1.5c-1.5,0.6-3.1,1.3-4.6,2c0.3,1,0.5,1.9,0.7,2.7c0.8,0.3,1.6,0.5,2.3,0.7
				c3.5,1,7,1.9,10.6,2.9c2,0.5,4,1.1,6.1,1.5c1,0.2,2.1,0.4,3.2-0.3c-0.1-0.6-0.2-1.3-0.4-1.9
				C272.1,163.6,270.9,159.1,269.3,154.7z"/>
		</g>
	</g>
</g>
</svg>
