<svg xmlns="http://www.w3.org/2000/svg" xmlns:xlink="http://www.w3.org/1999/xlink" version="1.1" id="Calque_1" x="0px" y="0px" viewBox="0 0 432 432" style="enable-background:new 0 0 432 432;" xml:space="preserve">
<style type="text/css">
	.st0{fill:#575756;}
	.st1{fill:#C6C6C6;}
	.st2{fill:#3AAA35;}
	.st3{fill:#95C11F;}
	.st4{fill:#3C3C3B;}
	.st5{fill:#CBBBA0;}
	.st6{fill:#E71D73;}
	.st7{fill:#634E42;}
	.st8{fill:#DA417B;}
	.st9{fill:#008D36;}
	.st10{fill:#EC6587;}
	.st11{fill:#C9E2E9;}
	.st12{fill:#FECB3D;}
	.st13{fill:#F08692;}
	.st14{fill:#BACF1E;}
	.st15{fill:#54BCB7;}
	.st16{fill:#E66767;}
	.st17{fill:#F7A825;}
	.st18{fill:#79BE77;}
	.st19{fill:#CCA2CB;}
	.st20{fill:#FFD703;}
	.st21{fill:#D06C5D;}
	.st22{fill:#9DCDB3;}
	.st23{fill:#E3D3C4;}
	.st24{fill:#E49F91;}
	.st25{fill:#FFFFFF;}
	.st26{fill:#EAC0B4;}
	.st27{fill:#D3C7BE;}
	.st28{fill:#99B980;}
	.st29{fill:#8CC046;}
	.st30{fill:#F9B233;}
	.st31{fill:#ADDCE9;}
	.st32{fill:#9D9D9C;}
	.st33{fill:#E51D32;}
	.st34{fill:#931828;}
	.st35{fill:#F39200;}
	.st36{fill:#E4121A;}
	.st37{fill:#F6A64E;}
	.st38{fill:#CDB48D;}
	.st39{fill:#FCEA10;}
	.st40{fill:#D39B71;}
	.st41{fill:#F6CFD4;}
</style>
<g>
	<g>
		<path d="M235.7,183.9c3.8-6,5.7-12.7,6.5-19.7c3.5-29.8-23.7-49.3-39.8-12c-2.4,5.6-3.4,11.5-4.1,17.4c-0.4,3.7,0,7.2,1.1,10.8    c1,3.5,3.1,6.2,6,8.3c0.3,0.2,0.6,0.5,0.9,0.7c-1.4,2.1-2.8,4-4.1,6c-2.4-0.4-4.5,0.2-6.6,0.8c-0.3,0.1-0.6,0.2-0.8,0.4    c-0.6,0.4-0.8,1-0.6,1.7c0.2,0.7,0.7,1.1,1.4,1c0.5,0,1-0.2,1.4-0.3c0.9-0.2,1.9-0.4,3-0.7c-0.3,0.7-0.5,1-0.6,1.4    c-0.4,1.1-0.2,1.9,0.5,2.3c0.8,0.4,1.6,0.1,2.2-0.9c0.4-0.7,0.8-1.5,1.2-2.3c0.5,0.2,0.9,0.3,1.3,0.5c1.1,0.6,2.2,1.2,3.3,1.8    c0.9,0.5,1.6,0.5,2.1-0.1c0.5-0.6,0.6-1.5,0-2.1c-0.5-0.5-1.1-0.9-1.8-1.3c-0.9-0.5-1.9-1-2.9-1.5c1.3-1.9,2.5-3.6,3.7-5.3    c7.8,2.4,7.1,2.1,14.8,1.8c0.5,1.9,1.1,3.8,1.6,5.6c0.2,0.6,0.1,1-0.3,1.5c-0.5,0.5-1,1.1-1.4,1.7c-0.6,0.8-0.6,1.6,0,2.1    c0.6,0.6,1.5,0.6,2.2-0.1c0.5-0.4,0.9-0.9,1.6-1.6c0.3,0.6,0.5,1.1,0.8,1.5c0.3,0.5,0.7,0.9,1.2,1.3c0.6,0.5,1.5,0.5,2,0    c0.6-0.5,0.6-1.3,0.2-2c-0.2-0.4-0.5-0.7-0.8-1.1c-0.2-0.3-0.4-0.6-0.6-1c0.6-0.1,1.1-0.2,1.6-0.3c0.9-0.2,1.7-0.4,2.5-0.7    c0.7-0.3,1-1.1,0.8-1.7c-0.2-0.7-0.7-1.1-1.4-1c-0.5,0-1,0.2-1.4,0.2c-1.2,0.2-2.5,0.6-3.9,0.5c-0.6-2-1.1-3.9-1.7-5.9    C231.5,189.2,233.3,187.6,235.7,183.9z M204.3,156c12.1-32.5,33.7-25.7,35,4.5c0,0.5-0.1,1.1-0.4,1.5c-1.8,2.9-3.6,5.7-5.5,8.6    c-0.1,0.2-0.3,0.3-0.6,0.6c-0.9-2.8-1.7-5.4-2.5-8c-0.2-0.5-0.2-1.1-0.5-1.5c-0.7-1.4-2.1-1.6-3.1-0.4c-0.7,0.9-1.3,1.9-1.9,2.8    c-1.3,2-2.6,3.9-3.9,5.9c-0.2,0.3-0.5,0.5-0.8,0.9c-0.3-1-0.5-1.8-0.7-2.7c-0.6-2.8-1.2-5.7-1.8-8.5c0-0.2-0.1-0.4-0.2-0.6    c-0.2-0.8-0.6-1.5-1.5-1.6c-0.9-0.1-1.5,0.3-2,1c-0.9,1.5-1.8,3.1-2.7,4.5c-1.1,1.6-2.2,3.2-3.4,5c-0.3-0.5-0.5-0.7-0.7-1    c-1.3-3.1-2.4-6.2-3-9.5C204.1,157.1,204.1,156.5,204.3,156z M221.4,189.8c-5.4,0.5-10.4-0.7-14.8-4.1c-1.9-1.5-3.2-3.4-4-5.7    c-1.1-3.4-1.6-6.8-1.2-10.3c0.2-1.9,0.5-3.9,0.8-5.8c0.1,0,0.2-0.1,0.3-0.1c0.3,0.7,0.5,1.4,0.8,2.1c0.5,1.2,1,2.5,1.6,3.6    c1.3,2.1,3,2.4,4.7,0.6c1.2-1.2,2.1-2.6,3.1-3.9c0.8-1,1.4-2.1,2.2-3.4c0.3,0.9,0.5,1.7,0.7,2.4c0.5,2,0.9,4,1.3,6    c0.1,0.6,0.3,1.2,0.6,1.8c0.6,1.2,1.9,1.7,3.1,1c0.8-0.4,1.5-1,2-1.7c1.4-1.8,2.6-3.7,3.9-5.5c0.3-0.4,0.5-0.8,0.9-1.4    c0.2,0.5,0.3,0.8,0.4,1.1c0.8,2.3,1.6,4.5,2.4,6.8c0.6,2,2.7,2.5,4.1,0.7c0.9-1.1,1.6-2.5,2.4-3.7c0.3-0.5,0.6-0.9,0.9-1.4    c0.1,0,0.2,0.1,0.3,0.1c-0.3,1.2-0.6,2.3-0.9,3.5c-1.1,3.7-2.7,7.2-4.8,10.4C229.8,187.1,226.2,189.4,221.4,189.8z"/>
	</g>
	<g>
		<path class="st18" d="M204.3,156c-0.2,0.5-0.3,1.1-0.2,1.6c0.6,3.3,1.7,6.4,3,9.5c0.1,0.3,0.3,0.5,0.7,1c1.2-1.8,2.4-3.3,3.4-5    c1-1.5,1.8-3,2.7-4.5c0.4-0.7,1.1-1.2,2-1c0.9,0.1,1.3,0.8,1.5,1.6c0.1,0.2,0.1,0.4,0.2,0.6c0.6,2.8,1.2,5.7,1.8,8.5    c0.2,0.8,0.4,1.6,0.7,2.7c0.4-0.4,0.7-0.6,0.8-0.9c1.3-1.9,2.6-3.9,3.9-5.9c0.6-0.9,1.2-1.9,1.9-2.8c1-1.2,2.4-1,3.1,0.4    c0.2,0.5,0.3,1,0.5,1.5c0.8,2.6,1.6,5.2,2.5,8c0.3-0.3,0.5-0.4,0.6-0.6c1.8-2.8,3.7-5.7,5.5-8.6c0.3-0.4,0.4-1,0.4-1.5    C238,130.3,216.4,123.5,204.3,156z M212.6,150.5c-0.6,1-1.2,2.4-2,3.6c-0.4,0.6-1.2,0.6-1.8,0.3c-0.6-0.4-0.9-1-0.6-1.6    c0.6-1.3,1.2-2.6,2-3.9c0.4-0.6,1.2-0.7,1.8-0.4C212.5,148.8,212.7,149.4,212.6,150.5z M220,140.6c-1,1.4-2,2.7-3.1,4.1    c-0.5,0.7-1.2,1-1.9,0.7c-0.6-0.3-1-1-0.9-1.8c0.1-0.2,0.2-0.5,0.4-0.8c0.9-1.3,1.8-2.5,2.8-3.8c0.1-0.2,0.3-0.4,0.5-0.5    c0.8-0.6,1.5-0.6,2.1-0.1C220.6,138.9,220.6,139.7,220,140.6z"/>
		<path class="st18" d="M237,170.6c-0.8,1.2-1.5,2.5-2.4,3.7c-1.4,1.8-3.5,1.2-4.1-0.7c-0.7-2.3-1.6-4.5-2.4-6.8    c-0.1-0.3-0.3-0.7-0.4-1.1c-0.4,0.6-0.6,1-0.9,1.4c-1.3,1.8-2.6,3.7-3.9,5.5c-0.5,0.7-1.3,1.3-2,1.7c-1.2,0.7-2.5,0.2-3.1-1    c-0.3-0.6-0.5-1.2-0.6-1.8c-0.5-2-0.9-4-1.3-6c-0.2-0.7-0.4-1.5-0.7-2.4c-0.8,1.3-1.5,2.4-2.2,3.4c-1,1.3-2,2.7-3.1,3.9    c-1.7,1.8-3.4,1.5-4.7-0.6c-0.7-1.1-1.1-2.4-1.6-3.6c-0.3-0.7-0.6-1.4-0.8-2.1c-0.1,0-0.2,0.1-0.3,0.1c-0.3,1.9-0.6,3.9-0.8,5.8    c-0.4,3.5,0,6.9,1.2,10.3c0.8,2.3,2.1,4.2,4,5.7c4.4,3.4,9.4,4.6,14.8,4.1c4.7-0.4,8.4-2.8,11.1-6.7c2.1-3.2,3.8-6.7,4.8-10.4    c0.3-1.1,0.6-2.3,0.9-3.5c-0.1,0-0.2-0.1-0.3-0.1C237.6,169.7,237.3,170.1,237,170.6z M205.5,179.9c-0.7,0.3-1.5,0.1-1.9-0.6    c-0.8-1.3-1.3-2.8-1.3-4.4c0-1,0.8-1.7,1.7-1.6c0.6,0.1,1.1,0.5,1.3,1.2c0.3,1.2,0.6,2.3,0.9,3.5    C206.5,178.8,206.2,179.5,205.5,179.9z"/>
	</g>
	<g>
		<g style="display: none;">
			<path d="M123.2,183.3c0.1-0.2,0.4-0.7,0.7-1c1.4-1.4,2.8-2.8,4.3-4.1c0.3-0.2,0.6-0.4,0.9-0.6c0.9-0.4,1.8-0.2,2.2,0.5     c0.4,0.7,0.2,1.5-0.5,2.2c-1.2,1-2.4,2-3.5,3.1c-0.6,0.5-1,1.2-1.6,1.7c-0.6,0.5-1.3,0.5-1.9,0.1     C123.1,184.8,122.9,184.2,123.2,183.3z"/>
			<path d="M174.9,184.5c1.4,0.5,2.4,0.8,3.5,1.3c1.1,0.5,1.5,1.3,1.1,2.2c-0.3,0.8-1.1,1.1-2.2,0.8c-1.6-0.5-3.3-1-4.9-1.6     c-0.9-0.3-1.4-1.1-1.2-1.9c0.2-0.8,0.9-1.3,1.9-1.2c0.2,0,0.3,0,0.5,0.1C174.1,184.3,174.7,184.4,174.9,184.5z"/>
			<path d="M123.8,192c0.3-1.2,1-1.8,1.9-1.7c0.8,0.1,1.3,0.7,1.4,1.8c0.1,1.5,0.2,3.1,0.4,4.6c0.1,1-0.3,1.7-1.1,1.9     c-0.8,0.2-1.6-0.2-2-1.1C123.8,195.7,123.7,193.8,123.8,192z"/>
			<path d="M163,180.5c1,0.4,2.4,0.9,3.9,1.6c0.8,0.3,1.1,1,0.9,1.8c-0.1,0.7-0.6,1.1-1.3,1.2c-0.4,0.1-0.9,0-1.4-0.2     c-1.3-0.4-2.5-0.9-3.8-1.4c-1.2-0.5-1.7-1.3-1.3-2.3C160.5,180.3,161.3,180.1,163,180.5z"/>
			<path d="M153.5,176.9c0.7,0.3,1.5,0.6,2.3,0.9c0.9,0.4,1.3,1.2,1,2c-0.3,0.9-1.1,1.3-2.2,0.9c-0.9-0.3-1.9-0.6-2.8-1     c-1-0.4-1.4-1.2-1.1-2.1c0.3-0.9,1.1-1.2,2.2-1C153,176.8,153.2,176.9,153.5,176.9z"/>
			<path d="M189.1,183.7c0.8,0.2,1.3,0.6,1.4,1.4c0.1,0.7-0.2,1.4-0.9,1.6c-1.1,0.4-2.2,0.6-3.3,0.9c-0.7,0.1-1.3-0.2-1.6-0.9     c-0.3-0.7-0.1-1.5,0.6-1.9C186.5,184,187.8,183.8,189.1,183.7z"/>
			<path d="M139.3,176.9c-0.9-0.2-1.3-0.7-1.4-1.5c-0.1-0.7,0.3-1.3,0.9-1.5c1.4-0.5,2.9-0.5,4.3,0c0.7,0.2,1,0.9,0.9,1.6     c-0.1,0.7-0.6,1.3-1.3,1.3C141.5,177,140.3,176.9,139.3,176.9z"/>
			<path d="M134.8,206.1c-0.5-0.3-1.3-0.7-2.1-1.2c-1-0.7-1.2-1.6-0.7-2.4c0.5-0.7,1.4-0.9,2.4-0.4c0.7,0.3,1.4,0.7,2.1,1.1     c1,0.5,1.3,1.3,1,2.2C137,206.2,136.2,206.5,134.8,206.1z"/>
			<path d="M143.3,191c1.5,0.4,3.2,2.9,3,4.2c-0.1,0.7-0.5,1.2-1.1,1.3c-0.7,0.2-1.3-0.1-1.8-0.7c-0.5-0.8-1-1.5-1.5-2.3     c-0.4-0.6-0.5-1.3,0-1.9C142.3,191,142.9,190.9,143.3,191z"/>
			<path d="M137,186.6c0.8,0.2,1.2,0.6,1.3,1.3c0.1,0.8-0.2,1.3-0.8,1.7c-0.6,0.3-1.2,0.7-1.7,1c-0.8,0.5-1.6,0.3-2.1-0.3     c-0.5-0.6-0.6-1.4,0.1-2.1C134.6,187.1,135.6,186.4,137,186.6z"/>
			<path d="M141.4,202.1c0.4-1.6,1.5-2.5,2.6-2.1c0.9,0.3,1.3,1.3,1,2.3c-0.3,1.2-1.5,2.1-2.5,1.8     C141.6,203.9,141.1,203,141.4,202.1z"/>
		</g>
		<g style="display: none;">
			<path d="M307,183.3c-0.1-0.2-0.4-0.7-0.7-1c-1.4-1.4-2.8-2.8-4.3-4.1c-0.3-0.2-0.6-0.4-0.9-0.6c-0.9-0.4-1.8-0.2-2.2,0.5     c-0.4,0.7-0.2,1.5,0.5,2.2c1.2,1,2.4,2,3.5,3.1c0.6,0.5,1,1.2,1.6,1.7c0.6,0.5,1.3,0.5,1.9,0.1     C307.1,184.8,307.2,184.2,307,183.3z"/>
			<path d="M255.2,184.5c-1.4,0.5-2.4,0.8-3.5,1.3c-1.1,0.5-1.5,1.3-1.1,2.2c0.3,0.8,1.1,1.1,2.2,0.8c1.6-0.5,3.3-1,4.9-1.6     c0.9-0.3,1.4-1.1,1.2-1.9c-0.2-0.8-0.9-1.3-1.9-1.2c-0.2,0-0.3,0-0.5,0.1C256.1,184.3,255.5,184.4,255.2,184.5z"/>
			<path d="M306.3,192c-0.3-1.2-1-1.8-1.9-1.7c-0.8,0.1-1.3,0.7-1.4,1.8c-0.1,1.5-0.2,3.1-0.4,4.6c-0.1,1,0.3,1.7,1.1,1.9     c0.8,0.2,1.6-0.2,2-1.1C306.3,195.7,306.4,193.8,306.3,192z"/>
			<path d="M267.1,180.5c-1,0.4-2.4,0.9-3.9,1.6c-0.8,0.3-1.1,1-0.9,1.8c0.1,0.7,0.6,1.1,1.3,1.2c0.4,0.1,0.9,0,1.4-0.2     c1.3-0.4,2.5-0.9,3.8-1.4c1.2-0.5,1.7-1.3,1.3-2.3C269.6,180.3,268.9,180.1,267.1,180.5z"/>
			<path d="M276.7,176.9c-0.7,0.3-1.5,0.6-2.3,0.9c-0.9,0.4-1.3,1.2-1,2c0.3,0.9,1.1,1.3,2.2,0.9c0.9-0.3,1.9-0.6,2.8-1     c1-0.4,1.4-1.2,1.1-2.1c-0.3-0.9-1.1-1.2-2.2-1C277.1,176.8,277,176.9,276.7,176.9z"/>
			<path d="M241,183.7c-0.8,0.2-1.3,0.6-1.4,1.4c-0.1,0.7,0.2,1.4,0.9,1.6c1.1,0.4,2.2,0.6,3.3,0.9c0.7,0.1,1.3-0.2,1.6-0.9     c0.3-0.7,0.1-1.5-0.6-1.9C243.7,184,242.3,183.8,241,183.7z"/>
			<path d="M290.9,176.9c0.9-0.2,1.3-0.7,1.4-1.5c0.1-0.7-0.3-1.3-0.9-1.5c-1.4-0.5-2.9-0.5-4.3,0c-0.7,0.2-1,0.9-0.9,1.6     c0.1,0.7,0.6,1.3,1.3,1.3C288.7,177,289.9,176.9,290.9,176.9z"/>
			<path d="M295.4,206.1c0.5-0.3,1.3-0.7,2.1-1.2c1-0.7,1.2-1.6,0.7-2.4c-0.5-0.7-1.4-0.9-2.4-0.4c-0.7,0.3-1.4,0.7-2.1,1.1     c-1,0.5-1.3,1.3-1,2.2C293.1,206.2,293.9,206.5,295.4,206.1z"/>
			<path d="M286.8,191c-1.5,0.4-3.2,2.9-3,4.2c0.1,0.7,0.5,1.2,1.1,1.3c0.7,0.2,1.3-0.1,1.8-0.7c0.5-0.8,1-1.5,1.5-2.3     c0.4-0.6,0.5-1.3,0-1.9C287.8,191,287.3,190.9,286.8,191z"/>
			<path d="M293.2,186.6c-0.8,0.2-1.2,0.6-1.3,1.3c-0.1,0.8,0.2,1.3,0.8,1.7c0.6,0.3,1.2,0.7,1.7,1c0.8,0.5,1.6,0.3,2.1-0.3     c0.5-0.6,0.6-1.4-0.1-2.1C295.6,187.1,294.5,186.4,293.2,186.6z"/>
			<path d="M288.8,202.1c-0.4-1.6-1.5-2.5-2.6-2.1c-0.9,0.3-1.3,1.3-1,2.3c0.3,1.2,1.5,2.1,2.5,1.8C288.6,203.9,289,203,288.8,202.1     z"/>
		</g>
	</g>
</g>
</svg>