<?xml version="1.0" encoding="utf-8"?>
<!-- Generator: Adobe Illustrator 24.1.0, SVG Export Plug-In . SVG Version: 6.00 Build 0)  -->
<svg version="1.1" id="Layer_1" xmlns="http://www.w3.org/2000/svg" xmlns:xlink="http://www.w3.org/1999/xlink" x="0px" y="0px"
	 width="792px" height="755.8px" viewBox="0 0 792 755.8" style="enable-background:new 0 0 792 755.8;" xml:space="preserve">
<style type="text/css">
	.st0{fill:#6EA7C1;}
	.st1{fill:#85AF4A;}
	.st2{fill:#F6F08A;}
	.st3{fill:#F05992;}
	.st4{fill:#F48F8C;}
	.st5{fill:#BC2981;}
</style>
<g id="_x36_">
	<path class="st0" d="M394.8,748.4c-47.6,0-90.2-7.8-126.5-23.1c-35.2-14.9-64.7-36.8-87.7-65.2c-54-66.8-70.1-167.5-45.2-283.5
		c8.4-39,33-139.3,80.5-227.1c22.5-41.5,47.2-74.4,73.3-97.8C322,22.4,357.5,7.5,394.8,7.5c37.1,0,73,14.8,106.5,43.9
		c27,23.5,52.6,56.4,75.9,97.7c43.7,77.4,71,169.1,81.9,229.1c21.4,117.2,3,218-51.8,283.8c-23.2,27.8-52.6,49.3-87.5,63.8
		C483.9,740.8,441.8,748.4,394.8,748.4z"/>
</g>
<g id="_x35_">
	<path class="st1" d="M652.8,379.4c-10.9-59.5-37.9-150.4-81.2-227.1c-23-40.7-48.1-73-74.5-96c-32.4-28.1-66.8-42.4-102.3-42.4
		c-35.6,0-69.6,14.3-101.2,42.5c-25.6,22.9-49.8,55.2-71.9,96.1c-9.9,18.3-18.8,37.2-26.8,55.9l0,0c-0.9,2.1-1.7,4.1-2.6,6.2
		c-28.2,68.1-44,133.5-50.4,163.2C117.4,492,133,590.7,185.7,656c22.3,27.6,51,48.9,85.2,63.3c35.5,15,77.2,22.6,124,22.6
		c46.1,0,87.4-7.4,122.6-22.1c33.9-14.1,62.5-34.9,85-61.9C656,593.6,673.9,494.7,652.8,379.4z M612.5,429.8
		c0.7,6.9,1.2,13.7,1.5,20.4c-1-2.3-1.4-4.2-1.9-6.4c-0.8-3.6-1.7-7.7-5-12.3C608.9,430.9,610.7,430.4,612.5,429.8z M577.8,281.1
		c4.4,12.5,8.3,24.8,11.8,36.6c-3.3-1-6.7-2-9.9-2.9c-0.3-8.3-3-16.5-8-23.4C573.8,288.1,575.8,284.6,577.8,281.1z M513.3,250.3
		c-4.2-3.3-8.7-5.9-13.3-8.1c14.5-8.9,29.7-17,45.7-23.3c-1.8,1.7-3.7,3.3-5.6,5c-3.5,3.2-7.2,6.4-10.9,9.8
		c-0.2,0.2-0.4,0.4-0.6,0.6C523.4,240.2,518.3,245.5,513.3,250.3z M545.2,536.5c-2.1-0.9-4.2-1.9-6.5-3c-13.7-6.4-27.4-13.9-40.6-22
		c4.8-2.3,9.6-5.1,14-8.6L545.2,536.5z M495.9,131.7c0.4-1.2,1.4-3.4,2.7-5.4c3,4,6.1,8.1,9.2,12.5l0,0c-2.6,5.4-0.9,11.9,4.4,15.1
		c2.2,1.5,5.7,4.8,6.4,7.5c0.5,2.2-1.3,6.6-2.7,8.7c-3.6,5-2.8,11.6,1.8,15.6c0.1,0.1,0.2,0.2,0.4,0.4c-4,1.8-8,3.7-12,5.7
		c-0.9-3.7-2.4-6.4-3.7-8.9c-1.2-2.2-2.3-4.2-3.1-7.2c-1.3-4.7-1.6-10.2-0.6-16.3c0.6-3.9-1.6-7.6-5.1-9.1l0,0
		c-3.4-1.6-7.5-0.9-10.1,2.1c-4,4.7-8.3,8-12.8,10.1c-2.8,1.3-5,1.7-7.5,2.3c-3.3,0.7-7,1.5-11.2,4.1c-1.6-4.8-3.2-9.3-4.7-13.3
		c2.2-0.7,4.7-0.6,5.7-0.5c6,1,11.5-2.7,13.2-8.5c0.6-2,2.9-6.6,5-7.6c2.5-1.2,7.3-0.6,9.8,0.1C487.1,141.3,493.7,138,495.9,131.7z
		 M459.3,562c9.1-1.3,17.4-5.4,23.8-11.6c2.8,1.7,5.5,3.3,8.2,4.8l0,0c0.7,2.4,1,4.6,0.8,6.6c-0.2,2.3-0.8,3.5-2.4,6.4
		c-1.4,2.6-3.2,5.9-4.6,10.7c-0.4,1.5-0.8,3-1,4.6c-1.4-0.8-2.7-1.5-4.1-2.2c-4.5-2.1-8.2-2.9-11.1-3.5c-3.2-0.7-4.5-1-6.4-2.4
		s-3.7-3.5-5.2-6.1l0,0C458,566.9,458.7,564.5,459.3,562z M457.4,186.6c0.9-1,1.8-1.9,2.7-2.6c1.9-1.4,3.2-1.7,6.4-2.3
		c2.9-0.6,6.5-1.4,11.1-3.5c1.4-0.6,2.8-1.4,4.2-2.2c0.3,1.6,0.6,3.1,1,4.6c1.4,4.8,3.2,8.1,4.6,10.7c1.6,2.8,2.2,4.1,2.4,6.4
		c0.1,1,0,2-0.1,3.1c-2.3,1.3-4.6,2.7-6.9,4.1c-6.3-6.2-14.5-10.4-23.5-11.7C458.6,190.9,458,188.7,457.4,186.6z M481.1,105.9
		c0.5,0.5,1,1,1.5,1.6c-2,2.3-3.6,4.7-5,7c-5.1-0.3-11.3,0.2-17.1,3c-6.7,3.3-11.1,9-13.8,13.9c-2.8,0.3-5.7,1-8.6,2.1
		c-0.2-0.6-0.5-1.1-0.7-1.6C448.7,119.4,464.5,108.7,481.1,105.9z M394.8,60.9c4.8,0,10,0.4,15.5,1.5c-4.7,4.7-9.2,9.6-13.6,14.5
		c-4.1-4.6-8.9-9.8-14.2-15C386.5,61.2,390.7,60.9,394.8,60.9z M421.2,209.8c-4.7-1.8-9.8-3.1-15-3.8l-0.5-43.8
		C411.1,175.6,416.6,191.8,421.2,209.8z M386.5,167.7c0.7-2,1.5-4,2.2-5.9l0.5,44.1c-5.3,0.7-10.4,2-15.1,3.7
		C377.5,195.3,381.7,181.1,386.5,167.7z M311.2,105c0.2,0.3,0.5,0.5,0.7,0.8c16.3,1.9,32.3,10.7,45.4,24.5c-0.2,0.4-0.4,0.9-0.6,1.3
		c-3.1-1.2-6.2-2-9.2-2.3c-2.7-4.9-7.1-10.6-13.8-13.9c-5.8-2.8-12-3.3-17.1-3c-1.3-2.1-2.8-4.4-4.6-6.6c-0.1,0-0.2,0-0.3,0
		c-0.3,0-0.7-0.1-1-0.1C310.8,105.4,311,105.2,311.2,105z M278.4,168.1c-1.4-2.2-3.2-6.6-2.7-8.8c0.6-2.7,4.2-6.1,6.3-7.5
		c5.3-3.3,7.1-9.9,4.3-15.4c3-4.4,6.1-8.6,9.2-12.7c1.3,2.2,2.4,4.5,2.8,5.7c2.1,6.2,8.7,9.7,14.9,7.5c2.5-0.8,7.4-1.3,9.9-0.1
		c2,1,4.3,5.2,5,7.6c1.6,6,7.1,9.6,13.2,8.5c1.1-0.1,4.2-0.2,6.5,0.8c-1.7,4.7-3.5,10-5.3,15.9c-3.2-1.6-6.1-2.3-8.7-2.9
		c-2.5-0.6-4.7-1.1-7.4-2.4c-4.4-2.1-8.6-5.6-12.6-10.3c-2.5-3-6.7-3.8-10.1-2.2c-3.5,1.4-5.7,5-5.2,9c0.8,6.1,0.5,11.6-1,16.3
		c-0.9,3-2,4.9-3.3,7.1c-1.3,2.3-2.8,4.9-3.7,8.2c-5.1-2.5-10.2-4.9-15.3-7.2c0.5-0.7,1-1.3,1.3-1.6
		C281.2,179.6,282,173.2,278.4,168.1z M312.9,550.3c6.3,6.2,14.5,10.3,23.5,11.7c0.7,2.7,1.5,5.4,2.2,8c-1.1,1.5-2.3,2.7-3.6,3.6
		c-1.9,1.3-3.2,1.6-6.4,2.3c-2.9,0.6-6.6,1.3-11.1,3.3c-1.4,0.6-2.8,1.3-4.2,2.1c-0.2-1.6-0.6-3.1-1-4.6c-1.3-4.8-3-8.1-4.4-10.7
		c-1.5-2.9-2.1-4.1-2.3-6.4c-0.1-1.6,0.1-3.4,0.6-5.3C308.3,552.9,310.6,551.6,312.9,550.3z M306.5,199c0.2-2.3,0.9-3.5,2.5-6.3
		c1.5-2.6,3.3-5.8,4.8-10.6c0.4-1.5,0.8-3,1.1-4.5c1.3,0.8,2.7,1.6,4.1,2.3c4.5,2.2,8.1,3,11,3.7c3.2,0.7,4.5,1.1,6.4,2.5
		c0.4,0.3,0.8,0.6,1.2,1c-0.5,2-1.1,4-1.6,6.1c-8.9,1.3-17,5.4-23.2,11.4c-2.1-1.2-4.2-2.4-6.3-3.6
		C306.4,200.3,306.4,199.6,306.5,199z M296,242.2c-4.4,2.1-8.8,4.7-12.8,7.8c-3.2-3-6.3-6-9.4-8.9c-7.4-7-15-14.2-22.5-21.5
		C266.3,225.8,281.3,233.4,296,242.2z M216,285.1c0.2,0,0.4-0.1,0.7-0.1c1.2-0.2,2.4-0.2,3.8,0c1.1,2,2.3,3.9,3.4,5.8
		c-5.4,7.2-8.3,15.8-8.5,24.5c-2.8,0.7-5.5,1.5-8.3,2.3c-0.4-0.3-0.8-0.6-1.1-0.9C209,306.6,212.4,296,216,285.1z M180.7,429.2
		c2.7,0.9,5.4,1.8,8.1,2.7c-2.1,3.6-2.8,6.9-3.5,9.8c-0.6,2.5-1.1,4.7-2.4,7.4c-1.2,2.4-2.7,4.8-4.7,7.1
		C178.7,447.4,179.6,438.4,180.7,429.2z M194.6,527.1c-4.6,0.1-9.2-0.1-13.6-0.7c-0.2-1.4-0.4-2.7-0.6-4.1c4.9,0.1,9.2-0.9,13-2.5
		c1,0.8,2.1,1.4,3.2,2C195.8,523.6,195.2,525.4,194.6,527.1z M206.1,499.1c-0.2-0.2-0.4-0.4-0.6-0.6c-4.5-4.5-9.8-4.5-11.5-4.5
		c-2.2,0-4.3,0.6-6.2,1.7c-4.1,2.4-6,2.8-7.9,2.4c-0.1,0-0.2,0-0.3,0c-0.5-0.1-1.1-0.3-1.7-0.7l0,0c-0.4-6.6-0.5-13.4-0.5-20.3
		c0.6,0,1.2,0,1.8,0c6.1-0.8,11.6-0.5,16.3,1c3,0.9,4.9,2,7.1,3.3c2.7,1.6,5.7,3.3,10,4.2C210.2,490.4,208,495,206.1,499.1z
		 M221.4,468.9c-1.4,0.2-2.8,0.3-4,0.1c-2.3-0.2-3.5-0.9-6.3-2.5c-2.6-1.5-5.8-3.3-10.6-4.8c-1.5-0.5-3-0.8-4.5-1.1
		c0.8-1.4,1.6-2.7,2.3-4.1c2.2-4.5,3-8.1,3.7-11c0.7-3.2,1.1-4.5,2.5-6.4c0.5-0.7,1.2-1.4,1.9-2c2.4,0.7,4.8,1.3,7.2,1.9
		c1.3,9.1,5.4,17.3,11.6,23.6C223.8,464.8,222.6,466.9,221.4,468.9z M187.7,388.2c0-0.2,0.1-0.3,0.1-0.5c0.1-0.3,0.2-0.7,0.2-1
		c7.9-0.1,15.8-0.3,23.4-0.5c5.3-0.1,10.8-0.3,16.2-0.4c0.7,5.4,2.1,10.6,3.9,15.4C216.7,397.8,202.1,393.4,187.7,388.2z
		 M227.8,368.9c-5.7,0.1-11.3,0.2-16.8,0.4c-6.3,0.2-12.7,0.3-19.1,0.4c0.3-1.4,0.7-2.9,1-4.3c12.6-4.6,25.6-8.6,38.7-11.9
		C229.8,358.3,228.5,363.5,227.8,368.9z M262.1,253.4c3,2.8,6,5.7,9,8.6c-3.4,4.4-6.1,9.1-8.3,13.8c-8.4-13.5-15.6-26.8-21.8-40.3
		c-0.6-1.3-1.2-2.7-1.8-4C246.8,239,254.5,246.3,262.1,253.4z M263.9,477.4c2.2,4.6,4.8,9.1,8,13.3l-31.6,32.2
		C246.3,509.4,254.1,493.7,263.9,477.4z M258.4,626c-7.7-11.9-11.8-27.2-11.5-44c2.2-0.8,4.5-1.7,6.9-2.6c0.2,0.3,0.4,0.7,0.6,1
		c-2,5.2-3.7,12.3-1.9,19.5c1.5,6.3,5.1,11.4,8.5,15.1C259.8,618.2,258.8,622,258.4,626z M257.7,533.1c-2.2,1-4.3,2-6.3,2.8
		l32.5-33.1c4.4,3.5,9.1,6.3,13.9,8.6C284.8,519.5,271.2,526.9,257.7,533.1z M298.5,624c-0.8,2.2-3.3,7.5-6.1,9.7
		c-1.1,0.9-2.4,1.4-3.9,1.7c-0.8,0.1-1.7,0.2-2.5,0.1c-0.2,0-0.5-0.1-0.7-0.1c-0.2-0.2-0.6-0.6-1.2-1.4c-0.9-1.2-1.5-2.5-1.7-3.9
		c-0.1-0.4-0.1-0.8-0.1-1.2c-0.1-3.6,2.4-8.9,3.6-10.8c3.5-5.6,1.9-12.9-3.7-16.3c-2.2-1.5-5.7-4.8-6.4-7.5
		c-0.5-2.2,1.3-6.6,2.7-8.7c3.6-5,2.8-11.6-1.8-15.6c-0.1-0.1-0.2-0.2-0.3-0.3c3.8-1.8,8-3.8,12.5-6.1c0.7,4.4,2.4,7.6,3.9,10.4
		c1.2,2.3,2.2,4.2,3,7.2c1.3,4.7,1.4,10.2,0.4,16.3c-0.6,3.9,1.5,7.6,5,9.1l0,0l0,0c1.2,0.6,2.5,0.9,3.8,0.9c2.3,0,4.7-1,6.3-2.8
		c4.1-4.6,8.5-7.9,12.9-9.9c2.8-1.2,5-1.7,7.5-2.2c3.6-0.7,7.7-1.5,12.4-4.6c1.4,4.2,2.8,8.1,4.1,11.7c-2.4,1.1-5.6,1.1-6.7,0.9
		c-6.1-1-11.6,2.5-13.2,8.4c-0.8,2.5-3,6.7-5.1,7.7c-2.5,1.2-7.3,0.6-9.8-0.1C307.2,614.4,300.6,617.7,298.5,624z M338.4,679.4
		c-3.7,3-7.7,5.8-11.8,8.4c-3.9-0.9-7.8-1.8-11.5-2.9c8-0.9,16-2.9,23.8-5.9C338.7,679.2,338.5,679.3,338.4,679.4z M308.6,651.4
		c3.4-3,6.1-6.7,8.1-10.1c5.1,0.3,11.3-0.2,17.1-3c6.7-3.3,11.1-9,13.8-13.9c3.1-0.4,6.4-1.2,9.6-2.5c0.4,0.9,0.8,1.9,1.3,2.8
		C344.2,640.7,326.3,650.1,308.6,651.4z M389.1,546.4l0.3,46.1c-0.7-1.8-1.5-3.8-2.2-5.7c-5.2-14.1-9.8-29-13.4-43.9
		C378.9,544.6,384,545.8,389.1,546.4z M394.8,694.9c-4,0-8-0.1-11.9-0.2c2.9-2.8,6-6,9.5-9.7c1.9-2,3.8-4.1,5.6-6.1
		c1.8,2,3.8,4.1,5.7,6.2c3.4,3.6,6.4,6.7,9.2,9.4C407,694.7,401,694.9,394.8,694.9z M406.4,592.6l-0.3-46.3
		c5.6-0.7,10.9-2.1,15.9-3.8C417.4,561.5,411.8,578.6,406.4,592.6z M467.7,686.7c-3.2-2.1-6.3-4.4-9.3-6.7
		c5.8,2.1,11.8,3.6,17.7,4.5C473.4,685.3,470.6,686,467.7,686.7z M437.1,625.6c0.3-0.6,0.6-1.2,0.8-1.9c3,1.2,6.1,1.9,9,2.3
		c2.7,4.9,7.2,10.6,13.8,13.9c5.8,2.8,12,3.3,17.1,3c1.6,2.7,3.7,5.7,6.2,8.3C467.5,649.4,450.8,640.5,437.1,625.6z M516.1,587.2
		c1.5,2.2,3.2,6.6,2.7,8.8c-0.6,2.7-4.2,6.1-6.3,7.5c-5.6,3.5-7.2,10.7-3.8,16.4c1,1.6,3.6,7.1,3.6,10.8c0,0.4,0,0.8-0.1,1.2
		c-0.2,1.3-0.8,2.7-1.7,3.9c-0.6,0.8-1,1.2-1.2,1.4c-0.2,0-0.4,0.1-0.7,0.1c-0.8,0.1-1.6,0-2.5-0.1c-1.5-0.2-2.8-0.8-3.9-1.7
		c-2.8-2.2-5.3-7.5-6.1-9.7c-2.2-6.2-8.7-9.7-15-7.5c-2.5,0.8-7.4,1.3-9.9,0.2c-2-1-4.3-5.2-5-7.6c-1.6-5.9-7.2-9.5-13.2-8.5
		c-1,0.1-3.9,0.2-6.2-0.7c1.4-3.9,3-8.3,4.6-13.1c0.3,0.3,0.7,0.5,1,0.8c4.9,3.6,9.2,4.5,12.9,5.3c2.5,0.5,4.7,1,7.5,2.3
		c4.4,2,8.7,5.4,12.8,10.1c1.7,1.9,4.1,2.9,6.4,2.9c1.3,0,2.5-0.3,3.7-0.9l0,0c3.5-1.5,5.6-5.2,5-9.1c-0.9-6.1-0.7-11.6,0.6-16.3
		c0.8-3,1.9-4.9,3.1-7.1c1.7-3.1,3.6-6.5,4.3-11.7c3.7,1.9,7.2,3.6,10.5,5.2c-0.6,0.8-1.2,1.5-1.5,1.8
		C513.3,575.6,512.5,582.1,516.1,587.2z M536,626.3c-0.5-3.5-1.4-6.8-2.4-9.7c3.5-3.7,7-8.9,8.5-15.1c1.7-7.2,0.1-14.3-1.9-19.5
		c0.5-0.8,1-1.6,1.5-2.5c2.1,0.8,4.1,1.6,6.1,2.4C548.1,598.8,543.9,614.3,536,626.3z M524.2,490.8c3.2-4.2,5.8-8.7,8-13.2
		c9.8,16.2,17.8,32,23.8,45.5L524.2,490.8z M553.4,239.7c-6.1,12.4-12.8,24.4-20.1,36.1c-2.1-4.6-4.7-9.1-8-13.4
		c5.2-5,10.4-10.4,15.8-16.4c3.5-3.2,7-6.3,10.4-9.3c2-1.7,3.9-3.5,5.9-5.3C556.1,234.1,554.8,236.9,553.4,239.7z M602,365.2
		c0.3,1.4,0.6,2.8,0.9,4.1c-2.5,0-4.9,0.1-7.4,0.2c-8.9,0.2-18,0.4-27.1,0.2c-0.7-5.8-2.1-11.3-4.1-16.5
		C576.5,356.4,589,360.4,602,365.2z M568.3,386.7c9.3,0.2,18.6,0,27.6-0.3c3.5-0.1,7-0.2,10.4-0.2c0.1,0.5,0.2,1,0.3,1.6
		c0,0.2,0.1,0.4,0.1,0.6c-14.7,5-28.7,9.2-42,12.5C566.4,396.5,567.6,391.8,568.3,386.7z M575.4,470.6c-1.5-2.8-3.2-5.6-4.8-8.5
		c5.9-6.3,9.9-14.3,11.1-23.2c2.3-0.6,4.7-1.2,7-1.9c1.9,1.2,3.3,2.6,4.4,4c1.4,1.8,1.7,3.2,2.4,6.4c0.6,2.9,1.4,6.5,3.6,11.1
		c0.7,1.4,1.4,2.8,2.2,4.1c-1.6,0.3-3.1,0.7-4.6,1.1c-4.8,1.4-8,3.2-10.6,4.7c-2.8,1.6-4.1,2.2-6.4,2.4
		C578.4,471,577,470.9,575.4,470.6z M609.9,526.9c-2.7,0.2-5.4,0.2-8.2,0.2l0,0c-0.6-1.8-1.3-3.6-2.1-5.5c1.2-0.6,2.4-1.2,3.5-2
		c2.3,0.8,4.8,1.6,7.6,2.1C610.5,523.5,610.2,525.2,609.9,526.9z M613.5,497.7c-1.2-0.3-2.5-0.8-4.2-1.5c-1.3-0.5-2.8-1.1-4.5-1.6
		c-4.3-1.4-9.1-0.3-12.3,2.9c-0.7,0.7-1.5,1.4-2.4,1.9c-1.7-3.7-3.7-7.7-5.8-12.1c4.4-0.9,7.4-2.6,10.2-4.1c2.2-1.2,4.2-2.3,7.1-3.2
		c3.8-1.1,8.1-1.5,12.8-1.2C614.3,485.2,614,491.6,613.5,497.7z"/>
</g>
<g id="_x34_">
	<path class="st2" d="M647.9,380.3c-10.8-59.1-37.7-149.4-80.6-225.5c-22.7-40.2-47.4-72.1-73.5-94.7c-31.4-27.3-64.7-41.1-99-41.1
		s-67.3,13.9-97.9,41.3c-25.2,22.5-49,54.4-70.9,94.7c-46.8,86.4-71.1,185.4-79.3,224c-24.1,112.6-8.9,209.8,42.9,273.9
		c21.8,26.9,49.8,47.7,83.2,61.9c34.9,14.7,75.9,22.2,122,22.2c28,0,54.1-2.8,78.1-8.3c1.6-0.1,3.1-0.5,4.6-1.1
		c13.3-3.3,26-7.4,38-12.4c33.1-13.8,61.1-34.1,83-60.5C651.2,591.5,668.7,494.1,647.9,380.3z M467.5,691.9
		c-4.4-2.8-8.6-5.7-12.5-8.9c-6.8-5.5-13.7-11.5-24.7-23.1c18.2,14.1,39.1,21.6,59.9,21.6c3.9,0,7.9-0.3,11.8-0.8
		C491.2,685.3,479.7,689,467.5,691.9z M341.2,682.9c-4.5,3.6-9.4,7-14.4,10.1c-15.8-3.5-30.4-8.2-43.9-14.3
		c7.1,1.9,14.4,2.8,21.6,2.8c23.1,0,46.3-9.3,65.7-26.5c-1.4,1.6-2.9,3.1-4.3,4.7C354.9,671.4,348.1,677.5,341.2,682.9z M340.5,73.3
		c9.3,7.4,17.9,15.7,26.6,25.2c-10.8-8.7-22.8-15.2-35.4-19.1C334.6,77.2,337.5,75.2,340.5,73.3z M451.5,74.3
		c3.2,2.1,6.3,4.3,9.4,6.6c-15,5.4-29.3,14.6-41.8,27c-0.1-0.2-0.3-0.4-0.4-0.6C429.4,95.3,439.8,83.8,451.5,74.3z M519,585.2
		c1.4,2.1,4.1,7.8,3.2,11.5c-1,4.3-6.1,8.5-7.8,9.6c-3.9,2.5-5.1,7.7-2.7,11.6c0.9,1.5,4.2,7.9,4.1,12.7c0,0.6-0.1,1.2-0.2,1.8
		c-0.3,1.9-1.1,3.7-2.4,5.4c-1.7,2.2-2.6,2.6-2.9,2.6c-0.5,0.1-1,0.2-1.5,0.2c-1.1,0.1-2.2,0-3.3-0.2c-2-0.4-3.9-1.2-5.5-2.4
		c-3.7-2.9-6.5-9.3-7.2-11.3c-1.5-4.3-6.2-6.7-10.6-5.3c-2,0.6-8.4,1.9-12.4-0.1c-3.5-1.7-6.1-7.3-6.8-9.8c-1.2-4.1-5.2-6.7-9.4-6
		c-0.1,0-8.1,0.9-11.7-3.6c2.2-5.9,4.7-13,7.2-21.1c1.7,2.1,3.5,3.8,5.5,5.3c4.3,3.1,8,3.9,11.6,4.7c2.6,0.5,5.1,1.1,8.2,2.5
		c4.9,2.3,9.6,6,14,11c1,1.1,2.4,1.7,3.8,1.7c0.7,0,1.4-0.2,2.1-0.5c2.2-0.8,3.6-3,3.2-5.4c-1-6.6-0.7-12.6,0.8-17.8
		c1-3.3,2.2-5.5,3.4-7.9c1.8-3.2,3.6-6.5,4-11.8c0.1-1.6,0.1-3.3-0.1-5c7.1,3.8,13.6,6.9,19.1,9.5c-1.2,3.8-4.4,6.8-4.4,6.9
		C517.2,577,516.7,581.7,519,585.2z M274.3,572.5c0,0-2.3-2.2-3.7-5.2c6.1-2.8,13.3-6.3,21.4-10.6c-0.1,1.2-0.1,2.4,0,3.6
		c0.3,5.3,2.1,8.6,3.8,11.9c1.2,2.3,2.4,4.6,3.3,7.9c1.4,5.2,1.6,11.2,0.5,17.8c-0.4,2.2,0.8,4.3,2.7,5.3c0,0,0,0,0.1,0
		c0.1,0.1,0.2,0.1,0.4,0.2c0.7,0.3,1.4,0.5,2.1,0.5c1.4,0,2.7-0.6,3.7-1.7c4.4-5,9.2-8.6,14.1-10.8c3.2-1.4,5.6-1.9,8.3-2.4
		c3.6-0.7,7.3-1.4,11.6-4.5c1.4-1,2.7-2.1,3.9-3.4c2.3,7.1,4.5,13.3,6.5,18.7l0,0c-3.4,5.1-12.1,4.1-12.1,4.1c-4.2-0.6-8.2,2-9.4,6
		c-0.7,2.5-3.4,8.1-6.9,9.8c-4,2-10.5,0.7-12.4,0.1c-4.4-1.4-9.1,0.9-10.6,5.3c-0.7,2-3.5,8.4-7.2,11.3c-1.5,1.2-3.4,2-5.5,2.4
		c-1.1,0.2-2.3,0.2-3.3,0.2c-0.5,0-1.1-0.1-1.5-0.2c-0.3-0.1-1.2-0.4-2.9-2.6c-1.2-1.6-2-3.5-2.4-5.4c-0.1-0.6-0.2-1.2-0.2-1.8
		c-0.1-4.7,3-10.9,4.1-12.7c2.4-3.9,1.2-9.1-2.6-11.6c-1.7-1.1-6.8-5.3-7.9-9.6c-0.9-3.7,1.8-9.4,3.2-11.5
		C278,580.1,277.5,575.4,274.3,572.5z M188.5,362.5c16.1-5.8,33.5-11.5,51.5-15.8c-3.8,7.6-6.7,16.3-7.5,25.7c-1.1,0-2.3,0-3.4,0
		c-14.2,0.1-28.7,0.1-43,0.3C186.8,369.4,187.6,366,188.5,362.5z M303,198.7c0.3-3.1,1.4-5,2.9-7.7c1.4-2.4,3.1-5.5,4.5-9.9
		c0.9-3,1.5-6.3,1.8-9.7c2.7,2.1,5.5,3.9,8.3,5.3c4.1,2,7.5,2.8,10.3,3.4c3.1,0.7,5.2,1.2,7.7,3.1c1.3,1,2.6,2.3,3.7,3.8
		c-0.9,3.5-1.9,7-2.8,10.8c-9.9,0.7-18.9,5.3-25.2,12.4c-3.6-2.2-7.3-4.3-10.9-6.3C302.9,202,302.8,200.3,303,198.7z M317.2,102.6
		c16.4,3.2,32.4,13,45.2,27.4c-1,2.2-2,4.5-3,6.9c-4.6-2.8-9.6-3.9-14.1-4.3c-2.4-4.7-6.5-10.8-13.2-14c-6-2.9-12.6-3.1-17.5-2.5
		c-2-3.8-5.1-8.5-9.3-11.9c0.8-0.9,1.6-1.8,2.4-2.7C310.9,101.6,314,102,317.2,102.6z M484.1,101.9c1.5,1.6,2.9,3.1,4.4,4.7
		c-4,3.4-6.9,7.8-8.9,11.5c-4.9-0.5-11.5-0.4-17.5,2.5c-6.7,3.3-10.8,9.4-13.2,14c-4.2,0.3-9.1,1.4-13.5,3.9c-1-2.3-2.1-4.6-3.1-6.8
		C447.2,114.8,465.6,104.1,484.1,101.9z M582.7,280.1c4.5,13,8.6,25.7,12.2,38c-2,1.5-4.3,2.7-6.8,3.8c-4.5-1.3-9-2.6-13.4-3.7
		c0.4-9.2-2.5-18.5-8.6-25.9c2.5-4.1,4.9-8.2,7.3-12.4C576.4,279.1,579.4,279.2,582.7,280.1z M495.7,562c-0.2,3.1-1.3,5-2.8,7.8
		c-1.4,2.5-3,5.5-4.3,9.9c-0.9,3.1-1.4,6.3-1.6,9.7c-2.7-2.1-5.5-3.8-8.4-5.1c-4.2-1.9-7.6-2.6-10.3-3.2c-3.1-0.7-5.2-1.1-7.7-3
		c-2.9-2.1-5.4-5.5-7.6-9.9c1-3.5,2-7.2,3-11c10.3-0.7,19.6-5.5,26-12.9c4,2.5,8,4.8,11.8,6.9C495.2,555.2,495.9,558.8,495.7,562z
		 M183.8,382.6c15-0.2,30.3-0.2,45.3-0.3c1.1,0,2.2,0,3.3,0c0.7,9.5,3.6,18.1,7.4,25.4c-18-3.8-35.9-8.9-53.5-15.2
		c-1.5-0.5-2.9-1.1-4.3-1.6c0.3-1.4,0.6-2.8,0.9-4.2C183.2,385.4,183.5,384.1,183.8,382.6z M225.1,471.7c-2.9,0.8-5.6,1.1-8,0.9
		c-3.1-0.3-5-1.4-7.7-2.9c-2.4-1.4-5.5-3.1-9.9-4.5c-3-0.9-6.3-1.5-9.7-1.8c2.1-2.7,3.9-5.5,5.3-8.3c2-4.1,2.8-7.5,3.4-10.3
		c0.7-3.1,1.2-5.2,3.1-7.7c1.3-1.7,2.9-3.2,4.9-4.5c3.9,1.1,7.7,2.1,11.6,3.1c0.7,10.2,5.5,19.4,12.9,25.8
		C228.9,464.9,226.9,468.3,225.1,471.7z M397.4,517.9c-0.1,0-0.2,0-0.3,0c-12.9,0-24-6.4-31.5-12.3c2.3-3.3,4.9-7.4,7.8-12.4
		c0.6-1.1,1.3-2.3,2-3.6c1.6,5.5,4,10.7,6.7,14.9c4.7,7.3,9.8,11,15.3,11l0,0c3.9,0,9.6-1.7,14.8-10c2.6-4.1,4.7-9.5,6-15.3
		c0.7,1.1,1.3,2.1,2,3.1c2.9,4.4,5.9,8.8,9,12.6C421.4,511.6,410.1,517.8,397.4,517.9z M399,258.3c3.1,4.7,7.2,17,4.2,28
		c-2.2-0.5-4.5-0.8-6.7-0.7c-1.5,0-3.1,0.2-4.6,0.4C390.1,276,395.2,263.3,399,258.3z M397.4,497c-3.7-4.9-8.7-16.9-7.3-26.8
		c1.8,0.4,3.7,0.6,5.5,0.6c0.1,0,0.2,0,0.2,0c1.9,0,3.9-0.2,6-0.6C404.3,480.9,400.5,492.4,397.4,497z M488.5,384
		c0.4-2.2,0.6-4.4,0.7-6.5c0-1.7-0.1-3.4-0.4-5.1c10.8-2.5,22.5,1.4,27.1,4.4C510.9,380.6,498.4,385.7,488.5,384z M420.1,262.3
		c-0.2,0.4-0.5,0.8-0.7,1.2c-1.3-5.2-3.2-9.8-5.6-13.5c-5.2-8.3-10.9-10-14.8-10l0,0c-5.5,0-10.7,3.7-15.3,11
		c-3.1,4.8-5.6,10.8-7.2,16.9c-1-1.9-1.9-3.7-2.9-5.4c-3.2-5.8-6-10.4-8.4-13.9c7.6-6.6,19.2-14,32.4-14c0.1,0,0.2,0,0.3,0
		c12.6,0.1,24.2,7.1,32.2,13.6C427,251.8,423.7,256.5,420.1,262.3z M391.9,142.3l0.8,68.3c-9.3,0.8-17.8,3.6-25.2,7.4
		C374.3,186.4,384,159.7,391.9,142.3z M304,373.3c-0.2,1.5-0.3,2.9-0.3,4.4c0,2.2,0.3,4.5,0.8,6.9c-10.1,2.2-23.2-3.1-28.3-7
		C280.9,374.4,293.1,370.4,304,373.3z M312.2,463.4c0.8-6.2,6.2-18.8,14.5-24.6c1.1,1.7,2.4,3.2,3.8,4.6c1.3,1.3,2.7,2.4,4.3,3.5
		C328.9,456.6,317.6,462.3,312.2,463.4z M367.3,534.8c7.5,3.6,16,6.2,25.2,6.9l0.5,70.7C384.6,594.6,374.3,567.1,367.3,534.8z
		 M402.5,541.7c9.5-0.8,18.2-3.6,25.9-7.3c-4,18.4-9.4,37.1-15.8,54.6c-3.4,9.3-6.7,17.1-9.6,23.4L402.5,541.7z M462.4,443.3
		c1.2-1.2,2.3-2.5,3.3-3.9c7.9,6,13,18,13.8,24.1c-5.4-1.1-16.4-6.6-22.3-16C459.2,446.2,460.9,444.7,462.4,443.3z M512.6,354.9
		c5.6-3.5,10.4-6.8,14.1-9.8c6.3,7.9,13.1,19.4,13.2,32.3c0.1,13.6-7.4,24.9-13.9,32.1c-3.5-2.4-7.9-5-13.5-8.1
		c-1.4-0.8-3-1.6-4.5-2.4c5.7-1.6,11-4.1,15.4-6.8c7.3-4.7,11-9.8,11-15.3c0-3.9-1.7-9.7-10-14.8c-3.8-2.4-8.7-4.4-14-5.7
		C511.1,355.9,511.8,355.4,512.6,354.9z M465,316.7c-1.1-1.6-2.3-3-3.5-4.3c-1.5-1.5-3.1-2.9-4.9-4c5.9-9.2,16.7-14.6,22.1-15.7
		C477.9,298.8,472.9,310.7,465,316.7z M427.9,218c-7.4-3.7-15.8-6.6-25.1-7.4l-0.8-68C410.4,160.1,420.7,187,427.9,218z
		 M331.3,312.7c-1.4,1.4-2.7,3-3.8,4.7c-8.4-5.7-13.8-18.4-14.6-24.7c5.5,1.1,16.8,6.8,22.5,16.4C334,310.3,332.6,311.4,331.3,312.7
		z M267.8,362.8c-8.3,5.2-10,10.9-10,14.8c0,5.5,3.7,10.7,11,15.3c4.5,2.9,10.1,5.3,15.8,6.9c-1,0.6-2.1,1.2-3,1.7
		c-4.8,2.8-8.7,5.2-11.8,7.5c-6.4-7.2-13.7-18.4-13.6-31.7c0.1-12.6,6.7-23.9,12.8-31.8c3.8,3.1,8.2,6.1,12.6,9.1
		c0.9,0.6,1.9,1.2,2.9,1.9C278,357.8,272.2,360,267.8,362.8z M176.5,423c6.2,2.2,12.4,4.3,18.6,6.2c-0.5,0.6-1.1,1.2-1.5,1.8
		c-3.2,4.2-4.1,7.9-4.9,11.5c-0.6,2.6-1.2,5-2.7,8.2c-2.3,4.9-6.1,9.5-11.2,13.8c-1.7,1.5-2.2,3.8-1.4,5.8c0,0.1,0.1,0.1,0.1,0.2
		s0.1,0.1,0.1,0.2c0.9,2,2.9,3.2,5.2,3c6.6-0.9,12.6-0.5,17.7,1.1c3.3,1,5.5,2.3,7.8,3.6c3.2,1.8,6.5,3.7,11.8,4.2
		c0.9,0.1,1.7,0.1,2.6,0.1c0.1,0,0.3,0,0.5,0c-4.2,8.1-7.7,15.4-10.4,21.5c-3.7-0.7-6.6-3-8.4-4.7c-3.2-3.2-8.3-3.3-11.7-0.3
		c-2.2,2-5.6,2.8-9.2,2.2c-2.5-0.4-4.8-1.6-6.5-3.1C171.7,474.5,172.9,449.4,176.5,423z M265,467c2.7,7.9,6.7,15.8,12.7,22.9
		L229,539.6C235.6,521,247.7,494.3,265,467z M284.7,445.8c4.8-0.6,9.8-1.6,14.8-2.7c0.8-0.2,1.6-0.4,2.3-0.5
		c-2.8,5.1-4.8,10.4-5.8,15.3c-1.9,8.4-0.8,14.7,3.1,18.6c2.1,2.1,5.6,4.2,11.2,4.2c1.9,0,4-0.2,6.4-0.8c5-1.1,10.5-3.6,15.7-7
		c-0.2,0.9-0.4,1.8-0.6,2.6c-1.1,5.1-2.1,10.2-2.6,15.1c-9.7-1.3-22.2-4.8-31.2-13.9C289.3,467.8,285.9,455.6,284.7,445.8z
		 M310.3,587.3c-0.2-3.4-0.6-6.7-1.5-9.7c-1.2-4.4-2.8-7.5-4.1-10c-1.5-2.8-2.5-4.7-2.7-7.8c-0.2-2.8,0.4-5.9,1.6-9.3
		c3.4-1.9,6.9-4,10.5-6.2c6.4,7.4,15.5,12.3,25.7,13c1.1,4.2,2.2,8.3,3.3,12.2c-1.8,3-3.9,5.3-6.1,7c-2.6,1.8-4.6,2.2-7.8,2.8
		c-2.8,0.5-6.2,1.2-10.4,3.1C315.9,583.6,313,585.3,310.3,587.3z M465.7,490.8c-0.8-4-2-8.9-3.7-14.8c-0.2-0.6-0.4-1.2-0.5-1.8
		c4.6,2.7,9.3,4.7,13.6,5.7c2.4,0.6,4.5,0.8,6.4,0.8c5.6,0,9.1-2.1,11.2-4.2c3.9-3.9,4.9-10.2,3.1-18.6c-1.1-5.2-3.3-10.8-6.2-15.9
		c1.9,0.4,3.8,0.9,5.7,1.3c4.4,0.9,10.5,2,16.2,2.6c-1.3,9.8-4.7,22.1-13.3,30.9C488.8,486.2,475.6,489.6,465.7,490.8z M531,467.3
		c17.5,27.4,29.7,54.1,36.6,72.8L518.4,490C524.3,483,528.3,475.1,531,467.3z M564.7,460.9c6.9-6.2,11.5-15,12.3-24.7
		c4.1-1,8.1-2,12.1-3.1c2.9,1.7,5.2,3.6,6.8,5.8c1.9,2.5,2.3,4.6,3,7.7c0.6,2.7,1.4,6.1,3.3,10.3c1.4,2.9,3.1,5.7,5.2,8.4
		c-3.4,0.2-6.6,0.8-9.7,1.7c-4.4,1.3-7.5,3-9.9,4.4c-2.8,1.6-4.6,2.6-7.8,2.9c-2.5,0.2-5.3-0.1-8.3-1
		C569.6,469.3,567.2,465.2,564.7,460.9z M619.4,463.8c-3.6-3.5-6.3-7.2-8.1-11.1c-1.5-3.1-2-5.6-2.6-8.2c-0.8-3.6-1.6-7.3-4.8-11.5
		c-0.9-1.1-1.8-2.2-2.9-3.3c5.4-1.7,10.7-3.4,16-5.3C618.4,437.9,619.2,451,619.4,463.8z M556.1,408.1c3.9-7.5,6.9-16.2,7.6-25.9
		c10.5-0.1,20.9,0.3,31.1,0.6c5.2,0.2,10.6,0.3,16,0.5c0.2,1.2,0.5,2.5,0.7,3.7c0.3,1.7,0.6,3.4,0.9,5.1
		C594.6,398.8,575.8,404.1,556.1,408.1z M608.8,373.1c-4.6-0.1-9.1-0.3-13.6-0.4c-10.3-0.3-20.9-0.7-31.6-0.6
		c-0.9-9.3-3.8-17.9-7.6-25.5c16.8,3.7,33.6,8.9,50.3,15.3C607.2,365.8,608.1,369.5,608.8,373.1z M511.9,309.2
		c-4.3,0.7-9.6,2-16.1,3.8c-2.4,0.7-4.9,1.4-7.6,2.2c3.2-5.5,5.5-11.4,6.6-16.7c1.9-8.4,0.8-14.7-3.1-18.6
		c-2.8-2.8-8.1-5.6-17.6-3.4c-4.1,0.9-8.5,2.7-12.9,5.3c0.3-0.9,0.5-1.7,0.7-2.6c1.8-6.6,3.1-11.9,3.8-16.3
		c10.3,1,23.7,4.2,32.8,13.2C508.2,285.4,511.1,299.1,511.9,309.2z M484.6,169.9c0.2,3.4,0.7,6.7,1.6,9.7c1.3,4.4,2.9,7.5,4.3,10
		c1.5,2.8,2.5,4.7,2.8,7.8c0.2,2.2-0.1,4.6-0.8,7.2c-3.6,2-7.3,4.1-11,6.2c-6.4-7.4-15.5-12.3-25.7-13.1c-1-3.7-2-7.3-3-10.8
		c1.6-2.4,3.3-4.4,5.3-5.8c2.6-1.9,4.6-2.3,7.7-2.9c2.7-0.6,6.2-1.3,10.3-3.2C479.1,173.6,481.9,171.9,484.6,169.9z M329.1,262.8
		c0.5,5.9,1.7,12.3,2.7,16.9c0.2,1.1,0.5,2.2,0.7,3.4c-5.1-3.3-10.4-5.6-15.2-6.7c-9.5-2.2-14.8,0.6-17.6,3.4
		c-3.9,3.9-4.9,10.2-3.1,18.6c1.1,5.1,3.3,10.6,6.1,15.7c-1.3-0.4-2.7-0.8-4-1.2c-5.8-1.7-10.6-2.9-14.6-3.6
		c0.7-10.1,3.6-23.9,13.2-33.4C306.2,267.3,318.9,263.9,329.1,262.8z M223.9,282c1.9,3.2,3.8,6.5,5.8,9.7
		c-6.6,7.6-9.7,17.3-9.2,26.9c-4.3,1.2-8.5,2.4-12.7,3.7c-2.3-1.4-4.2-2.9-5.6-4.7c-0.4-0.5-0.8-1-1.1-1.5
		c3.1-10.5,6.6-21.5,10.4-33c1.4-0.8,2.9-1.3,4.8-1.6C218.6,281.2,221.1,281.3,223.9,282z M176.7,518c6,1.1,12,0.3,17.1-2.1
		c2.6,1.8,5.4,3.1,8.3,4.1c-1.5,3.8-2.9,7.5-4.1,11c-7.4,0.4-14.7,0-21.6-1.2c-0.6-4-1.2-8.1-1.7-12.2
		C175.4,517.7,176,517.9,176.7,518z M235.4,547.3l49.3-50.3c7.2,6.2,15.4,10.4,23.5,13.2C280.4,528.3,253.7,540.6,235.4,547.3z
		 M305.1,649.7c4.3-3.5,7.5-8.2,9.6-12.2c4.9,0.5,11.5,0.4,17.5-2.5c6.7-3.3,10.8-9.4,13.2-14c4.5-0.3,9.8-1.6,14.4-4.5
		c1.2,2.9,2.5,5.6,3.7,8.3c-19,22.7-44.5,33.7-68.3,30C298.9,653.8,302.3,652,305.1,649.7z M435.3,618.5c4.5,2.7,9.5,3.8,13.9,4.1
		c2.4,4.7,6.5,10.8,13.2,14c6,2.9,12.6,3.1,17.5,2.5c2.1,3.9,5.3,8.7,9.6,12.2c2,1.6,4.1,2.8,6.4,3.9c-22.3,2.1-45.9-8.5-63.9-29.3
		C433.1,623.6,434.2,621.1,435.3,618.5z M487.7,510.3c8.1-2.8,16.4-7,23.7-13.2l49.9,50.8C542.8,541.2,515.8,528.6,487.7,510.3z
		 M598.3,531c-1.2-3.5-2.6-7.1-4.1-10.8c3-1.2,5.7-2.8,7.9-4.3c4.4,2.1,9.2,3,14.1,2.8c-0.6,4-1.2,7.9-1.9,11.8
		C609.1,531.1,603.8,531.2,598.3,531z M617.3,501.5c-3.7,0.7-7.6-0.3-10.6-2.7c-3.4-2.7-8.3-2.4-11.3,0.6c-2.5,2.5-5.4,4.4-7.8,5.1
		c-2.6-5.8-5.9-12.6-9.8-20.2c0.3,0,0.6,0,0.9,0c0.8,0,1.6,0,2.4-0.1c5.3-0.5,8.6-2.3,11.8-4.1c2.3-1.3,4.5-2.5,7.8-3.5
		c5.2-1.5,11.1-1.8,17.7-0.9c0.4,0.1,0.7,0.1,1.1,0c-0.1,8.7-0.5,17.2-1.3,25.5C617.9,501.4,617.6,501.4,617.3,501.5z M531.9,286.4
		c-2.5-8.1-6.6-16.4-12.8-23.7c9.2-8.9,18.5-17.7,27.6-26.2c4.5-4.2,9.1-8.6,13.7-12.9c0.9,2,1.8,4,2.6,6
		C554,249.5,543.6,268.5,531.9,286.4z M556.1,214c-5.4,5.1-10.8,10.2-16.2,15.3c-9.2,8.6-18.6,17.4-27.9,26.4
		c-7-5.9-14.8-9.8-22.5-12.4c22-13.7,43.9-24.5,65.2-32.2C555.2,212.1,555.6,213.1,556.1,214z M514,151c1.7,1.1,6.8,5.3,7.9,9.6
		c0.9,3.7-1.8,9.4-3.2,11.5c-2.4,3.5-1.9,8.2,1.3,11.1c0,0,2.6,2.5,4,5.8c-6.9,3-13.8,6.3-20.7,9.8c0-0.7,0-1.5-0.1-2.2
		c-0.4-5.3-2.2-8.6-4-11.8c-1.3-2.3-2.5-4.5-3.4-7.9c-1.5-5.2-1.7-11.2-0.7-17.8c0.3-2.2-0.9-4.3-2.9-5.3c-0.1,0-0.1-0.1-0.2-0.1
		s-0.1-0.1-0.2-0.1c-2-0.9-4.4-0.5-5.8,1.2c-4.4,5-9.1,8.7-14,11c-3.2,1.5-5.6,2-8.2,2.5c-3.6,0.8-7.3,1.5-11.6,4.7
		c-1,0.7-2,1.6-2.9,2.5c-2.5-7.9-5-14.8-7.3-20.7c3.8-4,11.3-3.1,11.3-3.1c4.2,0.6,8.2-2,9.4-6c0.7-2.5,3.4-8.1,6.9-9.8
		c4-2,10.5-0.7,12.4-0.1c4.4,1.4,9.1-0.9,10.6-5.3c0.7-1.9,3.4-8,6.9-11c4.6,5.7,9,11.6,13.1,17.6c-0.5,1-0.9,1.8-1.2,2.3
		C509,143.4,510.2,148.5,514,151z M294.4,117.1C294.4,117.1,294.4,117.2,294.4,117.1c3.7,3,6.5,9.3,7.2,11.3
		c1.5,4.3,6.2,6.7,10.6,5.3c2-0.6,8.4-1.9,12.4,0.1c3.5,1.7,6.1,7.3,6.8,9.8c1.2,4.1,5.1,6.7,9.3,6c0.1,0,8.4-1,12,3.8
		c-2.3,6.2-4.8,13.8-7.5,22.5c-0.3-0.2-0.6-0.5-0.9-0.7c-4.2-3.2-7.9-4.1-11.5-4.9c-2.6-0.6-5-1.2-8.2-2.7
		c-4.9-2.3-9.5-6.1-13.8-11.2c-1.5-1.7-3.8-2.2-5.8-1.4c-0.1,0-0.1,0.1-0.2,0.1s-0.1,0.1-0.2,0.1c-2,0.9-3.3,2.9-3,5.2
		c0.9,6.6,0.5,12.6-1.1,17.7c-1,3.3-2.3,5.5-3.6,7.8c-1.8,3.2-3.7,6.5-4.2,11.8c0,0.2,0,0.5,0,0.7c-7.6-3.9-15.3-7.5-23.1-10.9
		c1.3-3.6,4.2-6.4,4.2-6.4c3.2-2.8,3.7-7.6,1.3-11.1c-0.9-1.3-4.2-7.3-3.2-11.5c1-4.3,6.1-8.5,7.8-9.6c3.9-2.5,5.1-7.6,2.7-11.6
		c-0.3-0.5-0.8-1.4-1.3-2.6C285.7,128.5,290,122.7,294.4,117.1z M306.8,243.2c-7.9,2.6-15.9,6.7-23.1,12.8c-2.8-2.7-5.5-5.4-8.2-8
		c-4.1-4-8.3-8.2-12.7-12.1c-7.9-7.9-16-16-23.8-23.6c0.3-0.7,0.6-1.4,0.9-2C263,218.5,285.6,229.7,306.8,243.2z M234.8,221.9
		c7,6.9,14.1,14,21.1,21c0.1,0.1,0.1,0.1,0.2,0.2c4.2,3.8,8.2,7.7,12.4,11.9c2.7,2.6,5.4,5.3,8.2,8c-6.1,7.2-10,15.4-12.5,23.4
		c-11.5-17.5-21-34.6-28.3-51.2c-1-2.3-2.5-4.2-4.3-5.8C232.6,227,233.7,224.5,234.8,221.9z M243,578.5c3.8-1.3,7.8-2.8,12-4.5
		c1,2.2,2.1,4.1,3.4,5.9c-2.1,4.8-4.2,11.9-2.5,19.1c1.5,6.5,5.6,11.7,9.2,15.1c-1.7,4.1-3.4,9.6-3.3,15.1c0,1.5,0.2,3,0.4,4.4
		c0.3,1.7,0.8,3.4,1.4,5C249.5,624.6,241.8,602.9,243,578.5z M531.8,638.1c0.2-0.9,0.5-1.8,0.6-2.7c0.3-1.4,0.4-2.9,0.4-4.4
		c0.1-5.6-1.6-11-3.3-15.1c3.6-3.5,7.6-8.6,9.2-15.1c1.7-7.2-0.3-14.3-2.5-19.1c1.5-2.1,3-4.7,4-7.5c3.9,1.6,7.7,3.1,11.4,4.4
		C552.9,602.5,545.5,623.9,531.8,638.1z M419.9,59.5c-8.2,7.8-15.7,16.1-23.1,24.3c-7.5-8.6-15.5-17.1-24.2-25
		c7.3-1.9,14.7-2.8,22.2-2.8C403.4,55.9,411.8,57.2,419.9,59.5z M223.6,635.7c-0.8-5.6-1.2-11.4-1.4-17.2
		c4.1,12.9,10.5,24.6,18.9,34.2C234.9,647.5,229,641.8,223.6,635.7z M371.6,699.1c5-4.5,10.5-9.9,17.6-17.3c3.1-3.2,6.1-6.6,8.9-9.8
		c2.8,3.2,5.8,6.6,9,9.8c6.8,7.1,12.2,12.4,17,16.8c-9.4,0.8-19.1,1.2-29.2,1.2C386.9,699.9,379.1,699.6,371.6,699.1z M564.2,637.7
		c4.9-8.6,8.6-18.2,10.9-28.5c0.2,5.3,0.2,10.6-0.1,15.7c-1.6,2.1-3.2,4.1-4.8,6C568.2,633.3,566.2,635.5,564.2,637.7z"/>
</g>
<g id="_x33_">
	<path class="st3" d="M645.3,538.6c8.8-46.6,8.2-99.9-2.3-157.4c-9.4-51.3-31-126.3-64.7-194.9c-0.4-1-0.9-2-1.4-2.9
		c-4.4-8.9-9.1-17.6-13.9-26.2c-22.4-39.7-46.8-71.1-72.4-93.4c-30.5-26.5-62.7-39.9-95.7-39.9s-64.9,13.5-94.6,40
		c-24.7,22.1-48.2,53.5-69.8,93.4C184,243.2,159.8,341.6,151.6,380c-23.8,111.1-8.9,206.8,41.9,269.7c21.3,26.3,48.6,46.6,81.3,60.4
		c34.3,14.5,74.7,21.8,120.1,21.8c44.8,0,84.8-7.2,118.8-21.3c32.4-13.5,59.7-33.3,81.1-59.1C619.3,622,636,585,644.6,542.1
		C645.1,541,645.3,539.8,645.3,538.6z M613.2,557.6c-3.6-0.2-7.2-0.4-10.8-0.7c-0.2-1.4-0.5-2.9-0.8-4.3c0.7,0,1.4,0,2.1,0
		c3.7,0,7.4-0.2,11-0.5C614.2,553.9,613.7,555.7,613.2,557.6z M514.9,655c-29,12.3-63.1,1.4-87.1-27.2c2.1-4.4,4.3-9.2,6.4-14.4
		c5.6,4.8,12.8,5.7,17.2,5.8c1.9,4.3,5.7,11,12.5,14.3c6.2,3.1,13.4,2.6,18,1.8c1.8,3.8,5.1,9.5,9.8,13.2c3.3,2.6,7.3,4.4,11.6,5.1
		c1.5,0.3,3.1,0.4,4.6,0.4c0.7,0,1.4,0,2.2-0.1c1.2-0.1,2.3-0.3,3.4-0.5c4-0.9,7.5-3.4,10.7-7.7c2.5-3.3,4.2-7.2,4.8-11.1
		c0.2-1.3,0.3-2.6,0.4-3.9c0.1-6-2.2-12.1-4-16c3.5-3,8.4-8.3,10-15c1.7-7.3-1-14.6-3.1-18.8c2-2.5,4.6-6.4,5.8-11.2
		c6.4,2.7,12.5,5,18.1,6.9C558.3,612.6,542.4,643.4,514.9,655z M215,258.4c5.7,11.5,12,22.8,18.8,33.9c-7.6,7.7-10.9,18.3-9.6,28.5
		c-10.9,2.7-21.8,5.9-32.4,9.4C198.3,307.1,206,282.7,215,258.4z M236.7,205.5c15.2,5.1,31.2,12.4,48.7,22.1
		c8.3,4.6,17,9.8,27.4,16.3c0.5,0.3,0.9,0.6,1.4,0.9c-10.7,2.7-22.1,7.7-31.1,16.5c-9.8,9.6-14.8,21.6-17.3,32.7
		c-15-22.2-27.3-45-37.5-69.1C231,218.4,233.8,211.9,236.7,205.5z M339,68.3c15.2,11.5,28.1,25.6,36.8,35.5c0.9,1.1,1.8,2.1,2.8,3.2
		c-1.2,1.7-2.3,3.4-3.4,5.2c-13.8-14.1-32.4-26.3-54-30.6C326.9,76.6,332.9,72.1,339,68.3z M452.9,69.3c6.2,3.9,12.2,8.4,18,13.3
		c-19.2,4.6-37.6,15.4-51.9,30.7l0,0c-1.3-2.1-2.7-4.2-4.2-6.2C427,93.2,439,80.1,452.9,69.3z M516,148.1c2.2,1.4,8,6.2,9.4,11.7
		c1.3,5.3-2.2,12.1-3.7,14.3c-1.4,2-1.1,4.8,0.8,6.5c0.1,0.1,4.5,4.2,5.7,9.7c-5,2.2-10.2,4.6-15.6,7.3c-10.2,5.1-21.4,10.6-32.4,17
		c-6.1-8.1-15.8-13.3-26.5-13.5c-5-19.4-10.7-35.8-15.2-47.4c4.7-6.8,15.3-5.5,15.4-5.5c2.5,0.4,4.8-1.2,5.5-3.5
		c0.7-2.5,3.8-9.5,8.7-11.9c5.1-2.5,12.6-1,15-0.3c2.6,0.8,5.4-0.5,6.3-3.1c0.8-2.4,3.9-9.3,8.3-12.9c1.2-0.9,2.5-1.7,4-2.3
		c5.5,6.7,10.7,13.7,15.7,20.8c-1,2.7-2.2,5.1-2.9,6.2C513,143.6,513.7,146.6,516,148.1z M603.4,329.5c-10.5-3.6-21.3-6.7-32.4-9.3
		c1.1-9.8-2.1-19.9-9.2-27.4c6.6-10.7,12.8-21.8,18.8-33.4C589.6,283.6,597.3,307.4,603.4,329.5z M528.6,565.8
		c-0.7,6.1-5.9,10.9-5.9,11c-1.9,1.7-2.2,4.5-0.8,6.5s5,8.9,3.7,14.3c-1.3,5.5-7.2,10.4-9.3,11.7c-2.3,1.5-3,4.5-1.6,6.8
		c1.3,2.2,4.7,9,4.6,14.6c0,0.8-0.1,1.5-0.2,2.3c-0.4,2.4-1.5,4.8-3,6.9c-1.7,2.3-3.3,3.6-4.9,3.9c-0.7,0.1-1.3,0.3-2,0.3
		c-1.4,0.1-2.8,0-4.2-0.2c-2.6-0.5-5.1-1.5-7-3.1c-4.4-3.5-7.5-10.5-8.3-12.9c-0.9-2.6-3.7-4-6.3-3.1c-2.4,0.8-9.9,2.2-15-0.2
		c-4.9-2.4-7.9-9.4-8.7-11.9c-0.7-2.4-3.1-3.9-5.5-3.6c-0.1,0-10.8,1.4-15.5-5.6c-0.1-0.1-0.2-0.3-0.3-0.4
		c4.4-11.6,10.2-28.6,15.3-49.2c11-0.1,20.9-5.4,27.1-13.7C499.8,551.9,516.7,560.4,528.6,565.8z M398.2,628.3
		c-9.5-15.5-26-53.3-35.2-99.7c9.3,5.4,20.8,9.8,34.1,9.8c0.2,0,0.3,0,0.5,0c13.4-0.1,25.6-4.8,35.3-10.5
		C423.7,574.6,407.5,612.7,398.2,628.3z M278.4,607.6c-0.1,0-7.8-5.1-9.3-11.7c-1.3-5.3,2.2-12.1,3.7-14.3c1.4-2.1,1.1-4.9-0.8-6.5
		c-0.1-0.1-4.2-3.9-5.6-9.1c11.9-5.3,29.2-13.8,48.9-25.9c6.1,8.3,15.9,13.6,26.8,13.8c4.8,19.3,10.3,35.4,14.7,46.9
		c-0.2,0.3-0.4,0.7-0.7,1c-4.7,7-15.4,5.6-15.5,5.6c-2.5-0.4-4.8,1.2-5.5,3.5c-0.7,2.5-3.8,9.5-8.7,11.9c-5.1,2.5-12.6,1-15,0.3
		c-2.6-0.8-5.4,0.6-6.3,3.1c-0.8,2.4-4,9.4-8.3,12.9c-2,1.6-4.4,2.7-7,3.1c-1.4,0.2-2.9,0.3-4.2,0.2c-0.7-0.1-1.4-0.2-2-0.3
		c-1.6-0.4-3.2-1.6-4.9-3.9c-1.5-2.1-2.6-4.4-3-6.9c-0.1-0.8-0.2-1.5-0.2-2.3c-0.1-5.6,3.3-12.5,4.6-14.6
		C281.4,612.1,280.7,609.1,278.4,607.6z M169.2,512.5c0.4,0.3,0.9,0.5,1.3,0.8c0.2,0.1,0.4,0.2,0.6,0.3c7.3,3.2,15.1,0.6,21.2-1.5
		c0.5-0.2,1-0.3,1.5-0.5c3.7,3.1,8,5.1,12.5,6c-2.5,6.2-4.7,12.2-6.5,17.7c-9.5,0.7-18.9,0-27.7-1.9
		C170.8,526.6,169.9,519.6,169.2,512.5z M244.2,445.8c-2.5-2.2-4.3-5.1-5.2-8.3c3.2,0.6,6.4,1.2,9.6,1.7
		C247.2,441.4,245.7,443.6,244.2,445.8z M183.7,360.8c20.2-7.8,41.3-13.9,62.6-18.3c-5.8,9.7-10.6,21.6-10.7,34.8
		c-0.1,14,4.9,25.9,10.9,35.2c-25.2-4.5-48.6-11.3-69.9-20.2c0.4-2.2,0.9-4.4,1.4-6.6C179.7,377.7,181.6,369.4,183.7,360.8z
		 M243.4,307.4c1.8,2.7,3.6,5.4,5.5,8c-0.7,0.1-1.3,0.2-2,0.4c-2,0.4-4,0.8-6,1.2C240.8,313.7,241.6,310.3,243.4,307.4z M486.5,97.2
		c2.9,3,5.7,6,8.4,9.1c-1.3,0.7-2.4,1.5-3.6,2.3c-4.7,3.8-8,9.4-9.8,13.2c-4.5-0.8-11.7-1.2-18,1.8c-6.7,3.3-10.6,10-12.5,14.3
		c-4.3,0-11.3,1-16.9,5.5c-2.2-5.1-4.4-10-6.6-14.5C442.9,110.5,464.9,98.7,486.5,97.2z M552,308c1.5,2.7,2.2,5.6,2.2,8.6
		c-2.4-0.5-4.8-0.9-7.2-1.3C548.7,312.9,550.4,310.4,552,308z M616.5,386c0.4,2.3,0.8,4.6,1.2,6.9c-23.4,8.6-45.9,14.9-67.9,19.2
		c5.9-9.3,10.8-21,10.6-34.8c-0.1-13.3-4.9-25.3-10.9-35.1c21.7,4.2,42.3,10.2,61.5,17.9C613.2,369.3,615,378,616.5,386z
		 M283.3,404.6c-4.5,2.6-9.7,5.6-14,9.1c-7.2-7.5-16.8-20.5-16.6-36.3c0.1-14.7,8.7-28.3,15.9-36.9c3.6,3.3,8.8,7.2,14.9,11.2
		c3.7,2.4,7.5,4.8,11.5,7.1c-9.6,0.2-19,2.9-25.3,6.9c-6.9,4.3-8.4,8.8-8.4,11.9c0,5.3,5.1,9.7,9.4,12.4c6.6,4.2,15.4,7.4,24.2,8.2
		C290.6,400.4,286.8,402.6,283.3,404.6z M396.7,126.6c4.4,6.9,10.7,19.1,17.7,37.2c7.6,19.5,13.7,40.4,18,60.8
		c-9.6-5.9-21.4-10.6-34.4-10.7c-0.1,0-0.3,0-0.4,0c-13.3,0-25,4.7-34.3,10.6C372.1,178.8,387.7,141.8,396.7,126.6z M402.1,495.7
		c-2.1,4.3-4,5.8-4.6,6.2c-1.3-0.7-4.5-4.3-7.3-10.7c-2.9-6.9-5-16.4-3-24.3c2.8,0.9,5.6,1.4,8.4,1.4c0.1,0,0.1,0,0.2,0
		c2.8,0,5.8-0.5,8.8-1.4C407.7,476.8,405.7,488.3,402.1,495.7z M391.9,264.2c2.7-6.4,5.9-10,7.2-10.7c0.7,0.4,2.6,1.9,4.6,6.1
		c3.7,7.7,5.7,20,2.1,30.1c-3-1-6-1.5-9-1.5c-0.1,0-0.1,0-0.2,0c-2.4,0-4.9,0.4-7.5,1C386.7,281.2,388.8,271.3,391.9,264.2z
		 M396.5,320c-0.6-1.8-1.3-3.7-1.9-5.5c0.7-0.3,1.5-0.4,2.2-0.4c0.4,0,0.9,0.2,1.5,0.5C397.7,316.4,397.1,318.2,396.5,320z
		 M351.7,332.7c0.3-0.3,0.7-0.5,1.2-0.8c0.9,1.8,1.8,3.6,2.8,5.4c-1.8-0.9-3.5-1.7-5.3-2.5C350.7,334,351.1,333.2,351.7,332.7z
		 M332.2,377.4c0-0.3,0.1-0.6,0.3-1c1.9,0.7,3.9,1.3,5.9,1.9c-1.8,0.6-3.7,1.3-5.5,2C332.5,379.3,332.2,378.2,332.2,377.4z
		 M355.2,419.4c-0.9,1.7-1.8,3.4-2.6,5.1c-0.8-0.4-1.6-0.9-2.2-1.4c-0.2-0.2-0.4-0.6-0.5-1C351.7,421.3,353.5,420.4,355.2,419.4z
		 M396.5,436.2c0.6,1.9,1.2,3.7,1.8,5.5c-0.8,0.3-1.7,0.5-2.5,0.5c-0.4,0-0.8-0.2-1.3-0.5C395.2,440,395.8,438.1,396.5,436.2z
		 M442.5,422.9c-0.6,0.6-1.5,1.1-2.4,1.5c-0.8-1.7-1.5-3.3-2.3-4.9c1.7,0.9,3.5,1.8,5.3,2.7C442.8,422.5,442.6,422.8,442.5,422.9z
		 M454.7,378.5c2-0.6,3.9-1.2,5.9-1.9c0,0.2,0,0.4,0,0.6c0,1-0.2,2.1-0.6,3.1C458.3,379.7,456.5,379.1,454.7,378.5z M437.3,337.6
		c1-1.9,1.9-3.9,2.8-5.9c0.4,0.2,0.8,0.5,1.1,0.7c0.6,0.6,1.2,1.6,1.6,2.5C440.9,335.9,439.1,336.7,437.3,337.6z M434.4,248.3
		c-3.3,3.8-7.2,9.3-11.3,15.8c-1.9,3-3.7,6-5.5,9.2c-0.7-8.3-3.3-16-6.7-21.6c-4.3-6.9-8.8-8.4-11.8-8.4l0,0
		c-5.3,0-9.7,5.1-12.4,9.4c-4.5,7-7.8,16.7-8.4,26.1c-2.6-5.2-5.2-10.2-7.7-14.8c-3.7-6.7-6.8-11.8-9.4-15.4
		c-0.2-0.3-0.4-0.5-0.6-0.8c8.3-7.6,21.9-17,37.1-17c0.1,0,0.2,0,0.3,0c15.6,0.1,29,9.5,37.1,16.8
		C434.7,247.9,434.5,248.1,434.4,248.3z M307.1,370.6c-0.6,2.3-0.9,4.7-0.9,7c0,3,0.6,6.3,1.6,9.6c-8.1,2.8-18.4,0.6-25.8-2.5
		c-6.4-2.7-10-5.9-10.7-7.2c0.4-0.7,1.9-2.6,6.1-4.6C285.1,369.2,297.1,367.2,307.1,370.6z M485.2,386.8c0.9-3.4,1.4-6.7,1.4-9.4
		c0-2.7-0.3-5.3-0.9-7.8c9.9-3.1,21.5-1.1,28.9,2.5c4.3,2.1,5.8,4,6.2,4.6c-0.7,1.3-4.3,4.5-10.7,7.3
		C503,387,493.1,389.1,485.2,386.8z M464.8,321.1c-1.5-2.6-3.2-4.9-5.1-6.9c-2.1-2.1-4.6-4-7.4-5.4c4.9-9.1,14.4-15.8,22.1-18.5
		c4.6-1.6,7-1.3,7.6-1.1c0.4,1.5,0.2,6.2-2.5,12.7C476.9,308.9,471.7,317,464.8,321.1z M333.1,314.4c-2,2-3.8,4.5-5.3,7.2
		c-7.4-3.9-13-12.5-15.9-19.7c-2.6-6.4-2.9-11.2-2.5-12.7c0.7-0.2,3.2-0.5,7.6,1.1c7.9,2.8,17.7,9.8,22.5,19.2
		C337.2,310.9,335,312.5,333.1,314.4z M327,434.6c1.4,2.7,3.1,5.1,5.1,7.1c1.9,1.8,4.2,3.6,6.7,5c-4.7,9.4-14.6,16.4-22.5,19.2
		c-4.6,1.6-7,1.3-7.6,1.1c-0.4-1.5-0.2-6.2,2.5-12.7C314.1,447,319.7,438.5,327,434.6z M338,536.3c-3.3-0.9-6.2-2.9-8.4-5.4
		c2.2-1.5,4.3-2.9,6.5-4.5C336.7,529.7,337.4,533,338,536.3z M370.3,491.4c2-3.6,4.2-7.6,6.5-12c1,8.5,4.1,16.9,8.1,23.2
		c2.7,4.3,7.1,9.4,12.4,9.4l0,0c3,0,7.5-1.5,11.8-8.4c3.7-6,6.4-14.6,6.8-23.6c2.3,3.9,4.7,7.7,7.1,11.4c4,6,7.6,11.1,11.2,15
		c-8.3,6.7-21.6,15-36.9,15.1c-0.1,0-0.2,0-0.3,0c-15.4,0-28.3-8.5-36.2-15.2C364.5,501.7,367.6,496.2,370.3,491.4z M459.6,526.3
		c2.3,1.6,4.6,3.2,6.8,4.7c-2.3,2.6-5.3,4.5-8.8,5.4C458.3,533.1,459,529.7,459.6,526.3z M460.7,441.5c1.9-1.9,3.5-4.1,4.9-6.4
		c6.9,4.1,12.2,12.3,14.9,19.2c2.6,6.4,2.9,11.2,2.5,12.7c-0.7,0.2-3.2,0.5-7.6-1.1c-7.8-2.7-17.5-9.6-22.3-18.9
		C456,445.4,458.6,443.5,460.7,441.5z M521.5,389.3c4.3-2.7,9.4-7.1,9.4-12.4c0-3-1.4-7.5-8.4-11.9c-5.7-3.6-13.8-6.1-22.3-6.8
		c3.6-2,7.2-4.2,10.5-6.3c6.6-4.1,12.1-8,15.9-11.3c0.2-0.1,0.4-0.3,0.6-0.5c7.3,8.6,16.1,22.3,16.2,37.2c0.1,16.1-9.7,29.2-17,36.7
		c-0.1,0-0.1-0.1-0.2-0.1c-3.6-2.6-8.7-5.7-15.4-9.4c-4-2.2-8.5-4.5-13.5-7C506.1,396.6,514.9,393.5,521.5,389.3z M514.8,312.3
		c-4.6,0.6-10.4,1.9-18,4c-5.2,1.4-11.1,3.2-17.4,5.3c6.1-7,10.4-16,12.1-23.9c1.1-5,1.6-11.6-2.1-15.4c-2.1-2.1-6.3-4.3-14.3-2.5
		c-6.3,1.5-13.6,5.1-19.9,10.4c1.4-4.3,2.6-8.4,3.6-12.1c2.1-7.5,3.4-13.4,4.1-17.9c0.1-0.4,0.1-0.7,0.1-1.1
		c10.8,0.5,27.1,3.4,38.3,14.4c11,10.8,14,27.4,14.5,38.7C515.3,312.2,515,312.2,514.8,312.3z M459.6,228c-0.6-3.1-1.2-6.2-1.8-9.2
		c3.1,0.9,5.8,2.6,7.9,4.9C463.6,225.1,461.6,226.5,459.6,228z M336,228.4c-2.1-1.6-4.3-3.1-6.5-4.7c2.2-2.4,5.1-4.2,8.3-5.1
		C337.2,221.9,336.6,225.1,336,228.4z M332.3,259.1c0.2,5.5,1.3,12.2,2.9,19.9c0.9,4.2,1.9,8.5,3.1,12.8c-6.7-6.2-14.8-10.4-21.7-12
		c-8-1.8-12.2,0.3-14.3,2.5c-3.7,3.7-3.2,10.4-2.1,15.4c1.7,7.5,5.6,16,11.2,22.8c-4.6-1.5-9.2-2.9-13.4-4.2
		c-7.2-2.1-12.8-3.4-17.1-4c-0.1,0-0.1,0-0.2,0c0.4-11.3,3.4-28,14.5-38.8C305.8,262.7,321.5,259.7,332.3,259.1z M298.7,439.7
		c3.6-0.8,7.3-1.7,11-2.7c-5.1,6.6-8.7,14.5-10.3,21.6c-1.1,5-1.6,11.6,2.1,15.4c1.6,1.6,4.3,3.2,8.7,3.2c1.6,0,3.5-0.2,5.6-0.7
		c7.2-1.7,15.6-6.2,22.4-12.7c-1.1,4.2-2.2,8.4-3,12.4c-1.5,7.1-2.5,13.4-2.8,18.3c-10.6-0.9-26-4.3-36.9-15.4
		c-10.1-10.3-13.7-25.4-14.8-36.5C285.6,442.2,291.6,441.3,298.7,439.7z M462.7,494.2c-0.6-4.3-2-10-4.1-17.3
		c-1-3.6-2.3-7.5-3.7-11.8c6.5,5.7,14.2,9.7,20.9,11.3c2.1,0.5,4,0.7,5.6,0.7c4.5,0,7.2-1.6,8.7-3.2c3.7-3.7,3.2-10.4,2.1-15.4
		c-1.6-7.3-5.4-15.5-10.7-22.2c4.8,1.3,9.6,2.5,14.4,3.5c7.5,1.6,14,2.6,19.4,2.9c-1.1,11.1-4.6,26.2-14.8,36.5
		c-11.2,11.4-27.2,14.6-37.8,15.4C462.8,494.5,462.7,494.3,462.7,494.2z M556,437.4c-0.8,3.1-2.5,5.8-4.7,8
		c-1.4-2.1-2.8-4.2-4.3-6.3C550,438.5,553,438,556,437.4z M573.6,433.5c15.6-3.8,31.5-8.5,47.8-14.3c3.5,29.6,4,57.7,1.6,83.8
		c-1.6,0.9-3.3,1.5-5.1,1.9c-4.7,1-9.4-0.1-12.8-2.8c-2-1.6-4.9-1.4-6.7,0.4c-3.1,3.1-7.7,5.6-12.5,6c-5.4-12-13.8-29.3-25.5-48.6
		C568.4,453.7,573.4,444.1,573.6,433.5z M596.7,535.4c-1.8-5.5-4.1-11.3-6.6-17.5c4.4-0.9,8.6-2.8,12.4-5.6
		c5.1,2.8,11.3,3.6,17.4,2.4c0.7-0.1,1.3-0.3,2-0.5c-0.9,6.9-1.9,13.7-3.2,20.3C611.6,535.6,604.2,535.8,596.7,535.4z M567.4,227
		c-11.2,24.3-23.4,46.4-37.1,66.8c-2.5-11-7.5-22.8-17.2-32.4c-9.3-9.1-21-14.1-31.9-16.8c13.5-9.1,28.5-16.5,42.9-23.7
		c12.9-6.4,23.8-11,34-14.4C561.3,213.3,564.4,220.1,567.4,227z M366.6,128c-2,4.3-4.1,9-6.1,13.9c-5.7-4.9-12.9-5.9-17.4-5.9
		c-1.9-4.3-5.7-11-12.5-14.3c-6.2-3.1-13.4-2.6-18-1.8c-1.8-3.8-5.1-9.5-9.8-13.2c-1.3-1-2.6-1.9-4.1-2.6c2.1-2.4,4.2-4.7,6.3-7
		C330.3,97.1,352.1,111.6,366.6,128z M292.1,112c1.6,0.6,3.2,1.4,4.5,2.4c4.4,3.5,7.5,10.5,8.3,12.9c0.9,2.6,3.7,3.9,6.3,3.1
		c2.4-0.8,9.9-2.2,15,0.3c4.9,2.4,7.9,9.4,8.7,11.9c0.7,2.4,3.1,3.9,5.5,3.6c0.1,0,10.8-1.4,15.5,5.6c0.2,0.2,0.3,0.5,0.5,0.7
		c-4.3,11.6-9.9,28.4-14.7,48.6c-10.8,0.2-20.5,5.4-26.7,13.6c-6-3.6-11.5-6.8-16.9-9.8c-11.1-6.2-21.8-11.5-32-15.9
		c1-5.8,5.8-10.4,5.9-10.4c1.9-1.7,2.2-4.5,0.8-6.5c-1.4-2-5-8.9-3.7-14.3c1.3-5.5,7.2-10.4,9.3-11.7c2.3-1.5,3-4.5,1.6-6.8
		c-0.7-1.1-1.9-3.6-3-6.4C281.8,125.5,286.9,118.5,292.1,112z M262.3,174.1c-2,2.5-4.5,6.3-5.7,10.9c-2.8-1.1-5.7-2.2-8.5-3.2
		c3.4-6.7,7-13.3,10.6-19.8C259.1,167,260.8,171.3,262.3,174.1z M221.5,433.8c0.2,10.7,5.5,20.4,13.6,26.5
		c-11.4,19-19.6,36-24.8,47.8c-4.1-0.3-8.3-2.3-11.7-5.7c-1.3-1.3-3.2-1.8-4.9-1.3c-1.5,0.4-3,0.9-4.5,1.4
		c-5.2,1.7-10.1,3.4-13.9,1.9c-3.2-2-5.6-3.7-7.2-5.9c-1.4-25.1-0.1-52,4-80.2C187.7,424.6,204.2,429.7,221.5,433.8z M175.7,551.4
		c5.5,0.8,11.1,1.2,16.8,1.2c0.9,0,1.7,0,2.6,0c-0.2,1.2-0.4,2.4-0.6,3.6c-5.9,0.4-11.6,0.8-17.3,1
		C176.6,555.2,176.2,553.3,175.7,551.4z M221.1,554.9c4.2-17.6,19.2-56.2,45.4-95.6c2.8,10.9,7.8,22.5,17,31.7
		c9.6,9.8,21.5,15,32.3,17.8C276.5,535.2,238.5,550.6,221.1,554.9z M238.6,576.8c5.7-1.9,11.9-4.2,18.5-6.9c1.3,4,3.5,7.3,5.3,9.5
		c-2.1,4.2-4.9,11.5-3.1,18.8c1.6,6.8,6.5,12,10,15c-1.8,3.9-4.1,10-4,16c0,1.3,0.1,2.6,0.4,3.9c0.7,4,2.4,7.8,4.8,11.1
		c3.2,4.3,6.7,6.8,10.7,7.7c1.1,0.3,2.3,0.4,3.4,0.5c0.7,0.1,1.4,0.1,2.2,0.1c1.5,0,3.1-0.1,4.6-0.4c4.3-0.7,8.3-2.5,11.6-5.1
		c4.7-3.8,8-9.4,9.8-13.2c4.5,0.8,11.7,1.2,18-1.8c6.7-3.3,10.6-10,12.5-14.3c4.6,0,12-1,17.7-6.2c2.3,5.5,4.6,10.6,6.9,15.3
		c-24,29.4-58.7,40.8-88,28.3C252.3,643.4,236.4,612.6,238.6,576.8z M480.3,508.9c10.9-2.7,22.8-8,32.4-17.8
		c9-9.2,14.1-20.7,16.9-31.5c25.9,39.1,41.5,78.1,46,96C557.9,551.1,519.6,535.5,480.3,508.9z M546.3,183.1c-2.9,1-5.9,2.1-8.9,3.3
		c-1.3-4.3-3.6-7.8-5.5-10.2c1.5-3,3.3-7.5,3.6-12.5c1.3,2.3,2.6,4.5,3.9,6.7C541.8,174.6,544.1,178.8,546.3,183.1z M427.4,56.7
		c-11.2,9.9-21.2,20.7-30.8,31.6c-0.4-0.5-0.9-1-1.3-1.5c-7.5-8.6-17.9-20.1-30.5-30.9c9.7-3.2,19.6-4.9,29.9-4.9
		C406.1,50.9,417,53,427.4,56.7z M221.1,640.3c-3.1-17.6-2-35.7-0.8-54.8c0.1-1.3,0.2-2.7,0.3-4c0.3,0,0.6-0.1,0.9-0.2
		c-0.7,40.6,18.9,75.4,51.7,89.4c10.1,4.3,20.7,6.4,31.4,6.4c25.8,0,51.7-12.2,72-34.4c1.2,1.9,2.5,3.9,3.9,5.7
		c-16,18.8-33.9,36.9-55.7,49.4C281.7,688.1,247,669,221.1,640.3z M362.1,703.4c13.4-10.9,25.2-23.2,36-35.8
		c10.7,12.2,22.2,24.2,35.4,35.2c-12.4,1.4-25.3,2.1-38.8,2.1C383.5,704.9,372.6,704.4,362.1,703.4z M469.3,696.7
		c-0.3-0.2-0.6-0.4-0.9-0.6C447.7,683,431,665.8,416,648.4c1.1-1.5,2.2-3.1,3.2-4.7c20.1,21.6,45.7,33.4,71,33.4
		c10.6,0,21.2-2.1,31.4-6.4c32.7-13.9,52.3-48.5,51.7-89c1.2,0.3,2.5,0.5,3.7,0.7c1.1,16.1,1.8,31.5,0.5,46.9c0,0.2,0,0.4,0,0.5
		c-1.1,1.5-2.3,2.9-3.5,4.3C548.2,665.1,513.1,686,469.3,696.7z"/>
</g>
<g id="_x32__1_">
	<path class="st4" d="M638.1,382.1c-9.4-51.2-30.9-126-64.7-194.3c-0.2-0.5-0.4-0.9-0.7-1.4c-4.5-9-9.2-18-14.1-26.7
		c-22.1-39.2-46.1-70.2-71.3-92.1c-29.5-25.7-60.7-38.7-92.5-38.7s-62.5,13-91.2,38.7c-24.3,21.7-47.4,52.7-68.7,92
		C188.6,245,164.6,342.9,156.5,381c-23.5,109.6-9,203.8,40.9,265.5c20.7,25.6,47.4,45.5,79.3,58.9c33.6,14.2,73.4,21.4,118.1,21.4
		c86.6,0,152.6-26.4,196.1-78.6C641.6,587.4,658.3,492.9,638.1,382.1z M616.9,562.3c-6-0.3-12.1-0.7-18.1-1.2c-0.2,0-0.4,0-0.6,0
		c-0.3-3.2-0.9-7.3-2.2-12.3c2.6,0.2,5.1,0.3,7.7,0.3c5.8,0,11.5-0.4,17.1-1.3C619.7,552.7,618.4,557.6,616.9,562.3z M516.3,658.3
		c-31.3,13.3-68.2,0.9-93.3-30.8c2.9-5.9,6.1-13.1,9.5-21.9c4.6-11.7,11.5-31.2,17.4-55.3c1.1,0.1,2.3,0.1,3.5,0.1
		c11.4,0,21.6-6.3,26.8-15.8c23,14.4,43.2,24.1,55.4,29.4c8.5,3.7,16.5,6.8,23.6,9.2C562.9,611.9,546,645.6,516.3,658.3z
		 M398.3,636.3c-4.2-5.3-11.9-18.3-20.8-41.4c-9.1-23.6-16.2-49.5-20.5-74.5c10,7.3,24,14.5,40.2,14.5c0.1,0,0.3,0,0.4,0
		c16.6-0.1,31.2-7.6,41.4-15C429,576.5,407.7,624.2,398.3,636.3z M214.1,246.1c7.5,16.3,15.7,31.7,24.7,46.3
		c-0.8,0.7-1.6,1.5-2.5,2.3c-8,8-10.7,19.4-7.9,29.8c-13.8,3.5-28.4,7.9-44,13.3C191.5,311.7,201.2,279.6,214.1,246.1z M233.6,200.1
		c30.6,10.2,61,25.7,90.8,46.2c-12.4,1.6-27.4,6.1-38.9,17.5c-12,11.8-16.5,28.1-18,41.1c-17.1-23.9-32-51-44.5-80.8
		C226.3,216.1,229.8,208.1,233.6,200.1z M480.1,84.1c-22.5,3.1-44.2,15.8-62,36.5c-3.6-6.3-6.7-10.7-9.5-13.8
		c13.1-15.5,27.6-31,44.4-43.3C462.6,69.3,471.6,76.3,480.1,84.1z M396.6,118.6c4.2,5.2,12.1,18.4,21.3,41.8
		c5.6,14.3,14.9,40.9,20.8,72.8c-10-7.8-24.1-15.7-40.7-15.8c-0.1,0-0.3,0-0.4,0c-16.2,0-30.4,7.8-40.5,15.7
		C366.8,175.4,387.6,130.2,396.6,118.6z M610.6,337.5c-13.9-4.9-28.6-9.3-44.1-12.9c2.9-10.4,0.1-21.9-7.9-29.9
		c-0.8-0.8-1.5-1.4-2.2-2.1c8.3-13.2,15.7-26.2,22.3-39.3c0.9-1.8,1.8-3.6,2.6-5.4C593.6,279,603.4,309.8,610.6,337.5z M623.2,537.3
		c-9.7,1.9-19.8,2.3-30.1,1.3c-2.2-6.6-5.2-14.4-9.2-23.7c-5.3-12.4-14.9-32.7-29-55.5c9.2-5.4,15.1-15.3,15.1-26.4
		c0-1.1,0-2.1-0.1-3.1c14.1-3.2,27.8-7,41.2-11.5c4.9-1.6,9.7-3.4,14.5-5.2C631.5,458.4,630.6,500.3,623.2,537.3z M246,451.3
		c-6.6-3.5-11.1-10.4-11.1-18.3c0-0.4,0-0.9,0-1.2c7.2,1.5,14.4,2.8,21.6,4C252.8,440.9,249.3,446.1,246,451.3z M179.3,357.8
		c28.2-10.4,52.7-17.4,75.4-21.6c-7.7,10.1-15.5,24.4-15.6,41.1c-0.1,17.3,8.2,31.4,16.2,41c-23.7-3.9-47.2-10-70.2-18.2
		c-5-1.8-9.6-3.6-14.1-5.4c0.6-3.3,1.3-6.7,2.1-10.1C174.6,377.6,176.7,368.5,179.3,357.8z M243.4,301.8c0.3-0.3,0.5-0.5,0.8-0.8
		c3.9,6.1,8,11.9,12.2,17.7c-6,1-12,2.2-18.2,3.5C236.1,315.1,237.9,307.2,243.4,301.8z M292.5,270.9c13-12.8,32-15.3,43.3-15.5
		c-0.2,5.4,0.7,12.7,2.8,22.8c2.3,10.9,5.5,22.4,9.1,32.6c-4.3,1.3-8.4,3.6-11.5,6.7c-3.1,3.2-5.8,7.7-7.3,12.7
		c-10.2-3.7-22.1-7.7-32.2-10.6c-6.7-1.9-13.9-4-19.9-4.3C276.9,304.2,278.9,284.2,292.5,270.9z M551,301.1c0.2,0.2,0.4,0.4,0.6,0.6
		c5.5,5.5,7.3,13.5,5.1,20.6c-5.9-1.3-11.9-2.4-18-3.5C543,312.9,547.1,307,551,301.1z M621.3,385.1c0.7,3.6,1.3,7.2,1.9,10.8
		c-5.7,2.2-11.5,4.4-17.4,6.4c-20.8,7-42.5,12.4-65,16c8-9.6,16.2-23.7,16.1-40.9c-0.1-16.5-7.7-30.6-15.3-40.7
		c26.9,5.1,51.7,12.1,74,20.8C617.8,367.3,619.8,376.5,621.3,385.1z M269.1,418.5c-7.7-7.3-20.1-22.1-19.9-41.2
		c0.1-17.6,11.3-33.3,19.2-41.9c3.6,3.8,9.1,8.2,17.1,13.4c9,5.9,19.1,11.6,28.8,16.3c-2.2,3.9-3.5,8.3-3.4,12.5
		c0,4.6,1.5,9.8,4,14.5c-11.1,5.3-21.5,10.8-29.7,15.6C278.8,411.3,273,414.8,269.1,418.5z M330.2,385c-1.3-2-2.5-5.1-2.5-7.6
		c0-1.7,1-3.9,2.3-5.6c6.7,2.4,13.8,4.5,20.7,6.3C343.9,380,336.9,382.3,330.2,385z M463.5,371.8c1,1.5,1.6,3.5,1.6,5.4
		c0,2.7-1.1,5.9-2.3,7.9c-6.7-2.7-13.7-5-20.5-6.9C449.4,376.5,456.7,374.3,463.5,371.8z M460.6,354.7c-8.4,3.3-17.9,6-27,8.2
		c8.4-5,17.6-9.8,26.8-13.2c12-4.4,23-8.1,32.3-11C483.1,344.5,471.5,350.4,460.6,354.7z M428.7,346.1c3.5-6.2,6.9-12.8,9.8-19.6
		c2.2,0.4,4.5,1.4,5.8,2.8c1.9,1.9,3.1,5,3.4,7.3C441.2,339.4,434.8,342.7,428.7,346.1z M425.2,314.2c-3.4,9.2-8.2,18.5-13.2,26.8
		c2.2-9.1,4.9-18.6,8.2-27c4.3-10.9,10.2-22.4,15.9-32.1C433.3,291.2,429.6,302.1,425.2,314.2z M396.6,332.4
		c-1.9-6.8-4.1-13.8-6.9-20.5c1.9-1.2,4.6-2.3,7-2.3l0,0c1.8,0,4.2,1.1,6,2.5C400.5,318.7,398.4,325.6,396.6,332.4z M371.7,312.8
		c4.1,8.9,7.3,18.8,9.7,28.3c-4.9-8-9.6-16.6-13.2-24.9c-4.6-10.6-8.4-22.9-11.1-33.7C360.9,290,365.7,299.9,371.7,312.8z
		 M354.2,326.7c3,6.5,6.6,13.1,10.3,19.3c-6.1-3.5-12.7-6.9-19.4-9.7c0.4-2.2,1.6-5,3.4-6.8C349.7,328.2,352,327.1,354.2,326.7z
		 M332.6,349.6c9.2,3.4,18.5,8.2,26.8,13.2c-9.1-2.2-18.6-4.9-27-8.2c-11.4-4.5-22.3-10.3-31.3-15.9
		C309.1,341.2,319.3,344.7,332.6,349.6z M331.1,403.1c8.9-4.1,18.9-7.3,28.3-9.7c-8,4.9-16.6,9.6-24.9,13.2
		c-10.9,4.8-22.8,8.6-33.1,11.2C309.7,413.4,319.8,408.3,331.1,403.1z M364.3,410.4c-3.7,6.3-7.3,12.9-10.3,19.4
		c-2.2-0.4-5-1.7-6.8-3.5c-1.2-1.2-2-3.5-2.2-5.7C351.5,417.6,358.1,414,364.3,410.4z M368,440c3.6-8.3,8.4-16.9,13.3-24.9
		c-2.4,9.4-5.6,19.4-9.7,28.3c-5.4,11.6-10.3,21.7-14.6,29.7C359.6,462.7,363.4,450.6,368,440z M396.6,423.8
		c1.8,6.9,3.9,13.9,6.3,20.5c-1.8,1.3-4.6,2.4-7.1,2.4l0,0c-1.7,0-4.1-1.1-5.9-2.6C392.5,437.5,394.7,430.6,396.6,423.8z
		 M420.2,442.1c-3.3-8.4-6-17.9-8.2-27c5,8.4,9.8,17.6,13.2,26.8c4.9,13.2,8.4,23.4,11,31.4C430.3,464,424.3,452.7,420.2,442.1z
		 M438.5,429.7c-2.8-6.5-6.1-13-9.5-19c6.1,3.6,12.5,7.1,18.9,10c-0.2,2.1-1.1,4.2-2.3,5.4C443.8,427.9,440.9,429.2,438.5,429.7z
		 M458.5,406.9c-8.3-3.6-16.9-8.4-24.9-13.2c9.4,2.4,19.4,5.6,28.3,9.7c13,6,22.9,10.8,30.4,14.7
		C481.4,415.3,469.1,411.5,458.5,406.9z M478.3,392.2c2.4-4.7,3.7-10.1,3.8-14.8c0-4.3-1-8.5-2.9-12.2c9.8-4.6,20.3-10.3,29.6-16.2
		c8.2-5.1,14.5-9.6,18.6-13.8c7.9,8.5,19.3,24.4,19.5,42.2c0.2,19.2-12.5,34.1-20.2,41.4c-4.6-4.1-11.3-7.8-17.6-11.2
		C501.1,403.2,490.8,398.1,478.3,392.2z M519.1,315.4c-6.4,0.1-14.1,2.3-21.4,4.3c-9.5,2.6-21.5,6.5-33.8,10.8
		c-1.4-5.1-4.1-9.8-7.4-13.1c-3.2-3.2-7.4-5.6-11.9-6.9c4.3-12.2,8.1-24,10.7-33.3c2.1-7.4,4.3-15.3,4.3-21.7
		c11.2,0.1,30.7,2.5,43.9,15.5C517.1,284.3,519.1,304.2,519.1,315.4z M426,266c-6,9.5-11.8,20.2-16.5,30.2c-4-2.3-8.6-3.6-12.9-3.6
		c-4.4,0-9.4,1.3-13.9,3.7c-4.7-9.9-10.2-21.3-15.4-30.6c-3.6-6.5-7.4-13.5-11.7-18.1c7.9-7.9,23.2-20.2,41.9-20.2
		c0.1,0,0.2,0,0.3,0c18.5,0.1,33.9,12.3,42,20.1C435.9,251.2,431.5,257.2,426,266z M277.4,439.2c5,0,11.7-1,20.5-3
		c10.1-2.3,21.1-5.5,31.1-9.1c1.2,4.4,3.3,8.4,6.3,11.3c3.7,3.6,8,5.9,12.2,7.2c-3.6,10-6.7,21-8.9,31.2c-2,9.2-3,16.1-2.8,21.3
		c-11-0.5-29.8-3.5-42.8-16.6c-12.1-12.3-15.4-30.6-16-42.3C277.1,439.2,277.3,439.2,277.4,439.2z M343.5,540.4c-0.3,0-0.5,0-0.8,0
		c-8,0-15.1-4.6-18.5-11.4c5-3.3,10-6.8,15.1-10.5C340.5,526.1,341.9,533.4,343.5,540.4z M367.3,489.7c4.5-7.9,10-18.5,15.4-29.8
		c4.1,2.4,8.7,3.9,13,3.9c0.1,0,0.1,0,0.2,0c4.4,0,9.3-1.3,13.7-3.6c4.7,9.7,10.5,20.1,16.5,29.2c5.3,8,9.6,13.6,13.4,17.2
		c-8.3,7.3-23.7,18.2-42,18.3c-0.1,0-0.2,0-0.4,0c-18.3,0-33.2-11.1-41.1-18.4C360.2,502.1,363.9,495.5,367.3,489.7z M456.4,518.5
		c5.2,3.8,10.4,7.4,15.4,10.7c-3.4,6.8-10.4,11.3-18.4,11.3c-0.4,0-0.8,0-1.2,0C453.7,533.4,455.1,526.1,456.4,518.5z M459.6,498.3
		c-0.2-6.1-2.4-13.5-4.4-20.4c-2.5-8.6-6.1-19.4-10.7-32.2c4.5-1.3,9.1-3.7,12.9-7.5c3-3,5.2-6.9,6.4-11.1
		c10.2,3.6,21.8,6.9,32.7,9.2c8.5,1.8,15.5,2.9,21,2.9c0.5,0,1,0,1.4,0c-0.6,11.7-3.9,30.1-16,42.4
		C489.8,495.1,470.6,497.9,459.6,498.3z M560.1,432c0,0.3,0,0.6,0,1c0,7.6-4.2,14.4-10.5,18c-3.3-5-6.7-10.1-10.4-15.2
		C546.2,434.7,553.2,433.4,560.1,432z M572.5,226.5c-2.7,6.4-5.7,12.8-9,19.2c-9.7,19.3-21.3,38.5-35.1,58.3
		c-1.6-12.9-6.2-28.6-17.9-40.1c-11.6-11.4-26.8-15.9-39.2-17.5c30.6-21.1,60.1-36,89.6-45.3C565,209.5,568.9,217.9,572.5,226.5z
		 M456.4,236.1c-1.2-7.4-2.6-14.6-4.2-21.5c0.2,0,0.4,0,0.7,0c8,0,15,4.5,18.4,11.3C466.3,229.2,461.4,232.5,456.4,236.1z
		 M339.3,236c-5.1-3.6-10.2-7.1-15.3-10.4c3.5-6.6,10.4-11,18.2-11c0.4,0,0.7,0,1,0C341.8,221.4,340.4,228.6,339.3,236z
		 M179.4,416.1c15,5.4,30.3,9.9,45.6,13.5c-0.1,1.1-0.1,2.2-0.1,3.4c0,11.4,6.2,21.5,15.7,26.8c-13.8,22.5-23.1,42.6-28.3,54.8
		c-3.6,8.6-6.7,16.7-9,24c-12.5,1.2-24.7,0.4-36.1-2.6c-6.6-37.1-6.5-79,0.7-124.2C171.7,413.2,175.5,414.6,179.4,416.1z
		 M169.5,546.7c7.4,1.6,15.1,2.3,23,2.3c2.7,0,5.3-0.1,8-0.3c-0.1,0.2-0.1,0.4-0.2,0.7c-1,4.2-1.6,7.7-1.8,10.8
		c-8.3,0.6-16.8,1.2-25.2,1.4C171.9,556.8,170.6,551.8,169.5,546.7z M215.5,560.6c0.8-6.7,4.6-21.5,14.7-44.5
		c6.3-14.2,18.8-39.9,37.7-67c1.7,12.5,6.4,27.7,17.9,39.4c11.7,11.9,27.4,16.8,40,18.7C277.7,541.5,230.2,558.8,215.5,560.6z
		 M235.4,573.2c6.9-2.2,15.2-5.2,25.2-9.6c12.1-5.3,32.2-14.8,55.1-29.2c5.2,9.6,15.4,16,26.9,16c1.1,0,2.1,0,3.1-0.1
		c6,24.6,13.2,44.2,17.9,56c3.2,7.9,6.2,14.5,8.9,20c-25.1,32.5-62.5,45.3-94.2,31.9C248.6,645.6,231.8,611.9,235.4,573.2z
		 M470.1,507.4c12.6-1.9,28.4-6.8,40.1-18.7c11.4-11.6,16.1-26.8,17.9-39.2c18.9,27,31.6,52.8,38,67.1
		c10.4,23.1,14.4,38.1,15.2,44.9C566.3,559.4,518.5,541.9,470.1,507.4z M598.3,578.2c4.3,0.3,8.6,0.6,13,0.9
		c-3.4,8.9-7.2,17.4-11.5,25.4C599.6,595.7,599,586.9,598.3,578.2z M543.8,168c3.3,5.8,6.4,11.7,9.5,17.7
		c-24.4,8-48.7,19.5-73.5,34.9c-5.2-9.6-15.4-15.9-26.9-15.9c-1.1,0-2.1,0-3,0.1c-6.1-24.3-13.4-44-18.3-55.9
		c-3-7.2-5.7-13.4-8.3-18.6c18.8-23.3,42.5-36.5,66.5-36.8C511.4,115.8,529.6,143,543.8,168z M436.5,54.8
		c-15,12.1-28.1,26.1-40,40.2c-12.5-14.3-25.4-28.7-40.9-41c12.9-5.3,26-8,39.2-8C409.4,45.9,423.3,49.2,436.5,54.8z M338.7,62.5
		c17.4,12.5,31.3,27.9,45.5,44.4c-1.9,2.3-3.9,5.1-6,8.6c-0.6,1-1.3,2.1-1.9,3.3C358.6,99,336,86.5,313.1,83.9
		c-0.6-0.1-1.3-0.1-1.9-0.2c1.2-1.1,2.4-2.3,3.7-3.4C322.7,73.3,330.7,67.4,338.7,62.5z M301.4,93.5c3.5-0.2,7-0.1,10.6,0.3
		c21.3,2.4,43,15.2,59.4,34.5c-2.9,6-5.8,12.7-8.6,20c-4.6,11.8-11.5,31.5-17.4,56.4c-1-0.1-2.1-0.1-3.2-0.1
		c-11.3,0-21.4,6.2-26.7,15.6c-24.5-15.1-49.4-27-74.5-35.5c2.8-5.7,5.8-11.3,8.8-16.9C266.1,137.6,283.4,112.7,301.4,93.5z
		 M178.7,578.5c6.9-0.3,13.8-0.7,20.6-1.2c-0.1,2.2-0.3,4.3-0.4,6.5c-0.7,11.1-1.4,22.3-1.3,33.7C190,605.5,183.8,592.5,178.7,578.5
		z M216.9,643.3c0-0.4-0.1-0.7-0.1-1.1c-3.5-18.6-2.3-37.4-1-57.3c0.2-2.5,0.3-4.9,0.5-7.4c2.5-0.2,5.4-0.7,8.9-1.4
		c-2.6,41.5,16.5,77.5,49.3,91.5c9.7,4.1,19.8,6.1,30,6.1c26.4,0,53.1-13.4,73.2-37.6c3.2,5.5,6,9.4,8.4,12.2
		c-0.5,0.5-0.9,1.1-1.4,1.6c-17.3,19.7-35.2,40.1-58.3,52.2c-0.5,0.3-1,0.6-1.5,1C280.1,693.2,243.9,673.2,216.9,643.3z
		 M350.1,707.2c18.2-13,33-29.8,47.4-46.2c0.1-0.2,0.3-0.3,0.4-0.5c2.4,2.8,4.8,5.6,7.2,8.4c13.9,15.7,26.9,27.9,40.1,37.5
		c-15.9,2.3-32.7,3.5-50.4,3.5C379.2,709.9,364.3,709,350.1,707.2z M577.8,637.4c-26.8,32.1-63.1,53.6-108.5,64.4
		c-16.9-9.7-33.3-23.8-51.4-44.2c-2.5-2.8-5-5.8-7.4-8.6c-0.1-0.2-0.3-0.3-0.4-0.5c2.3-2.6,4.9-6.3,7.9-11.4
		c20,23.5,46.3,36.5,72.3,36.5c10.2,0,20.3-2,30-6.1c32.8-13.9,51.9-49.8,49.4-91.3c0.3,0.1,0.5,0.1,0.8,0.2c4.2,1,7.8,1.7,10.9,1.9
		c1.4,17.9,2.4,36.2,0.5,53.8c0,0.1,0,0.1,0,0.2C580.5,634.1,579.2,635.7,577.8,637.4z"/>
</g>
<g id="_x31_">
	<path class="st5" d="M634.6,382.7c-9.3-50.9-30.7-125.3-64.3-193.2c0,0,0,0,0-0.1c-0.2-0.6-0.5-1.2-0.9-1.7
		c-4.4-8.9-9.1-17.7-14-26.4c-33.2-58.8-88-129-160.7-129c-19.4,0-38.5,5-57,15c-0.1,0.1-0.3,0.1-0.4,0.2
		c-10.7,5.9-21.3,13.4-31.6,22.6c-24,21.5-46.9,52.1-68,91.1c-36.1,66.7-58.6,141.2-70.5,188.5c0,0.1,0,0.1,0,0.2
		c-3.2,12.8-5.7,23.6-7.4,31.7c-23.3,108.5-9,201.7,40.2,262.6c1.4,1.7,2.9,3.5,4.3,5.2c0.1,0.1,0.1,0.1,0.2,0.2
		c19.7,22.6,44.3,40.3,73.4,52.5c14.5,6.1,30.3,11,47.1,14.4c0.3,0.1,0.5,0.1,0.8,0.2c21.3,4.3,44.3,6.5,68.9,6.5
		c26.5,0,51.1-2.5,73.6-7.5c0.6,0,1.1-0.2,1.7-0.4c49.4-11,89-34.3,118.2-69.3C638.2,586,654.7,492.5,634.6,382.7z M585,565
		c-4.4,0.4-19.9-2.6-47-14.7c-16.6-7.5-49-23.6-81.9-48.9c0.5-4.8-1.2-12.2-4.2-22.4c-2.7-9.4-6.8-21.4-12-35.8
		c5.7-0.8,11.5-3.8,15.1-7.4c3.5-3.4,5.6-8.2,6.2-13.2c11,4.1,23.9,7.9,36,10.4c9.6,2,16.1,2.8,20.6,2.8c1.7,0,3.1-0.1,4.3-0.3
		c24.6,32.3,40.5,64.8,47.9,81.6C582.4,544.8,585.3,560.6,585,565z M398.3,641.4c-3.4-2.7-12.5-15.6-23.3-43.2
		c-6.7-16.9-18.4-51-23.8-92c1.8-1.4,3.2-3.2,4.1-4.3c2.5-3.2,5.5-7.8,8.9-13.9c5-8.7,11.1-20.6,17-33.3c4.2,3.4,9.6,5.6,14.4,5.6
		h0.1c4.8,0,10.7-1.8,15.2-5.2c4.8,10.6,11.2,22.2,18,32.4c7.2,10.9,12.1,16.3,15.6,18.8c-5.4,40.2-16.9,74.2-23.3,91.1
		C410.4,625.8,401.6,638.6,398.3,641.4z M211.9,564.1c-0.4-4.3,2.3-20,14.3-47.5c7.3-16.7,22.9-49,47.4-81.2
		c1.1,0.2,2.3,0.3,3.8,0.3c4.3,0,10.6-0.8,19.8-2.9c11.3-2.5,23.6-6.3,34.4-10.4c0.6,5.2,2.8,10.2,6.2,13.5
		c3.5,3.4,8.9,6.3,14.4,7.2c-4.1,10.8-7.7,23.1-10.2,34.5c-2.7,12.5-3.1,19.6-2.4,23.8c-32.8,25.2-64.8,41.1-81.2,48.4
		C231.5,561.8,216.1,564.6,211.9,564.1z M213.6,237.8c10.8,26.4,26.4,52.8,49.3,83.4c-4.9,0.7-9.8,1.6-14.8,2.5
		c-21.4,4.1-46.4,11.1-68.6,19.3C187.1,313.9,198.3,276.6,213.6,237.8z M231.8,195.6c0.2,0.1,0.4,0.2,0.6,0.2
		c26.9,8.4,55.3,22.2,84.4,41c8,5.2,15.7,10.5,22.9,16c-0.7,4.3-0.3,11.6,2.5,24.7c2.5,12.1,6.3,24.9,10.4,35.8
		c-5.1,0.8-10.1,3.1-13.6,6.7c-3.5,3.5-6.4,9.1-7.2,14.9c-10.9-4-24.5-8.7-35.8-11.9c-10.1-2.9-17.4-4.5-22.2-4
		c-26.5-34.9-43.3-63.9-54.2-93.6c-0.1-0.3-0.3-0.6-0.5-0.9C223,214.8,227.3,205.2,231.8,195.6z M396.5,113.5
		c3.4,2.7,12.6,15.7,23.8,43.6c6.8,17,18.8,50.9,24.2,90.9c-3.5,2.6-8.3,8.3-15.6,19.8c-6.7,10.6-13.1,22.6-18,33.5
		c-4.2-3.2-9.5-5.3-14.3-5.2c-4.9,0-10.8,1.9-15.4,5.3c-5-10.6-11.3-23.6-17-34c-5.6-10.3-9.7-16.3-13.1-19.2
		c5.3-41.2,16.6-75,22.9-91.7C384.6,128.7,393.2,116.2,396.5,113.5z M576.4,226.6c-3,7.3-6.3,14.5-9.8,21.7
		c-11.7,23.8-26.7,47.6-44.5,70.7c-4.6-0.5-11.9,0.9-23.5,4.1c-10.4,2.9-23.8,7.2-37.4,12.1c-0.7-5.9-3.6-11.7-7.2-15.3
		c-3.6-3.6-8.8-6-14.1-6.7c4.9-13.5,9.1-26.7,12-36.8c3.2-11.5,4.6-18.8,4.1-23.4c7.4-5.7,15.4-11.2,23.7-16.5
		c28.8-18.3,56.7-31.6,83-39.6C567.6,206.7,572.1,216.6,576.4,226.6z M615.8,343.3c-24.6-8.7-53-17.6-82.8-22.1
		c16.9-22.4,31.2-45.4,42.6-68.5c2.2-4.4,4.2-8.8,6.2-13.2C596.4,275.6,607.8,311.7,615.8,343.3z M448,428.6
		c-2.9,2.9-8.2,4.9-11.8,4.7c-4.9-12-11.5-23.6-17.7-33.3c9.9,6.4,21.5,13.3,32.9,18.4C451.7,422.1,450.4,426.3,448,428.6z
		 M416.9,443.4c-5.8-14.7-9.8-32.7-12.3-46.1c7.9,11.4,17.9,27.5,23.8,43.5c10.9,29.4,15.2,44.5,16.8,52.1
		C437.4,483.3,424.5,462.7,416.9,443.4z M349.6,492.8c1.4-11.8,6.9-34.9,15.3-54.2c6.3-14.5,16.1-30,23.9-41.3
		c-2.5,13.7-6.8,32.1-13.9,47.6C364.1,468,355.1,484.6,349.6,492.8z M345.9,327.1c2.4-2.5,6.9-4.1,10.5-4
		c5.2,11.6,12.3,23.5,18.8,33.6c-9.8-6.3-21.6-13.1-33.7-18.1C341.1,335,343,330.1,345.9,327.1z M374.9,311.4
		c7.1,15.4,11.4,33.9,13.9,47.6c-7.7-11.3-17.6-26.8-23.9-41.3c-8.3-19.2-13.9-43.1-15.3-55.6C353.9,268.8,361.7,282.7,374.9,311.4z
		 M445.2,261.8c-2.2,10.5-7.9,29.7-16.8,53.6c-5.9,16-15.9,32.1-23.8,43.5c2.5-13.5,6.6-31.4,12.3-46.1
		C424.8,293.1,437.5,271.9,445.2,261.8z M451.2,338.9c-11.8,4.9-23.3,11.4-32.9,17.6c6.3-9.8,13.1-21.6,18-33.7
		c3.6-0.2,8.1,1.4,10.6,3.9C450,330,451.8,335.3,451.2,338.9z M396.7,347.4c-2.5-11.4-6-24.5-11.1-36.5c2.4-2.7,7-4.8,11.1-4.8
		c3.4,0,7.7,2.2,10.2,5C402.5,322.8,399.1,335.9,396.7,347.4z M333.8,346.3c16,5.9,32.1,15.9,43.5,23.8
		c-13.5-2.5-31.4-6.6-46.1-12.3c-19.1-7.5-39.6-20.3-49.1-28C289.7,331.4,304.6,335.6,333.8,346.3z M329.1,367.7
		c11.8,4.5,25,7.9,36.7,10.4c-11.4,2.5-24.5,6-36.5,11.1c-2.7-2.5-5-7.6-5-11.7C324.2,374.2,326.3,370.1,329.1,367.7z M329.7,399.9
		c15.4-7.1,33.9-11.4,47.6-13.9c-11.3,7.7-26.9,17.6-41.3,23.9c-10.9,4.7-24.6,9.2-37.6,12.4c-7.2,1.7-12.4,2.6-16.2,3.1
		C290.1,419.9,306.1,410.8,329.7,399.9z M341.5,418.4c11.6-5.2,23.6-12.3,33.7-18.9c-6.6,10.1-13.8,22.2-19,33.9
		c-3.7,0.2-8.7-1.9-11.4-4.6C342.5,426.6,341.2,422.2,341.5,418.4z M396.6,408.8c2.5,11.6,5.8,24.8,10.3,36.5c-2.3,2.7-7,4.9-11.2,5
		c-3.3,0-7.6-2.3-10.1-5.2C390.7,433.1,394.2,420.1,396.6,408.8z M457.1,410.1c-14.5-6.3-30.1-16.1-41.3-23.9
		c13.7,2.5,32.1,6.8,47.6,13.9c28.9,13.3,42.8,21,49.6,25.3C500.4,424,476.4,418.5,457.1,410.1z M464,389.4
		c-12-5.1-25.2-8.7-36.6-11.2c11.8-2.5,25.3-6,37.2-10.6c2.5,2.2,4.1,5.9,4.1,9.6C468.6,381.7,466.4,386.9,464,389.4z M461.9,358
		c-14.7,5.8-32.7,9.8-46.1,12.3c11.4-7.9,27.5-17.9,43.5-23.8c24.1-8.9,43.4-14.7,54-16.8C502.9,337.6,480.9,350.5,461.9,358z
		 M169.7,383.9c1.6-7.5,3.9-17.4,6.8-29.1c23.3-9,50.6-16.9,73.5-21.2c6.3-1.2,12.6-2.2,18.8-3.1c2.5,3.5,7.8,8.3,18.6,15.4
		c10,6.6,21.4,12.9,31.9,17.7c-3.2,4.1-5.1,9.1-5.1,14c0,5.2,2,11.3,5.5,16c-12.3,5.8-24,11.9-32.9,17.1
		c-9.7,5.7-15.5,9.8-18.1,13.3c-31.5-2.4-65.7-11.4-101.7-26.8C167.8,392.8,168.7,388.4,169.7,383.9z M522.1,419.6
		c-3.3-2.4-8.2-5.4-14.7-8.9c-8.7-4.7-20.2-10.4-34.1-17c3.5-5.1,5.2-11.7,5.2-16.4c0-5-1.6-9.9-4.4-13.7
		c10.7-4.8,22.4-11.1,32.8-17.6c11.6-7.3,17.3-12.1,19.9-15.6c33,4.5,64.6,14.8,91.2,24.3c0.1,0.1,0.3,0.1,0.4,0.1
		c2.5,10.5,4.5,20.4,6.2,29.6c0.8,4.6,1.6,9.1,2.3,13.6c-6.6,2.6-13.4,5.1-20.1,7.4c-26.5,9-53.5,15.2-80.2,18.4
		C525.4,422,523.4,420.5,522.1,419.6z M546.8,166.3c4,7,7.8,14.2,11.5,21.5c-26.7,8.3-54.9,21.8-83.9,40.3
		c-7.2,4.6-14.1,9.3-20.6,14.1c-6.1-40.8-18.4-74.7-25.5-92c-5.4-13.1-11-24.4-16.1-32.7c-2.4-3.9-5.1-7.8-8-10.5
		c15.2-17.7,29.8-34.3,47.9-47.1c0.3-0.2,0.5-0.4,0.7-0.6C492.8,82.8,524.7,127.2,546.8,166.3z M443.1,54
		c-17.6,13.1-32.4,29.9-46.5,46.4c-0.5-0.6-1.1-1.3-1.6-1.9c-1.5-1.7-2.9-3.5-4.4-5.2c-10.1-11.7-26.4-28.3-41.2-40.5
		c14.9-6.9,30.1-10.4,45.4-10.4C411.9,42.4,428,46.7,443.1,54z M246.7,166.1c20.6-38,42.7-67.7,65.9-88.4
		c8.9-7.9,17.9-14.5,27.1-19.8c14.5,11.4,32.4,29.4,43.3,42c1.5,1.7,2.9,3.4,4.3,5.1c0.6,0.7,1.1,1.3,1.7,2
		c-2.4,2.3-4.9,5.7-7.7,10.4c-4.9,8.1-10.2,19.3-15.2,32.2c-6.6,17-18.2,50.7-24.1,92.5c-6.3-4.7-12.9-9.2-19.8-13.7
		c-29.6-19.1-58.5-33.1-86-41.8C239.5,179.7,243,172.9,246.7,166.1z M165.2,407.3c34.2,14.4,66.8,23.2,97.3,26.2
		c-24.4,33-39.7,65.4-46.9,82.4c-5.5,13.1-9.6,25-11.9,34.4c-1.3,5.6-1.9,9.9-1.9,13.3c-0.7,0-1.4,0.1-2.1,0.1
		c-9.6,0.7-19.4,1.4-29.1,1.5C157.3,520.1,155.4,466.4,165.2,407.3z M173.8,575.2c9-0.2,18-0.9,26.7-1.5c0.8-0.1,1.5-0.1,2.3-0.2
		c-0.1,0.9-0.1,1.8-0.2,2.8c-0.2,2.5-0.4,5-0.6,7.6c-0.6,8.5-1.6,27.2-0.4,45.9C189.9,613.6,180.7,595.3,173.8,575.2z M213,644.1
		c-3.2-22.1-1.8-48.9-1-59.6c0.2-2.5,0.4-5,0.6-7.5c0.1-1,0.2-2,0.2-3h0.1c3,0,7-0.5,12.5-1.8c9.3-2.2,20.9-6.4,33.8-11.9
		c16.8-7.3,49-22.9,82.7-48.2c6,41.6,18,75.6,25,92.8c5.3,13,10.8,24.3,15.9,32.5c3.2,5.1,5.8,8.4,8,10.5
		c-19.1,21.4-40.5,45.2-65.2,58.5C278.6,696.7,240.9,675.8,213,644.1z M340.4,709.3c21.9-14.6,41.3-36,57.5-54.2
		c3.3,3.9,6.7,7.8,10.2,11.7c12.6,14.3,27.7,29.9,45.9,41.7c-18.4,3.2-38.2,4.9-59.2,4.9C375.6,713.4,357.4,712,340.4,709.3z
		 M468.7,705.5c-21.4-11.3-38.8-29.2-53.1-45.3c-3.4-3.9-6.9-7.9-10.2-11.8c2.5-2.4,5.2-6,8.3-11.2c5-8.3,10.3-19.7,15.5-32.9
		c11.2-28.6,20-61.7,24.6-92.2c33.8,25.4,66.3,41.2,83.3,48.6c13,5.7,24.8,9.9,34.1,12.2c5.3,1.3,9.5,2,12.8,2c0.1,0,0.3,0,0.4,0
		c1.3,19.1,2.6,38.9,0.7,58c0,0.3,0,0.5,0,0.8c-1.5,2-3.1,3.9-4.6,5.8C552.9,672.7,515.5,694.7,468.7,705.5z M594.4,574.4
		c0.9,0.1,1.9,0.1,2.8,0.2c6.2,0.5,12.6,0.9,19,1.2C610.8,591,604,605.1,596,618C596.4,603.4,595.4,588.7,594.4,574.4z M619.5,565.9
		c-7.2-0.3-14.5-0.8-21.5-1.3c-1-0.1-2-0.1-3-0.2c0-3.4-0.6-7.8-2-13.4c-2.3-9.5-6.6-21.5-12.3-34.7c-12.3-28.6-29.5-58.4-47.7-83.1
		c25.8-3.5,51.7-9.6,77.3-18.2c6.1-2.1,12.2-4.3,18.3-6.7C636.7,467.4,633.5,521,619.5,565.9z"/>
</g>
</svg>
