<svg width="799.9999999999999" height="600" xmlns="http://www.w3.org/2000/svg">

 <g>
  <title>Layer 1</title>
  <path id="svg_50" d="m251.74961,286.64961l67.25019,-0.14984c0.24977,0.14984 -15.50022,157.89976 -15.50022,157.89976c0,0 55.52756,0 55.5002,-0.14984c0.02736,0.14984 16.99977,-157.25008 16.99977,-157.25008c0,0 66.00044,0 66.00019,-0.24984c0.00025,0.24984 4.49977,-48.75013 4.25,-48.99998l-65.74997,0.5848l5.76891,-53.15722l-53.88023,0.64396l-7.76043,55.08909l-66.98288,0.23664l-2.94776,22.75128l-1.47389,11.37564l-1.47388,11.37563z" opacity="NaN" fill="#444444"/>
  <path id="svg_48" d="m440.29551,338.89662l56.70184,-0.39842l13.99993,-154.99917l-55.4997,0l-15.20206,155.3976z" opacity="NaN" fill="#3E2A3C"/>
  <path id="svg_37" d="m505.33907,285.8704l4.19565,-46.73904l64.6086,0.5l-5.1087,45.65208l-63.69555,0.58696z" fill="#444444"/>
  <path id="svg_47" d="m374.79586,342.8966l191.70112,-0.39842l-4.49998,47.49975l-192.49898,0l5.29783,-47.10132z" opacity="NaN" fill="#2D6862"/>
  <path id="svg_35" d="m242.57856,390.71808l6.19565,-46.73904l60.10861,0l-5.10869,45.65208l-61.19557,1.08695z" fill="#2D6862"/>
  <path id="svg_36" d="m430.0783,445.06583l5.6878,-52.17381l55.18168,0l-4.68995,50.96046l-56.17953,1.21335z" fill="#3E2A3C"/>
 </g>
</svg>