<?xml version="1.0" encoding="UTF-8" standalone="no"?>
<!-- Created with Inkscape (http://www.inkscape.org/) -->

<svg
   xmlns:dc="http://purl.org/dc/elements/1.1/"
   xmlns:cc="http://creativecommons.org/ns#"
   xmlns:rdf="http://www.w3.org/1999/02/22-rdf-syntax-ns#"
   xmlns:svg="http://www.w3.org/2000/svg"
   xmlns="http://www.w3.org/2000/svg"
   xmlns:sodipodi="http://sodipodi.sourceforge.net/DTD/sodipodi-0.dtd"
   xmlns:inkscape="http://www.inkscape.org/namespaces/inkscape"
   id="svg2"
   version="1.1"
   inkscape:version="0.91 r13725"
   xml:space="preserve"
   width="744.09497"
   height="1052.3625"
   viewBox="0 0 744.09497 1052.3625"
   sodipodi:docname="raw.svg">
   <metadata id="metadata8">
     <rdf:RDF>
       <cc:Work rdf:about="">
         <dc:format>image/svg+xml</dc:format>
         <dc:type rdf:resource="http://purl.org/dc/dcmitype/StillImage" />
       </cc:Work>
     </rdf:RDF>
   </metadata>
   <defs id="defs6" />
   <sodipodi:namedview pagecolor="#ffffff" bordercolor="#666666" borderopacity="1" objecttolerance="10" gridtolerance="10" guidetolerance="10" inkscape:pageopacity="0" inkscape:pageshadow="2" inkscape:window-width="1920" inkscape:window-height="1080" id="namedview4"
     showgrid="false" inkscape:zoom="0.89702926" inkscape:cx="331.35829" inkscape:cy="484.61908" inkscape:window-x="0" inkscape:window-y="0" inkscape:window-maximized="0" inkscape:current-layer="g10" />
  <g id="g10" inkscape:groupmode="layer" inkscape:label="drawings-page-181" transform="matrix(1.25,0,0,-1.25,0,1052.3625)">
       <path
       d="m 509.258,656.94855 c 1.65606,1.89288 2.85577,3.59442 3.59918,5.10449 0.74347,1.51019 1.65289,3.05347 2.72821,4.62994 1.07544,1.57654 2.51056,3.21802 4.30536,4.92432 1.79486,1.70636 2.7381,2.75073 2.82971,3.13312 0.0917,0.38238 -0.14868,0.2586 -0.72095,-0.37152 -0.57226,-0.63007 -1.97919,-2.71985 -4.22082,-6.26941 -2.24152,-3.54944 -3.64124,-5.99231 -4.1991,-7.32855 -0.55774,-1.33625 -1.06311,-2.38349 -1.51599,-3.14173 -0.45288,-0.75824 -0.36652,-0.31 0.25903,1.34479 0.62567,1.65485 1.33307,3.16357 2.12226,4.52612 0.78924,1.36261 2.01605,3.15503 3.68023,5.37726 1.66425,2.22223 3.00342,3.77478 4.01758,4.65759 1.01416,0.88275 0.82245,0.67194 -0.5752,-0.63244 -1.39758,-1.30439 -2.32086,-2.22187 -2.76983,-2.75244 -0.44892,-0.53058 -1.27545,-1.73444 -2.47968,-3.61164 -1.2041,-1.87707 -2.19256,-3.81872 -2.96545,-5.82495 -0.77295,-2.00616 -0.24976,-1.43408 1.56946,1.71631 1.81927,3.15039 3.7207,6.21063 5.70434,9.18072 1.98365,2.97004 2.89337,4.37775 2.72913,4.22315 -0.16419,-0.1546 -2.18921,-3.05389 -6.07514,-8.69788 -3.8858,-5.64404 -5.33453,-7.67267 -4.34613,-6.08581 0.98847,1.58685 2.28333,3.43439 3.88465,5.5426 1.60132,2.10822 2.80469,3.60297 3.61017,4.48419 0.8056,0.88129 1.79339,1.83917 2.96356,2.8736 1.17016,1.03442 -0.2898,-1.48749 -4.37988,-7.56574 -4.08997,-6.07818 -5.94971,-8.3125 -5.57923,-6.70294"
       style="fill:none;stroke:#000000;stroke-width:2.63090992;stroke-linecap:round;stroke-linejoin:round;stroke-miterlimit:10;stroke-dasharray:none;stroke-opacity:1"
       id="path352"
       inkscape:connector-curvature="0" />
       <path
       d="m 510.39679,674.71387 c 1.33639,-1.9057 2.71393,-3.47241 4.13263,-4.70002 1.41864,-1.2276 2.59009,-2.14385 3.5144,-2.74896 0.92432,-0.60498 2.24524,-1.66601 3.96289,-3.18298 1.71772,-1.51697 2.76453,-2.35925 3.14038,-2.52686 0.37592,-0.16748 0.49506,-0.21502 0.35743,-0.14257 -0.13764,0.0725 -0.30555,0.0349 -0.50367,-0.11298 -0.19805,-0.14783 -0.45056,-0.62335 -0.7575,-1.42658 -0.30689,-0.80322 -1.66938,-0.17028 -4.08741,1.89869 -2.41802,2.06903 -4.14447,3.45276 -5.17932,4.15118 -1.03485,0.69843 -1.75512,1.48718 -2.16082,2.36621 -0.40564,0.87909 -1.04563,1.77973 -1.91999,2.70197 -0.8743,0.92224 -1.07892,1.63708 -0.6138,2.14453 0.46512,0.50751 0.86719,0.77795 1.20615,0.81146 0.33902,0.0335 0.60785,-0.0449 0.80652,-0.23523"
       style="fill:none;stroke:#000000;stroke-width:2.63090992;stroke-linecap:round;stroke-linejoin:round;stroke-miterlimit:10;stroke-dasharray:none;stroke-opacity:1"
       id="path354"
       inkscape:connector-curvature="0" />

</g></svg>
