<?xml version="1.0" encoding="UTF-8" standalone="no"?>
<!-- Created with Inkscape (http://www.inkscape.org/) -->

<svg
   version="1.1"
   id="svg73"
   width="256"
   height="256"
   viewBox="0 0 256 256"
   sodipodi:docname="chicken-footprint.svg"
   inkscape:version="1.1.1 (c3084ef, 2021-09-22)"
   xmlns:inkscape="http://www.inkscape.org/namespaces/inkscape"
   xmlns:sodipodi="http://sodipodi.sourceforge.net/DTD/sodipodi-0.dtd"
   xmlns="http://www.w3.org/2000/svg"
   xmlns:svg="http://www.w3.org/2000/svg">
  <defs
     id="defs77" />
  <sodipodi:namedview
     id="namedview75"
     pagecolor="#ffffff"
     bordercolor="#111111"
     borderopacity="1"
     inkscape:pageshadow="0"
     inkscape:pageopacity="0"
     inkscape:pagecheckerboard="1"
     showgrid="false"
     width="256px"
     inkscape:zoom="0.83275864"
     inkscape:cx="155.50724"
     inkscape:cy="372.85713"
     inkscape:window-width="1312"
     inkscape:window-height="969"
     inkscape:window-x="0"
     inkscape:window-y="25"
     inkscape:window-maximized="0"
     inkscape:current-layer="g79" />
  <g
     inkscape:groupmode="layer"
     inkscape:label="Image"
     id="g79">
    <path
       style="display:none;fill:#000000;stroke-width:1.33333"
       d="m 318.84054,441.38795 c -0.85546,-2.85528 -3.39842,-6.74221 -5.651,-8.63765 -2.25259,-1.89543 -7.54824,-9.81049 -11.76811,-17.58904 -4.21987,-7.77855 -9.23399,-16.09979 -11.14249,-18.49164 -2.2826,-2.86068 -10.56504,-8.1096 -24.20381,-15.33895 -55.96532,-29.66485 -93.76419,-56.7115 -105.90307,-75.778 -3.7279,-5.85542 -6.8922,-17.71099 -6.79649,-25.4642 l 0.0423,-3.42179 2.8363,3.80488 c 1.55998,2.09268 5.30456,4.86288 8.3213,6.156 3.01673,1.29313 10.57138,6.52724 16.7881,11.63137 31.25223,25.65904 44.52239,34.05231 54.19515,34.27803 10.11677,0.23608 16.23389,-9.17928 14.52158,-22.35139 -2.02,-15.53905 -12.12618,-50.90886 -24.81624,-86.85223 -4.28528,-12.13768 -5.71501,-18.25301 -5.92276,-25.33333 -0.15061,-5.13333 -0.73078,-11.58333 -1.28928,-14.33334 -1.37773,-6.78406 1.79151,-6.77716 5.60736,0.012 1.54936,2.75674 4.5612,6.30177 6.69295,7.87783 4.86624,3.59778 10.4812,15.02182 24.79308,50.44327 21.90361,54.21079 25.22532,60.04762 37.57509,66.02604 5.85727,2.83546 6.30749,2.86494 11.78777,0.772 15.26006,-5.82786 21.86096,-19.69368 24.81746,-52.13137 0.80206,-8.8 2.70085,-20.28784 4.21953,-25.52852 1.54889,-5.34498 2.53596,-11.8907 2.24816,-14.90863 -0.66571,-6.98055 1.16205,-5.54577 7.59956,5.96557 5.95719,10.65244 6.84957,17.92382 4.67264,38.07374 -3.184,29.47139 -8.88899,53.09843 -24.65393,102.10346 -4.0764,12.67142 -7.41164,25.17146 -7.41164,27.77785 0,2.6064 1.24002,9.5956 2.75561,15.53156 2.82475,11.06346 4.70283,39.00492 2.70471,40.23983 -0.58542,0.3618 -1.76431,-1.67831 -2.61978,-4.53359 z m 160.57845,-97.38793 c 0.51618,-3.3 0.76797,-7.2 0.55953,-8.66667 -0.20844,-1.46667 -0.26456,-12.48395 -0.12467,-24.48286 0.14766,-12.66786 -0.34469,-23.63109 -1.17409,-26.14424 -0.78561,-2.38042 -5.34816,-11.16314 -10.13899,-19.51714 -19.97218,-34.82646 -39.31429,-78.35787 -44.66464,-100.52244 -4.30673,-17.84121 -3.90766,-28.45393 1.50412,-40 l 4.37464,-9.33333 0.86478,4.70531 c 0.47562,2.58792 2.149,6.48792 3.7186,8.66666 1.5696,2.17875 6.79777,15.85256 11.61814,30.38626 12.9072,38.91584 18.50534,48.32993 29.62666,49.82161 14.23632,1.9095 23.6807,-18.25204 42.33578,-90.37692 7.12699,-27.554637 8.58485,-31.765597 12.5798,-36.336234 1.18577,-1.356653 3.05868,-4.907094 4.162,-7.889869 3.14305,-8.497095 4.98309,-7.694391 6.00061,2.617722 1.89786,19.234067 1.07803,29.767791 -4.44182,57.072131 -11.83682,58.55156 -12.74876,69.22267 -6.94098,81.21993 3.86862,7.99151 9.43814,10.75655 19.56187,9.71168 13.22597,-1.36504 20.53597,-6.85792 38.60828,-29.01106 7.51839,-9.21608 16.43241,-19.02027 19.80896,-21.7871 3.37653,-2.76683 7.4749,-7.52873 9.10748,-10.58201 l 2.96826,-5.55144 0.4166,5.80166 c 0.8777,12.22326 -1.8923,22.78655 -8.51818,32.48389 -14.69207,21.50258 -38.51611,45.26452 -76.92889,76.72837 -13.51191,11.06759 -26.10207,21.9471 -27.97814,24.17667 -1.87606,2.22957 -4.75905,8.1238 -6.40662,13.09827 -4.58971,13.85753 -7.37712,19.75732 -10.96828,23.21535 -1.80633,1.73936 -3.65139,4.7366 -4.10012,6.66053 -0.44872,1.92393 -2.06536,4.92393 -3.59253,6.66667 l -2.77667,3.1686 z"
       id="path181"
       inkscape:label="path181" />
    <path
       style="fill:#000000;stroke-width:1.33333"
       d="m 28.497647,233.73563 c 2.097034,-2.59979 4.265076,-5.85139 4.817902,-7.22579 0.552821,-1.3744 6.012868,-10.9437 12.133471,-21.26511 6.461807,-10.89686 11.517035,-20.63747 12.055329,-23.22862 0.509851,-2.45431 0.949927,-12.34165 0.977947,-21.97184 C 58.59911,119.89758 63.614061,72.527218 70.062806,50.656962 75.253674,33.052656 80.905639,24.061306 91.365413,16.768006 l 8.455214,-5.895581 -1.603733,4.507308 c -0.882061,2.479015 -1.382874,6.693202 -1.112931,9.364846 0.26993,2.671648 -2.039238,17.127605 -5.131534,32.124338 -8.279958,40.155707 -8.138863,51.107623 0.746642,57.960113 11.374259,8.77183 29.634109,-3.96638 81.852319,-57.100816 19.94947,-20.299522 23.31749,-23.21739 29.06254,-25.178203 1.70524,-0.582006 5.10244,-2.720328 7.54934,-4.751822 6.97051,-5.787174 8.16267,-4.171997 3.88782,5.267319 -7.97344,17.606121 -13.95029,26.318675 -32.38279,47.205002 -39.52677,44.78873 -45.65209,53.57421 -46.62104,66.86804 -0.64543,8.85516 2.7954,14.03451 12.08524,18.19149 12.13655,5.43083 21.21363,4.32886 47.94128,-5.82017 11.11916,-4.22217 23.74102,-8.25584 28.04862,-8.96371 4.30757,-0.70788 10.23781,-2.78262 13.17831,-4.61054 l 5.34631,-3.32356 -2.54004,5.23268 c -5.35152,11.02451 -13.03206,18.78758 -23.61891,23.87279 -23.475,11.27574 -55.98819,19.94217 -104.98656,27.98427 -17.235453,2.82886 -33.578607,5.95571 -36.318116,6.94854 -2.739501,0.99283 -8.183358,4.65589 -12.097431,8.14012 -10.90357,9.70612 -16.267433,13.42179 -21.106484,14.62095 -2.434008,0.60316 -5.530497,2.27632 -6.881073,3.71813 -1.350568,1.44181 -4.250619,3.23156 -6.444557,3.97724 l -3.988967,1.35575 z"
       id="path181-6"
       inkscape:label="path181"
       sodipodi:nodetypes="ssssssscsssssssssssssscsssssssscs" />
  </g>
</svg>
