<?xml version="1.0" encoding="UTF-8" standalone="no"?>
<!-- Created with Inkscape (http://www.inkscape.org/) -->

<svg
   width="193.675mm"
   height="196.32083mm"
   viewBox="0 0 193.675 196.32083"
   version="1.1"
   id="svg5"
   inkscape:version="1.1.1 (c3084ef, 2021-09-22)"
   sodipodi:docname="rooster.svg"
   xmlns:inkscape="http://www.inkscape.org/namespaces/inkscape"
   xmlns:sodipodi="http://sodipodi.sourceforge.net/DTD/sodipodi-0.dtd"
   xmlns="http://www.w3.org/2000/svg"
   xmlns:svg="http://www.w3.org/2000/svg">
  <sodipodi:namedview
     id="namedview7"
     pagecolor="#ffffff"
     bordercolor="#111111"
     borderopacity="1"
     inkscape:pageshadow="0"
     inkscape:pageopacity="0"
     inkscape:pagecheckerboard="1"
     inkscape:document-units="mm"
     showgrid="false"
     fit-margin-top="0"
     fit-margin-left="0"
     fit-margin-right="0"
     fit-margin-bottom="0"
     inkscape:zoom="0.66368547"
     inkscape:cx="-1.5067378"
     inkscape:cy="368.3974"
     inkscape:window-width="1751"
     inkscape:window-height="969"
     inkscape:window-x="0"
     inkscape:window-y="25"
     inkscape:window-maximized="0"
     inkscape:current-layer="layer1" />
  <defs
     id="defs2" />
  <g
     inkscape:label="background"
     inkscape:groupmode="layer"
     id="layer1"
     transform="translate(-9.8034353,-6.8858943)"
     style="display:inline">
    <g
       id="g71335"
       transform="translate(166.63893,3.1892617)">
      <path
         style="fill:#ea7932;fill-opacity:1"
         d="m -125.74019,61.103345 c 0,0 -3.61705,-0.746963 -5.38188,-0.398659 -3.20671,0.63287 -6.21411,2.34844 -8.77047,4.385233 -2.28884,1.823645 -5.58121,6.777183 -5.58121,6.777183 l 4.18591,-15.94631 17.34161,-11.561072 18.13893,14.551007 z"
         id="path18561"
         sodipodi:nodetypes="caaccccc"
         inkscape:label="tail shadow" />
      <path
         style="fill:#ea7932;fill-opacity:1"
         d="m -30.859652,191.06576 c 0,0 -1.887396,-6.99278 -3.189261,-10.3651 -0.845671,-2.19061 -1.660831,-4.4427 -2.989934,-6.37852 -1.303314,-1.89826 -4.783892,-4.98323 -4.783892,-4.98323 -2.031604,-4.03614 -2.840581,-9.88808 -0.199328,-13.55436 6.030869,-8.37135 29.50067,-9.36846 29.50067,-9.36846 v 0 c 0,0 -5.680609,5.8301 -7.973155,9.16913 -2.809547,4.09203 -5.015799,8.59568 -6.97651,13.15571 -3.158688,7.34617 -3.38859,22.32483 -3.38859,22.32483 z"
         id="path18339"
         sodipodi:nodetypes="caasaccasc"
         inkscape:label="leg shadow" />
      <path
         style="fill:#ee3025;fill-opacity:1"
         d="m -12.521397,30.805357 c 0,0 -3.918678,1.36021 -5.780537,0.797316 -2.20775,-0.667466 -4.771657,-2.315018 -5.18255,-4.584564 -0.428911,-2.36907 1.325111,-5.138157 3.38859,-6.378524 1.366718,-0.821541 4.783893,0 4.783893,0 0,0 -1.560815,-2.040749 -1.395303,-3.189261 0.309427,-2.147159 2.219575,-4.066939 4.185907,-4.983222 2.288557,-1.066436 5.1919937,-0.835737 7.5744969,0 1.6058384,0.563298 3.1184126,1.725598 3.98657727,3.189262 0.58513804,0.986501 0.59798637,3.388591 0.59798637,3.388591 0,0 0.59607937,-2.348003 1.39530216,-3.189262 1.2279598,-1.292546 3.0055264,-2.265561 4.7838926,-2.391946 2.0958246,-0.148946 4.4230777,0.582233 5.9798657,1.993288 3.019126,2.736501 4.56133,7.109569 4.983221,11.162416 0.358916,3.447883 -1.14324,6.861906 -2.192617,10.165772 -1.180543,3.716832 -4.584564,10.763758 -4.584564,10.763758 z"
         id="path18653"
         sodipodi:nodetypes="caaacaaaacaaaaacc"
         inkscape:label="comb" />
      <path
         style="display:inline;fill:#ffa631;fill-opacity:1"
         d="m -122.55093,26.420122 c 0,0 7.61557,-1.413753 11.36175,-0.797315 6.96463,1.146037 14.406805,3.321807 19.534227,8.172482 5.418362,5.125912 6.953988,13.224252 9.767115,20.132214 2.93205,7.19999 2.801394,15.839218 7.375167,22.125503 3.494844,4.803384 8.749055,8.590337 14.351678,10.564432 5.833386,2.055405 12.910708,3.364677 18.537583,0.797314 12.433083,-5.672819 25.514094,-32.091945 25.514094,-32.091945 0,0 7.8621219,17.265283 11.7604028,25.912752 2.0045385,4.446623 4.44083053,8.72664 5.9798653,13.355031 1.9124153,5.75127 3.6936712,11.68646 3.9865773,17.74027 0.2071035,4.28044 -0.088781,8.74489 -1.5946311,12.75705 -2.2534582,6.00408 -6.4936766,11.1616 -10.7637581,15.9463 -3.6085302,4.04342 -8.1168922,7.19093 -12.3583882,10.56443 -5.949042,4.7316 -12.462103,8.73254 -18.338255,13.55437 -3.054305,2.50629 -6.340589,4.85772 -8.770472,7.97315 -2.596001,3.32842 -4.432655,7.23511 -5.979863,11.16242 -0.85656,2.17422 -1.79396,6.77718 -1.79396,6.77718 0,0 -1.267403,-6.871 -2.790605,-9.96645 -3.039189,-6.17624 -7.558334,-11.61052 -12.358389,-16.54429 -5.079698,-5.2212 -11.741329,-8.66621 -17.142282,-13.55436 -6.236159,-5.64405 -13.150836,-10.96453 -17.540936,-18.13893 -2.78562,-4.55233 -4.46195,-9.86088 -5.18255,-15.14899 -0.61109,-4.48448 0.36893,-9.04875 0.79731,-13.55436 0.24103,-2.53516 0.88543,-5.030335 0.99665,-7.574501 0.33403,-7.64086 -0.32028,-15.304626 -0.99665,-22.922817 -0.70553,-7.946601 2.02238,-17.679845 -3.18926,-23.720134 -5.01413,-5.811383 -20.36202,1.091674 -22.1255,-6.378524 -0.78865,-3.340773 4.55334,-5.346968 7.57449,-6.97651 2.65225,-1.430569 5.76162,-2.025972 8.77047,-2.192618 2.47694,-0.137185 7.37517,0.996646 7.37517,0.996646 v 0 0 0 c 0,0 -0.0947,-3.563653 -1.19597,-4.783894 -2.74596,-3.042618 -11.56108,-4.185906 -11.56108,-4.185906 z"
         id="path18507"
         sodipodi:nodetypes="caaaaaacaaaaaaaaacaaaaaaaaaaaaaaaaac" />
      <path
         style="fill:#f28b34;fill-opacity:1"
         d="m -80.293208,130.66912 c 0,0 6.024211,-0.0476 8.969798,-0.59799 2.189675,-0.40916 6.378525,-1.99329 6.378525,-1.99329 0,0 -9.363465,-6.92637 -12.358391,-11.7604 -3.918289,-6.32441 -9.26792,-14.39172 -6.577851,-21.328191 0.947663,-2.443594 4.309956,-3.102257 6.77718,-3.986578 2.406217,-0.862455 5.024065,-1.025669 7.574497,-1.195972 2.851469,-0.190404 5.724147,0.447851 8.57114,0.199329 3.375105,-0.294622 6.695748,-1.109728 9.966444,-1.993289 2.373314,-0.641138 4.761272,-1.325925 6.976509,-2.391947 11.709386,-5.634824 32.889262,-20.929528 32.889262,-20.929528 0,0 3.6347723,13.03197 4.1859063,19.733556 0.485169,5.899476 0.2162738,11.908302 -0.7973155,17.74027 -1.1191907,6.43957 -2.7404758,12.95083 -5.7805368,18.73691 -2.244306,4.27154 -5.336891,8.18607 -8.969797,11.36175 -4.126654,3.60729 -8.931807,6.70216 -14.152351,8.37181 -5.970307,1.90944 -12.509957,2.31265 -18.736913,1.59463 -5.761045,-0.6643 -11.387547,-2.72879 -16.544295,-5.38188 -3.084171,-1.58677 -8.371811,-6.17919 -8.371811,-6.17919 z"
         id="path18171"
         sodipodi:nodetypes="cacaaaaaaacaaaaaaac"
         inkscape:label="wing" />
      <path
         style="fill:#ea7932;fill-opacity:1"
         d="m -122.55093,26.420122 c 0,0 5.69997,0.965802 7.97316,2.591275 2.16188,1.545879 4.78389,6.378525 4.78389,6.378525 0,0 3.17838,1.540523 4.58457,2.591274 2.29609,1.715714 6.179189,5.979866 6.179189,5.979866 0,0 -2.354529,-8.542626 -5.182549,-11.760403 -2.20406,-2.507821 -5.38401,-4.187952 -8.57114,-5.18255 -3.11371,-0.971686 -9.76712,-0.597987 -9.76712,-0.597987 z"
         id="path18041"
         sodipodi:nodetypes="cacacaac"
         inkscape:label="top tail shadow" />
      <path
         style="fill:#f28b34;fill-opacity:1"
         d="m -107.2026,96.583879 c 0,0 3.6774,-15.43981 4.1859,-23.321475 0.35119,-5.443483 0.81772,-11.134733 -0.79731,-16.344966 -1.68699,-5.442383 -4.51174,-11.002609 -8.9698,-14.551006 -3.73177,-2.9703 -8.82399,-5.194784 -13.55436,-4.584565 -3.47259,0.447965 -6.3415,3.258702 -8.77047,5.780537 -3.28846,3.414189 -5.68679,7.729608 -7.37517,12.159059 -1.94947,5.114439 -2.98994,16.145639 -2.98994,16.145639 0,0 2.94656,-7.088897 5.18256,-10.165773 2.59625,-3.572599 5.30276,-7.643885 9.36845,-9.368456 3.60941,-1.531026 8.09163,-1.58208 11.7604,-0.199329 2.77283,1.045075 6.57786,5.979866 6.57786,5.979866 0,0 -3.95529,-1.378182 -5.97987,-1.195972 -3.41622,0.307456 -6.98818,1.526552 -9.56778,3.787248 -3.48964,3.058229 -5.23261,7.7836 -6.77718,12.159059 -1.43626,4.068638 -2.1093,8.44315 -2.19262,12.757047 -0.088,4.556672 1.79396,13.554363 1.79396,13.554363 0,0 3.10837,-6.45051 5.38188,-9.169127 1.96488,-2.349558 4.16421,-4.766553 6.97651,-5.979867 2.88352,-1.244043 6.4769,-2.221913 9.36845,-0.996642 2.48427,1.052692 3.86428,3.923372 4.98322,6.378522 1.01055,2.217323 1.39531,7.175838 1.39531,7.175838 z"
         id="path17911"
         sodipodi:nodetypes="caaaaaacaaacaaaacaaaac"
         inkscape:label="tail" />
      <path
         style="fill:#ffc269;fill-opacity:1"
         d="m -49.197906,78.644283 c 0,0 1.618433,8.605965 4.185906,11.95973 2.643851,3.453534 6.529334,6.381943 10.763758,7.375168 4.638128,1.087918 9.953486,0.257347 14.152348,-1.993287 3.525834,-1.889884 6.14589,-5.411111 7.973155,-8.969801 1.929026,-3.756874 2.6502366,-8.137542 2.7906041,-12.358388 0.1140052,-3.428131 -2.1327071,-6.778211 -1.5946311,-10.16577 0.666586,-4.196624 5.780537,-11.361746 5.780537,-11.361746 L 11.597395,42.765087 c 0,0 0.154673,-4.805331 -0.996644,-6.77718 C 8.1413788,31.775767 3.8296737,27.9382 -0.96032283,27.018109 -5.4417265,26.157295 -10.407995,28.145569 -14.116028,30.805357 c -3.219975,2.309702 -4.949663,6.250988 -6.77718,9.767115 -1.599568,3.077555 -2.358622,6.523844 -3.587919,9.767112 -2.199664,5.8034 -3.443377,12.106757 -6.777183,17.341612 -2.120532,3.329731 -4.755886,6.593606 -8.172482,8.57114 -2.901017,1.679115 -9.767114,2.391947 -9.767114,2.391947 z"
         id="path17784"
         sodipodi:nodetypes="caaaaaaccaaaaaaac"
         inkscape:label="neck" />
      <path
         style="fill:#d03025;fill-opacity:1"
         d="m 8.806791,59.309385 c 0.5070449,2.849901 2.982088,4.964542 4.584564,7.375165 2.796454,4.206735 8.012546,7.364162 8.770469,12.358391 0.545399,3.593833 -0.704794,7.913502 -3.38859,10.3651 -3.070245,2.804612 -8.107776,3.728338 -12.1590605,2.790605 C 3.1162736,91.389002 -0.14396001,88.628778 -1.7576383,85.421463 -7.7863601,73.438895 -9.8757948,66.467651 -9.730793,58.113412 c 0.1043565,-6.012468 7.7738258,-9.767117 7.7738258,-9.767117 l 18.1389262,-1.59463 1.79396,3.787248 c 0,0 -4.532592,0.235724 -7.973155,2.989935 -1.5360961,1.229663 -1.5406388,3.843305 -1.195973,5.780537 z"
         id="path67319"
         sodipodi:nodetypes="aaaaasscccsa" />
      <path
         style="fill:#ee3025;fill-opacity:1"
         d="m -4.3489135,81.235559 c 0,0 -1.1336509,-7.644126 -0.3986578,-11.361745 0.9054673,-4.579884 2.6976795,-9.251167 5.780537,-12.757047 2.8370174,-3.226306 6.7644277,-5.8667 10.9630873,-6.777183 3.600166,-0.780699 10.963087,1.395304 10.963087,1.395304 0,0 -1.434558,-3.883645 -2.790604,-5.381879 -1.224304,-1.352679 -2.879249,-2.341428 -4.584564,-2.989934 -1.255974,-0.477628 -3.986577,-0.597988 -3.986577,-0.597988 0,0 -2.0408428,-5.135871 -3.9865771,-6.976509 -1.9427387,-1.837804 -4.5018424,-3.549173 -7.17583884,-3.587919 -4.10184986,-0.05944 -8.53419276,2.032764 -11.16241606,5.182549 -3.211013,3.848227 -3.819804,9.539183 -3.787248,14.551009 0.02775,4.271422 2.107449,8.283528 3.38859,12.358389 0.951759,3.027211 2.0056362,6.025501 3.1892619,8.969798 1.087062,2.704092 3.5879196,7.973155 3.5879196,7.973155 z"
         id="path17578"
         sodipodi:nodetypes="caaacaacaaaaaac"
         inkscape:label="beak" />
      <path
         style="fill:#ffc269;fill-opacity:1"
         d="m -93.249584,78.843612 c 0,0 4.690585,3.21333 7.175839,4.584562 3.27905,1.809206 6.638131,3.526461 10.165773,4.783894 2.064383,0.735852 6.378522,1.594631 6.378522,1.594631 0,0 -4.682335,2.045502 -6.179195,3.986577 -2.219757,2.878503 -3.519059,6.732464 -3.388591,10.365104 0.1829,5.0925 3.124867,9.80327 5.780538,14.15234 2.234702,3.65967 8.371813,9.76712 8.371813,9.76712 0,0 -5.720217,-3.0869 -8.172484,-5.18255 -5.046323,-4.31247 -9.756563,-9.24804 -13.155705,-14.94967 -3.046407,-5.10997 -4.944944,-10.923913 -6.179193,-16.74362 -0.856428,-4.03821 -0.797317,-12.358388 -0.797317,-12.358388 z"
         id="path17857"
         sodipodi:nodetypes="caacaaacaaac"
         inkscape:label="wing tip" />
      <ellipse
         style="fill:#000000;fill-opacity:1;stroke-width:0.264583"
         id="path71219"
         cx="-1.2593158"
         cy="41.768444"
         rx="1.6942953"
         ry="1.7939597" />
    </g>
  </g>
</svg>
