<?xml version="1.0" encoding="utf-8"?>
<!-- Generator: Adobe Illustrator 21.1.0, SVG Export Plug-In . SVG Version: 6.00 Build 0)  -->
<svg version="1.1" id="Calque_1" xmlns="http://www.w3.org/2000/svg" xmlns:xlink="http://www.w3.org/1999/xlink" x="0px" y="0px"
	 viewBox="0 0 432 432" style="enable-background:new 0 0 432 432;" xml:space="preserve">
<style type="text/css">
	.st8{fill:#DA417B;}
	.st14{fill:#BACF1E;}
	.st15{fill:#54BCB7;}
</style>
<g>
	<g>
		<g>
			<path class="st14" d="M173.9,289.2c-1.7,0.7-5,4-6.5,6.5c-3.3,5.4-5.4,11.2-6.2,17.4c-0.7,5.3-0.2,10.5,2.1,15.4
				c2.2,4.6,6,7,11.4,7.4c0.1-2,0.3-3.8,0.2-5.7c-0.2-13.3-0.5-26.5-0.8-39.8C174.1,290.1,174,289.7,173.9,289.2z"/>
			<path class="st14" d="M183,290c-1.1-0.9-2.3-1.5-3.7-1.6c-0.5-0.1-1,0.1-1.5,0.2c0.3,15.7,0.6,31.1,1,46.8
				c0.6-0.2,1.1-0.4,1.7-0.7c2.7-1.4,5-3.3,6.6-5.8c3.1-4.8,4.9-10,5-15.7c0.2-6.6-1.9-12.7-5-18.5C186,292.8,184.6,291.3,183,290z"
				/>
		</g>
		<path d="M191.1,294.3c-1.3-2.6-3.1-4.9-5.4-6.8c-0.7-0.6-1.5-1.1-2.2-1.7c2.5-2.5,4.9-4.9,7.1-7.4c0.9-1,1.7-2.3,2.2-3.6
			c1.1-2.7,1-5.5-0.8-7.9c-1.2-1.6-2.8-2.1-4.7-1.6c-1.6,0.4-2.9,1.4-4.1,2.5c-2,1.8-3.5,3.9-4.7,6.2c-0.2,0.4-0.5,0.8-0.8,1.2
			c-0.6-2-1-4-1.7-5.9c-0.8-2.1-2.1-4-4.1-5.3c-2.4-1.6-4.9-1.2-6.4,1.3c-0.5,0.8-0.9,1.8-1.2,2.8c-0.8,2.8-0.5,5.5,0.5,8.2
			c1.4,3.9,3.7,7.1,7.1,9.6c-4.4,2.6-7.2,6.5-9.4,10.9c-2.9,5.5-4.7,11.4-5.2,17.6c-0.5,5.9,0.3,11.6,3.2,16.9c3.6,6.6,11,9.5,18,8
			c4.5-1,8-3.7,10.8-7.3c2.9-3.7,4.5-7.9,5.6-12.4c0.9-3.7,1.3-7.5,0.7-11.3C194.7,303.4,193.3,298.7,191.1,294.3z M168.5,275.5
			c-0.8-2-1.2-4.1-0.7-6.3c0.3-1.1,0.5-1.5,1.4-2.4c1.3,0.5,2.2,1.6,2.7,2.9c0.7,1.7,1.3,3.4,1.6,5.2c0.5,2.4,0.1,4.8-0.1,7.2
			C171.1,280.4,169.6,278.1,168.5,275.5z M174.7,335.9c-5.5-0.4-9.2-2.8-11.4-7.4c-2.3-4.9-2.8-10.1-2.1-15.4
			c0.8-6.3,2.9-12.1,6.2-17.4c1.5-2.4,4.8-5.7,6.5-6.5c0.1,0.5,0.2,0.9,0.2,1.3c0.3,13.3,0.6,26.5,0.8,39.8
			C175,332.1,174.8,333.9,174.7,335.9z M181.8,275.7c1.2-2.3,2.7-4.3,4.7-5.9c0.7-0.5,1.5-1.3,2.4-0.8c0.9,0.5,1.1,1.6,0.9,2.5
			c-0.2,1.1-0.4,2.3-1.1,3.1c-2.7,3.6-5.8,6.9-9.7,9.2c-0.3,0.1-0.5,0.2-0.8,0.4c0,0-0.1,0-0.4-0.1
			C179.1,281.3,180.4,278.5,181.8,275.7z M187,328.8c-1.6,2.5-3.9,4.4-6.6,5.8c-0.5,0.3-1.1,0.4-1.7,0.7c-0.3-15.7-0.6-31.1-1-46.8
			c0.5-0.1,1-0.2,1.5-0.2c1.4,0.2,2.6,0.8,3.7,1.6c1.6,1.3,3.1,2.8,4,4.7c3.1,5.8,5.2,11.8,5,18.5
			C191.9,318.8,190.1,324.1,187,328.8z"/>
	</g>
	<g>
		<g>
			<path class="st15" d="M215,289.2c-1.7,0.7-5,4-6.5,6.5c-3.3,5.4-5.4,11.2-6.2,17.4c-0.7,5.3-0.2,10.5,2.1,15.4
				c2.2,4.6,6,7,11.4,7.4c0.1-2,0.3-3.8,0.2-5.7c-0.2-13.3-0.5-26.5-0.8-39.8C215.2,290.1,215.1,289.7,215,289.2z"/>
			<path class="st15" d="M224.1,290c-1.1-0.9-2.3-1.5-3.7-1.6c-0.5-0.1-1,0.1-1.5,0.2c0.3,15.7,0.6,31.1,1,46.8
				c0.6-0.2,1.1-0.4,1.7-0.7c2.7-1.4,5-3.3,6.6-5.8c3.1-4.8,4.9-10,5-15.7c0.2-6.6-1.9-12.7-5-18.5
				C227.2,292.8,225.8,291.3,224.1,290z"/>
		</g>
		<path d="M232.3,294.3c-1.3-2.6-3.1-4.9-5.4-6.8c-0.7-0.6-1.5-1.1-2.2-1.7c2.5-2.5,4.9-4.9,7.1-7.4c0.9-1,1.7-2.3,2.2-3.6
			c1.1-2.7,1-5.5-0.8-7.9c-1.2-1.6-2.8-2.1-4.7-1.6c-1.6,0.4-2.9,1.4-4.1,2.5c-2,1.8-3.5,3.9-4.7,6.2c-0.2,0.4-0.5,0.8-0.8,1.2
			c-0.6-2-1-4-1.7-5.9c-0.8-2.1-2.1-4-4.1-5.3c-2.4-1.6-4.9-1.2-6.4,1.3c-0.5,0.8-0.9,1.8-1.2,2.8c-0.8,2.8-0.5,5.5,0.5,8.2
			c1.4,3.9,3.7,7.1,7.1,9.6c-4.4,2.6-7.2,6.5-9.4,10.9c-2.9,5.5-4.7,11.4-5.2,17.6c-0.5,5.9,0.3,11.6,3.2,16.9c3.6,6.6,11,9.5,18,8
			c4.5-1,8-3.7,10.8-7.3c2.9-3.7,4.5-7.9,5.6-12.4c0.9-3.7,1.3-7.5,0.7-11.3C235.9,303.4,234.5,298.7,232.3,294.3z M209.7,275.5
			c-0.8-2-1.2-4.1-0.7-6.3c0.3-1.1,0.5-1.5,1.4-2.4c1.3,0.5,2.2,1.6,2.7,2.9c0.7,1.7,1.3,3.4,1.6,5.2c0.5,2.4,0.1,4.8-0.1,7.2
			C212.2,280.4,210.7,278.1,209.7,275.5z M215.8,335.9c-5.5-0.4-9.2-2.8-11.4-7.4c-2.3-4.9-2.8-10.1-2.1-15.4
			c0.8-6.3,2.9-12.1,6.2-17.4c1.5-2.4,4.8-5.7,6.5-6.5c0.1,0.5,0.2,0.9,0.2,1.3c0.3,13.3,0.6,26.5,0.8,39.8
			C216.1,332.1,215.9,333.9,215.8,335.9z M222.9,275.7c1.2-2.3,2.7-4.3,4.7-5.9c0.7-0.5,1.5-1.3,2.4-0.8c0.9,0.5,1.1,1.6,0.9,2.5
			c-0.2,1.1-0.4,2.3-1.1,3.1c-2.7,3.6-5.8,6.9-9.7,9.2c-0.3,0.1-0.5,0.2-0.8,0.4c0,0-0.1,0-0.4-0.1
			C220.3,281.3,221.5,278.5,222.9,275.7z M228.2,328.8c-1.6,2.5-3.9,4.4-6.6,5.8c-0.5,0.3-1.1,0.4-1.7,0.7
			c-0.3-15.7-0.6-31.1-1-46.8c0.5-0.1,1-0.2,1.5-0.2c1.4,0.2,2.6,0.8,3.7,1.6c1.6,1.3,3.1,2.8,4,4.7c3.1,5.8,5.2,11.8,5,18.5
			C233,318.8,231.3,324.1,228.2,328.8z"/>
	</g>
	<g>
		<g>
			<path class="st8" d="M256.2,289.2c-1.7,0.7-5,4-6.5,6.5c-3.3,5.4-5.4,11.2-6.2,17.4c-0.7,5.3-0.2,10.5,2.1,15.4
				c2.2,4.6,6,7,11.4,7.4c0.1-2,0.3-3.8,0.2-5.7c-0.2-13.3-0.5-26.5-0.8-39.8C256.4,290.1,256.3,289.7,256.2,289.2z"/>
			<path class="st8" d="M265.3,290c-1.1-0.9-2.3-1.5-3.7-1.6c-0.5-0.1-1,0.1-1.5,0.2c0.3,15.7,0.6,31.1,1,46.8
				c0.6-0.2,1.1-0.4,1.7-0.7c2.7-1.4,5-3.3,6.6-5.8c3.1-4.8,4.9-10,5-15.7c0.2-6.6-1.9-12.7-5-18.5
				C268.3,292.8,266.9,291.3,265.3,290z"/>
		</g>
		<path d="M273.4,294.3c-1.3-2.6-3.1-4.9-5.4-6.8c-0.7-0.6-1.5-1.1-2.2-1.7c2.5-2.5,4.9-4.9,7.1-7.4c0.9-1,1.7-2.3,2.2-3.6
			c1.1-2.7,1-5.5-0.8-7.9c-1.2-1.6-2.8-2.1-4.7-1.6c-1.6,0.4-2.9,1.4-4.1,2.5c-2,1.8-3.5,3.9-4.7,6.2c-0.2,0.4-0.5,0.8-0.8,1.2
			c-0.6-2-1-4-1.7-5.9c-0.8-2.1-2.1-4-4.1-5.3c-2.4-1.6-4.9-1.2-6.4,1.3c-0.5,0.8-0.9,1.8-1.2,2.8c-0.8,2.8-0.5,5.5,0.5,8.2
			c1.4,3.9,3.7,7.1,7.1,9.6c-4.4,2.6-7.2,6.5-9.4,10.9c-2.9,5.5-4.7,11.4-5.2,17.6c-0.5,5.9,0.3,11.6,3.2,16.9c3.6,6.6,11,9.5,18,8
			c4.5-1,8-3.7,10.8-7.3c2.9-3.7,4.5-7.9,5.6-12.4c0.9-3.7,1.3-7.5,0.7-11.3C277.1,303.4,275.6,298.7,273.4,294.3z M250.8,275.5
			c-0.8-2-1.2-4.1-0.7-6.3c0.3-1.1,0.5-1.5,1.4-2.4c1.3,0.5,2.2,1.6,2.7,2.9c0.7,1.7,1.3,3.4,1.6,5.2c0.5,2.4,0.1,4.8-0.1,7.2
			C253.4,280.4,251.9,278.1,250.8,275.5z M257,335.9c-5.5-0.4-9.2-2.8-11.4-7.4c-2.3-4.9-2.8-10.1-2.1-15.4
			c0.8-6.3,2.9-12.1,6.2-17.4c1.5-2.4,4.8-5.7,6.5-6.5c0.1,0.5,0.2,0.9,0.2,1.3c0.3,13.3,0.6,26.5,0.8,39.8
			C257.3,332.1,257.1,333.9,257,335.9z M264.1,275.7c1.2-2.3,2.7-4.3,4.7-5.9c0.7-0.5,1.5-1.3,2.4-0.8c0.9,0.5,1.1,1.6,0.9,2.5
			c-0.2,1.1-0.4,2.3-1.1,3.1c-2.7,3.6-5.8,6.9-9.7,9.2c-0.3,0.1-0.5,0.2-0.8,0.4c0,0-0.1,0-0.4-0.1
			C261.4,281.3,262.7,278.5,264.1,275.7z M269.3,328.8c-1.6,2.5-3.9,4.4-6.6,5.8c-0.5,0.3-1.1,0.4-1.7,0.7
			c-0.3-15.7-0.6-31.1-1-46.8c0.5-0.1,1-0.2,1.5-0.2c1.4,0.2,2.6,0.8,3.7,1.6c1.6,1.3,3.1,2.8,4,4.7c3.1,5.8,5.2,11.8,5,18.5
			C274.2,318.8,272.4,324.1,269.3,328.8z"/>
	</g>
</g>
</svg>
